{
.appVersion = "3151";
.formatVersion = 3;
axes = (
{
name = Stretch;
tag = STCH;
},
{
name = Flavor;
tag = FLAV;
},
{
name = Slice;
tag = SLCE;
}
);
date = "2022-04-02 16:43:17 +0000";
familyName = "TMT Mini Mochi";
fontMaster = (
{
axesValues = (
50,
0,
0
);
customParameters = (
{
name = "Master Icon Glyph Name";
value = A;
}
);
id = "19B082C2-3429-47B4-A4D8-F059340FFD3C";
metricValues = (
{
pos = 700;
},
{
pos = 700;
},
{
pos = 700;
},
{
},
{
pos = 25;
},
{
over = -16;
}
);
name = Sweet;
},
{
axesValues = (
50,
0,
100
);
customParameters = (
{
name = "Master Icon Glyph Name";
value = A;
}
);
id = "7255AB37-F0AF-404B-B2C0-BE0CDFEFD522";
metricValues = (
{
pos = 700;
},
{
pos = 700;
},
{
pos = 700;
},
{
},
{
pos = 25;
},
{
over = -16;
}
);
name = "Sweet n Sliced";
},
{
axesValues = (
0,
0,
0
);
customParameters = (
{
name = "Master Icon Glyph Name";
value = A;
}
);
id = "97FA09B7-861C-4A63-ABF9-29244986920C";
metricValues = (
{
pos = 700;
},
{
pos = 700;
},
{
pos = 700;
},
{
},
{
pos = 25;
},
{
over = -16;
}
);
name = "Sweet n Stretchy";
},
{
axesValues = (
0,
0,
100
);
customParameters = (
{
name = "Master Icon Glyph Name";
value = A;
}
);
id = "2D1336F4-505A-45CB-96E0-1A391A104589";
metricValues = (
{
pos = 700;
},
{
pos = 700;
},
{
pos = 700;
},
{
},
{
pos = 25;
},
{
over = -16;
}
);
name = "Sweet n Stretchy n Sliced";
},
{
axesValues = (
100,
0,
0
);
customParameters = (
{
name = "Master Icon Glyph Name";
value = A;
}
);
id = "73DF1801-42CB-4FE2-B370-82821562EC7A";
metricValues = (
{
pos = 700;
},
{
pos = 700;
},
{
pos = 700;
},
{
},
{
pos = 25;
},
{
over = -16;
}
);
name = "Sweet n Squishy";
},
{
axesValues = (
100,
0,
100
);
customParameters = (
{
name = "Master Icon Glyph Name";
value = A;
}
);
id = "28F6F6CF-6CF1-4298-BBDC-1B578C225890";
metricValues = (
{
pos = 700;
},
{
pos = 700;
},
{
pos = 700;
},
{
},
{
pos = 25;
},
{
over = -16;
}
);
name = "Sweet n Squishy n Sliced";
},
{
axesValues = (
50,
100,
0
);
customParameters = (
{

glyphs = (
{
glyphname = A;
lastChange = "2022-12-18 22:06:34 +0000";
layers = (
{
layerId = m01;
shapes = (
{
closed = 1;
nodes = (
(125,700,o),
(25,600,o),
(25,500,c),
(25,100,l),
(25,0,o),
(25,0,o),
(125,0,c),
(250,0,l),
(350,0,o),
(350,0,o),
(350,100,c),
(350,225,o),
(300,100,o),
(300,225,c),
(300,300,o),
(350,300,o),
(375,300,c),
(400,300,o),
(450,300,o),
(450,225,c),
(450,100,o),
(400,225,o),
(400,100,c),
(400,0,o),
(400,0,o),
(500,0,c),
(625,0,l),
(725,0,o),
(725,0,o),
(725,100,c),
(725,500,l),
(725,600,o),
(625,700,o),
(525,700,c),
(225,700,l)
);
},
{
attr = {
mask = "1";
};
closed = 1;
nodes = (
(350,550,o),
(300,550,o),
(300,475,c),
(300,400,o),
(300,400,o),
(375,400,c),
(450,400,o),
(450,400,o),
(450,475,c),
(450,550,o),
(400,550,o),
(375,550,c)
);
}
);
width = 750;
},
{
layerId = "3FB0BBD1-C623-48BB-B11C-478BB36E1931";
shapes = (
{
closed = 1;
nodes = (
(250,700,o),
(25,700,o),
(25,500,c),
(25,100,l),
(25,0,o),
(175,0,o),
(250,0,c),
(300,0,l),
(350,0,o),
(350,0,o),
(350,100,c),
(350,225,o),
(125,100,o),
(125,225,c),
(125,300,o),
(325,300,o),
(375,300,c),
(425,300,o),
(625,300,o),
(625,225,c),
(625,100,o),
(400,225,o),
(400,100,c),
(400,0,o),
(400,0,o),
(450,0,c),
(500,0,l),
(575,0,o),
(725,0,o),
(725,100,c),
(725,500,l),
(725,700,o),
(500,700,o),
(400,700,c),
(350,700,l)
);
},
{
attr = {
mask = "1";
};
closed = 1;
nodes = (
(325,550,o),
(125,550,o),
(125,475,c),
(125,400,o),
(125,400,o),
(375,400,c),
(625,400,o),
(625,400,o),
(625,475,c),
(625,550,o),
(425,550,o),
(375,550,c)
);
}
);
width = 750;
},
{
layerId = "D19652E7-EFD0-4E4C-BF76-3B076A5B34BC";
shapes = (
{
closed = 1;
nodes = (
(25,700,o),
(25,475,o),
(25,375,c),
(25,325,l),
(25,225,o),
(25,0,o),
(125,0,c),
(250,0,l),
(350,0,o),
(350,0,o),
(350,50,c),
(350,110,o),
(300,90,o),
(300,200,c),
(300,325,o),
(350,325,o),
(375,325,c),
(400,325,o),
(450,325,o),
(450,200,c),
(450,90,o),
(400,110,o),
(400,50,c),
(400,0,o),
(400,0,o),
(500,0,c),
(625,0,l),
(725,0,o),
(725,225,o),
(725,325,c),
(725,375,l),
(725,475,o),
(725,700,o),
(525,700,c),
(225,700,l)
);
},
{
attr = {
mask = "1";
};
closed = 1;
nodes = (
(350,625,o),
(300,625,o),
(300,500,c),
(300,375,o),
(300,375,o),
(375,375,c),
(450,375,o),
(450,375,o),
(450,500,c),
(450,625,o),
(400,625,o),
(375,625,c)
);
}
);
width = 750;
},
{
layerId = "19B082C2-3429-47B4-A4D8-F059340FFD3C";
shapes = (
{
closed = 1;
nodes = (
(125,700,o),
(25,600,o),
(25,500,c),
(25,100,l),
(25,0,o),
(25,0,o),
(125,0,c),
(250,0,l),
(300,0,o),
(300,0,o),
(300,50,c),
(300,50,o),
(300,75,o),
(300,75,c),
(300,150,o),
(350,150,o),
(375,150,c),
(400,150,o),
(450,150,o),
(450,75,c),
(450,75,o),
(450,50,o),
(450,50,c),
(450,0,o),
(450,0,o),
(500,0,c),
(625,0,l),
(725,0,o),
(725,0,o),
(725,100,c),
(725,500,l),
(725,600,o),
(625,700,o),
(525,700,c),
(225,700,l)
);
},
{
attr = {
mask = "1";
};
closed = 1;
nodes = (
(350,550,o),
(300,550,o),
(300,475,c),
(300,400,o),
(300,400,o),
(375,400,c),
(450,400,o),
(450,400,o),
(450,475,c),
(450,550,o),
(400,550,o),
(375,550,c)
);
}
);
width = 750;
},
{
layerId = "97FA09B7-861C-4A63-ABF9-29244986920C";
shapes = (
{
closed = 1;
nodes = (
(125,700,o),
(25,600,o),
(25,500,c),
(25,100,l),
(25,0,o),
(25,0,o),
(125,0,c),
(200,0,l),
(250,0,o),
(265,2,o),
(274,36,c),
(274,36,o),
(281,60,o),
(281,60,c),
(291,98,o),
(325,100,o),
(375,100,c),
(425,100,o),
(458,98,o),
(468,59,c),
(468,59,o),
(475,35,o),
(475,35,c),
(484,2,o),
(500,0,o),
(550,0,c),
(625,0,l),
(725,0,o),
(725,0,o),
(725,100,c),
(725,500,l),
(725,600,o),
(625,700,o),
(525,700,c),
(225,700,l)
);
},
{
attr = {
mask = "1";
};
closed = 1;
nodes = (
(325,550,o),
(200,550,o),
(200,475,c),
(200,400,o),
(200,400,o),
(375,400,c),
(550,400,o),
(550,400,o),
(550,475,c),
(550,550,o),
(425,550,o),
(375,550,c)
);
}
);
width = 750;
},
{
layerId = "73DF1801-42CB-4FE2-B370-82821562EC7A";
shapes = (
{
closed = 1;
nodes = (
(125,700,o),
(25,600,o),
(25,500,c),
(25,100,l),
(25,0,o),
(25,0,o),
(125,0,c),
(250,0,l),
(300,0,o),
(300,0,o),
(300,50,c),
(300,50,o),
(300,175,o),
(300,175,c),
(300,250,o),
(350,250,o),
(375,250,c),
(400,250,o),
(450,250,o),
(450,175,c),
(450,175,o),
(450,50,o),
(450,50,c),
(450,0,o),
(450,0,o),
(500,0,c),
(625,0,l),
(725,0,o),
(725,0,o),
(725,100,c),
(725,500,l),
(725,600,o),
(625,700,o),
(525,700,c),
(225,700,l)
);
},
{
attr = {
mask = "1";
};
closed = 1;
nodes = (
(350,600,o),
(300,600,o),
(300,476,c),
(300,350,o),
(300,350,o),
(375,350,c),
(450,350,o),
(450,350,o),
(450,476,c),
(450,600,o),
(400,600,o),
(375,600,c)
);
}
);
width = 750;
},
{
layerId = "7255AB37-F0AF-404B-B2C0-BE0CDFEFD522";
shapes = (
{
closed = 1;
nodes = (
(159,634,o),
(92,567,o),
(25,500,c),
(25,100,l),
(59,67,o),
(92,33,o),
(125,0,c),
(250,0,l),
(267,17,o),
(283,33,o),
(300,50,c),
(300,59,o),
(300,67,o),
(300,75,c),
(325,100,o),
(350,125,o),
(375,150,c),
(400,125,o),
(425,100,o),
(450,75,c),
(450,67,o),
(450,58,o),
(450,50,c),
(467,34,o),
(483,17,o),
(500,0,c),
(625,0,l),
(659,34,o),
(692,67,o),
(725,100,c),
(725,500,l),
(659,567,o),
(592,633,o),
(525,700,c),
(225,700,l)
);
},
{
attr = {
mask = "1";
};
closed = 1;
nodes = (
(350,525,o),
(325,500,o),
(300,475,c),
(325,450,o),
(350,425,o),
(375,400,c),
(400,425,o),
(425,450,o),
(450,475,c),
(425,500,o),
(400,525,o),
(375,550,c)
);
}
);
width = 750;
},
{
layerId = "2D1336F4-505A-45CB-96E0-1A391A104589";
shapes = (
{
closed = 1;
nodes = (
(159,634,o),
(92,567,o),
(25,500,c),
(25,100,l),
(59,67,o),
(92,33,o),
(125,0,c),
(200,0,l),
(225,12,o),
(249,24,o),
(274,36,c),
(277,44,o),
(279,52,o),
(281,60,c),
(313,74,o),
(344,87,o),
(375,100,c),
(406,87,o),
(437,73,o),
(468,59,c),
(471,51,o),
(473,43,o),
(475,35,c),
(500,24,o),
(525,12,o),
(550,0,c),
(625,0,l),
(659,34,o),
(692,67,o),
(725,100,c),
(725,500,l),
(659,567,o),
(592,633,o),
(525,700,c),
(225,700,l)
);
},
{
attr = {
mask = "1";
};
closed = 1;
nodes = (
(317,525,o),
(258,500,o),
(200,475,c),
(259,450,o),
(317,425,o),
(375,400,c),
(434,425,o),
(492,450,o),
(550,475,c),
(492,500,o),
(433,525,o),
(375,550,c)
);
}
);
width = 750;
},
{
layerId = "28F6F6CF-6CF1-4298-BBDC-1B578C225890";
shapes = (
{
closed = 1;
nodes = (
(159,634,o),
(92,567,o),
(25,500,c),
(25,100,l),
(59,67,o),
(92,33,o),
(125,0,c),
(250,0,l),
(267,17,o),
(283,33,o),
(300,50,c),
(300,92,o),
(300,133,o),
(300,175,c),
(325,200,o),
(350,225,o),
(375,250,c),
(400,225,o),
(425,200,o),
(450,175,c),
(450,134,o),
(450,92,o),
(450,50,c),
(467,34,o),
(483,17,o),
(500,0,c),
(625,0,l),
(659,34,o),
(692,67,o),
(725,100,c),
(725,500,l),
(659,567,o),
(592,633,o),
(525,700,c),
(225,700,l)
);
},
{
attr = {
mask = "1";
};
closed = 1;
nodes = (
(350,559,o),
(325,517,o),
(300,476,c),
(325,434,o),
(350,392,o),
(375,350,c),
(400,392,o),
(425,434,o),
(450,476,c),
(425,518,o),
(400,559,o),
(375,600,c)
);
}
);
width = 750;
},
{
layerId = "66BFC9E6-1952-4B87-BF6C-C5A8A5CAFA4D";
shapes = (
{
closed = 1;
nodes = (
(159,634,o),
(92,567,o),
(25,500,c),
(25,100,l),
(59,67,o),
(92,33,o),
(125,0,c),
(250,0,l),
(284,34,o),
(317,67,o),
(350,100,c),
(334,142,o),
(317,183,o),
(300,225,c),
(325,250,o),
(350,275,o),
(375,300,c),
(400,275,o),
(425,250,o),
(450,225,c),
(434,184,o),
(417,142,o),
(400,100,c),
(434,67,o),
(467,33,o),
(500,0,c),
(625,0,l),
(659,34,o),
(692,67,o),
(725,100,c),
(725,500,l),
(659,567,o),
(592,633,o),
(525,700,c),
(225,700,l)
);
},
{
attr = {
mask = "1";
};
closed = 1;
nodes = (
(350,525,o),
(325,500,o),
(300,475,c),
(325,450,o),
(350,425,o),
(375,400,c),
(400,425,o),
(425,450,o),
(450,475,c),
(425,500,o),
(400,525,o),
(375,550,c)
);
}
);
width = 750;
},
{
layerId = "5D199366-843B-4174-BE1F-6720719AACE9";
shapes = (
{
closed = 1;
nodes = (
(242,634,o),
(133,567,o),
(25,500,c),
(25,100,l),
(100,67,o),
(175,33,o),
(250,0,c),
(300,0,l),
(317,34,o),
(333,67,o),
(350,100,c),
(275,142,o),
(200,183,o),
(125,225,c),
(209,250,o),
(292,275,o),
(375,300,c),
(459,275,o),
(542,250,o),
(625,225,c),
(550,184,o),
(475,142,o),
(400,100,c),
(417,67,o),
(433,33,o),
(450,0,c),
(500,0,l),
(575,34,o),
(650,67,o),
(725,100,c),
(725,500,l),
(617,567,o),
(508,633,o),
(400,700,c),
(350,700,l)
);
},
{
attr = {
mask = "1";
};
closed = 1;
nodes = (
(292,525,o),
(208,500,o),
(125,475,c),
(209,450,o),
(292,425,o),
(375,400,c),
(459,425,o),
(542,450,o),
(625,475,c),
(542,500,o),
(458,525,o),
(375,550,c)
);
}
);
width = 750;
},
{
layerId = "C9F343FC-F72A-4E5E-9438-E02DE7AFC5D3";
shapes = (
{
closed = 1;
nodes = (
(159,592,o),
(92,483,o),
(25,375,c),
(25,325,l),
(59,217,o),
(92,108,o),
(125,0,c),
(250,0,l),
(284,17,o),
(317,33,o),
(350,50,c),
(334,100,o),
(317,150,o),
(300,200,c),
(325,242,o),
(350,283,o),
(375,325,c),
(400,284,o),
(425,242,o),
(450,200,c),
(434,150,o),
(417,100,o),
(400,50,c),
(434,34,o),
(467,17,o),
(500,0,c),
(625,0,l),
(659,109,o),
(692,217,o),
(725,325,c),
(725,375,l),
(659,484,o),
(592,592,o),
(525,700,c),
(225,700,l)
);
},
{
attr = {
mask = "1";
};
closed = 1;
nodes = (
(350,584,o),
(325,542,o),
(300,500,c),
(325,459,o),
(350,417,o),
(375,375,c),
(400,417,o),
(425,458,o),
(450,500,c),
(425,542,o),
(400,583,o),
(375,625,c)
);
}
);
width = 750;
}
);
unicode = (65,97);
},
{
glyphname = B;
lastChange = "2022-12-18 21:56:42 +0000";
layers = (
{
layerId = m01;
shapes = (
{
closed = 1;
nodes = (
(25,700,o),
(25,700,o),
(25,600,c),
(25,100,l),
(25,0,o),
(25,0,o),
(125,0,c),
(525,0,l),
(625,0,o),
(725,100,o),
(725,200,c),
(725,350,o),
(625,225,o),
(625,350,c),
(625,475,o),
(725,350,o),
(725,500,c),
(725,600,o),
(625,700,o),
(525,700,c),
(125,700,l)
);
},
{
attr = {
mask = "1";
};
closed = 1;
nodes = (
(350,550,o),
(300,550,o),
(300,475,c),
(300,400,o),
(300,400,o),
(375,400,c),
(450,400,o),
(450,400,o),
(450,475,c),
(450,550,o),
(400,550,o),
(375,550,c)
);
},
{
attr = {
mask = "1";
};
closed = 1;
nodes = (
(300,300,o),
(300,300,o),
(300,225,c),
(300,150,o),
(350,150,o),
(375,150,c),
(400,150,o),
(450,150,o),
(450,225,c),
(450,300,o),
(450,300,o),
(375,300,c)
);
}
);
width = 750;
},
{
layerId = "3FB0BBD1-C623-48BB-B11C-478BB36E1931";
shapes = (
{
closed = 1;
nodes = (
(250,700,o),
(25,700,o),
(25,600,c),
(25,100,l),
(25,0,o),
(250,0,o),
(350,0,c),
(400,0,l),
(500,0,o),
(725,0,o),
(725,200,c),
(725,350,o),
(600,300,o),
(600,350,c),
(600,400,o),
(725,350,o),
(725,500,c),
(725,700,o),
(500,700,o),
(400,700,c),
(350,700,l)
);
},
{
attr = {
mask = "1";
};
closed = 1;
nodes = (
(325,550,o),
(125,550,o),
(125,475,c),
(125,400,o),
(125,400,o),
(375,400,c),
(625,400,o),
(625,400,o),
(625,475,c),
(625,550,o),
(425,550,o),
(375,550,c)
);
},
{
attr = {
mask = "1";
};
closed = 1;
nodes = (
(125,300,o),
(125,300,o),
(125,225,c),
(125,150,o),
(325,150,o),
(375,150,c),
(425,150,o),
(625,150,o),
(625,225,c),
(625,300,o),
(625,300,o),
(375,300,c)
);
}
);
width = 750;
},
{
layerId = "D19652E7-EFD0-4E4C-BF76-3B076A5B34BC";
shapes = (
{
closed = 1;
nodes = (
(25,700,o),
(25,475,o),
(25,375,c),
(25,325,l),
(25,225,o),
(25,0,o),
(125,0,c),
(525,0,l),
(625,0,o),
(725,75,o),
(725,175,c),
(725,325,o),
(625,175,o),
(625,350,c),
(625,525,o),
(725,375,o),
(725,525,c),
(725,625,o),
(625,700,o),
(525,700,c),
(125,700,l)
);
},
{
attr = {
mask = "1";
};
closed = 1;
nodes = (
(350,625,o),
(300,625,o),
(300,501,c),
(300,375,o),
(300,375,o),
(375,375,c),
(450,375,o),
(450,375,o),
(450,501,c),
(450,625,o),
(400,625,o),
(375,625,c)
);
},
{
attr = {
mask = "1";
};
closed = 1;
nodes = (
(300,325,o),
(300,325,o),
(300,201,c),
(300,75,o),
(350,75,o),
(375,75,c),
(400,75,o),
(450,75,o),
(450,201,c),
(450,325,o),
(450,325,o),
(375,325,c)
);
}
);
width = 750;
},
{
layerId = "19B082C2-3429-47B4-A4D8-F059340FFD3C";
shapes = (
{
closed = 1;
nodes = (
(25,700,o),
(25,700,o),
(25,600,c),
(25,100,l),
(25,0,o),
(25,0,o),
(125,0,c),
(525,0,l),
(625,0,o),
(725,100,o),
(725,225,c),
(725,350,o),
(625,225,o),
(625,350,c),
(625,475,o),
(725,350,o),
(725,475,c),
(725,600,o),
(625,700,o),
(525,700,c),
(125,700,l)
);
},
{
attr = {
mask = "1";
};
closed = 1;
nodes = (
(350,550,o),
(300,550,o),
(300,475,c),
(300,400,o),
(300,400,o),
(375,400,c),
(450,400,o),
(450,400,o),
(450,475,c),
(450,550,o),
(400,550,o),
(375,550,c)
);
},
{
attr = {
mask = "1";
};
closed = 1;
nodes = (
(300,300,o),
(300,300,o),
(300,225,c),
(300,150,o),
(350,150,o),
(375,150,c),
(400,150,o),
(450,150,o),
(450,225,c),
(450,300,o),
(450,300,o),
(375,300,c)
);
}
);
width = 750;
},
{
layerId = "97FA09B7-861C-4A63-ABF9-29244986920C";
shapes = (
{
closed = 1;
nodes = (
(25,700,o),
(25,700,o),
(25,600,c),
(25,100,l),
(25,0,o),
(25,0,o),
(125,0,c),
(525,0,l),
(625,0,o),
(725,100,o),
(725,225,c),
(725,350,o),
(600,225,o),
(600,350,c),
(600,475,o),
(725,350,o),
(725,475,c),
(725,600,o),
(625,700,o),
(525,700,c),
(125,700,l)
);
},
{
attr = {
mask = "1";
};
closed = 1;
nodes = (
(325,550,o),
(200,550,o),
(200,475,c),
(200,400,o),
(200,400,o),
(375,400,c),
(550,400,o),
(550,400,o),
(550,475,c),
(550,550,o),
(425,550,o),
(375,550,c)
);
},
{
attr = {
mask = "1";
};
closed = 1;
nodes = (
(200,300,o),
(200,300,o),
(200,225,c),
(200,150,o),
(325,150,o),
(375,150,c),
(425,150,o),
(550,150,o),
(550,225,c),
(550,300,o),
(550,300,o),
(375,300,c)
);
}
);
width = 750;
},
{
layerId = "73DF1801-42CB-4FE2-B370-82821562EC7A";
shapes = (
{
closed = 1;
nodes = (
(25,700,o),
(25,700,o),
(25,600,c),
(25,100,l),
(25,0,o),
(25,0,o),
(125,0,c),
(525,0,l),
(625,0,o),
(725,75,o),
(725,175,c),
(725,325,o),
(625,175,o),
(625,350,c),
(625,525,o),
(725,375,o),
(725,525,c),
(725,625,o),
(625,700,o),
(525,700,c),
(125,700,l)
);
},
{
attr = {
mask = "1";
};
closed = 1;
nodes = (
(350,625,o),
(300,625,o),
(300,501,c),
(300,375,o),
(300,375,o),
(375,375,c),
(450,375,o),
(450,375,o),
(450,501,c),
(450,625,o),
(400,625,o),
(375,625,c)
);
},
{
attr = {
mask = "1";
};
closed = 1;
nodes = (
(300,325,o),
(300,325,o),
(300,201,c),
(300,75,o),
(350,75,o),
(375,75,c),
(400,75,o),
(450,75,o),
(450,201,c),
(450,325,o),
(450,325,o),
(375,325,c)
);
}
);
width = 750;
},
{
layerId = "7255AB37-F0AF-404B-B2C0-BE0CDFEFD522";
shapes = (
{
closed = 1;
nodes = (
(125,700,o),
(25,600,o),
(25,600,c),
(25,100,l),
(25,100,o),
(125,0,o),
(125,0,c),
(525,0,l),
(525,0,o),
(725,225,o),
(725,225,c),
(725,225,o),
(625,350,o),
(625,350,c),
(625,350,o),
(725,475,o),
(725,475,c),
(725,475,o),
(525,700,o),
(525,700,c),
(125,700,l)
);
},
{
attr = {
mask = "1";
};
closed = 1;
nodes = (
(375,550,o),
(300,475,o),
(300,475,c),
(300,475,o),
(375,400,o),
(375,400,c),
(375,400,o),
(450,475,o),
(450,475,c),
(450,475,o),
(375,550,o),
(375,550,c)
);
},
{
attr = {
mask = "1";
};
closed = 1;
nodes = (
(375,300,o),
(300,225,o),
(300,225,c),
(300,225,o),
(375,150,o),
(375,150,c),
(375,150,o),
(450,225,o),
(450,225,c),
(450,225,o),
(375,300,o),
(375,300,c)
);
}
);
width = 750;
},
{
layerId = "2D1336F4-505A-45CB-96E0-1A391A104589";
shapes = (
{
closed = 1;
nodes = (
(125,700,o),
(25,600,o),
(25,600,c),
(25,100,l),
(25,100,o),
(125,0,o),
(125,0,c),
(525,0,l),
(525,0,o),
(725,225,o),
(725,225,c),
(725,225,o),
(600,350,o),
(600,350,c),
(600,350,o),
(725,475,o),
(725,475,c),
(725,475,o),
(525,700,o),
(525,700,c),
(125,700,l)
);
},
{
attr = {
mask = "1";
};
closed = 1;
nodes = (
(375,550,o),
(200,475,o),
(200,475,c),
(200,475,o),
(375,400,o),
(375,400,c),
(375,400,o),
(550,475,o),
(550,475,c),
(550,475,o),
(375,550,o),
(375,550,c)
);
},
{
attr = {
mask = "1";
};
closed = 1;
nodes = (
(375,300,o),
(200,225,o),
(200,225,c),
(200,225,o),
(375,150,o),
(375,150,c),
(375,150,o),
(550,225,o),
(550,225,c),
(550,225,o),
(375,300,o),
(375,300,c)
);
}
);
width = 750;
},
{
layerId = "28F6F6CF-6CF1-4298-BBDC-1B578C225890";
shapes = (
{
closed = 1;
nodes = (
(125,700,o),
(25,600,o),
(25,600,c),
(25,100,l),
(25,100,o),
(125,0,o),
(125,0,c),
(525,0,l),
(525,0,o),
(725,175,o),
(725,175,c),
(725,175,o),
(625,350,o),
(625,350,c),
(625,350,o),
(725,525,o),
(725,525,c),
(725,525,o),
(525,700,o),
(525,700,c),
(125,700,l)
);
},
{
attr = {
mask = "1";
};
closed = 1;
nodes = (
(375,625,o),
(300,501,o),
(300,501,c),
(300,501,o),
(375,375,o),
(375,375,c),
(375,375,o),
(450,501,o),
(450,501,c),
(450,501,o),
(375,625,o),
(375,625,c)
);
},
{
attr = {
mask = "1";
};
closed = 1;
nodes = (
(375,325,o),
(300,201,o),
(300,201,c),
(300,201,o),
(375,75,o),
(375,75,c),
(375,75,o),
(450,201,o),
(450,201,c),
(450,201,o),
(375,325,o),
(375,325,c)
);
}
);
width = 750;
},
{
layerId = "66BFC9E6-1952-4B87-BF6C-C5A8A5CAFA4D";
shapes = (
{
closed = 1;
nodes = (
(125,700,o),
(25,600,o),
(25,600,c),
(25,100,l),
(25,100,o),
(125,0,o),
(125,0,c),
(525,0,l),
(525,0,o),
(725,200,o),
(725,200,c),
(725,200,o),
(625,350,o),
(625,350,c),
(625,350,o),
(725,500,o),
(725,500,c),
(725,500,o),
(525,700,o),
(525,700,c),
(125,700,l)
);
},
{
attr = {
mask = "1";
};
closed = 1;
nodes = (
(375,550,o),
(300,475,o),
(300,475,c),
(300,475,o),
(375,400,o),
(375,400,c),
(375,400,o),
(450,475,o),
(450,475,c),
(450,475,o),
(375,550,o),
(375,550,c)
);
},
{
attr = {
mask = "1";
};
closed = 1;
nodes = (
(375,300,o),
(300,225,o),
(300,225,c),
(300,225,o),
(375,150,o),
(375,150,c),
(375,150,o),
(450,225,o),
(450,225,c),
(450,225,o),
(375,300,o),
(375,300,c)
);
}
);
width = 750;
},
{
layerId = "5D199366-843B-4174-BE1F-6720719AACE9";
shapes = (
{
closed = 1;
nodes = (
(350,700,o),
(25,600,o),
(25,600,c),
(25,100,l),
(25,100,o),
(350,0,o),
(350,0,c),
(400,0,l),
(400,0,o),
(725,200,o),
(725,200,c),
(725,200,o),
(600,350,o),
(600,350,c),
(600,350,o),
(725,500,o),
(725,500,c),
(725,500,o),
(400,700,o),
(400,700,c),
(350,700,l)
);
},
{
attr = {
mask = "1";
};
closed = 1;
nodes = (
(375,550,o),
(125,475,o),
(125,475,c),
(125,475,o),
(375,400,o),
(375,400,c),
(375,400,o),
(625,475,o),
(625,475,c),
(625,475,o),
(375,550,o),
(375,550,c)
);
},
{
attr = {
mask = "1";
};
closed = 1;
nodes = (
(375,300,o),
(125,225,o),
(125,225,c),
(125,225,o),
(375,150,o),
(375,150,c),
(375,150,o),
(625,225,o),
(625,225,c),
(625,225,o),
(375,300,o),
(375,300,c)
);
}
);
width = 750;
},
{
layerId = "C9F343FC-F72A-4E5E-9438-E02DE7AFC5D3";
shapes = (
{
closed = 1;
nodes = (
(125,700,o),
(25,375,o),
(25,375,c),
(25,325,l),
(25,325,o),
(125,0,o),
(125,0,c),
(525,0,l),
(525,0,o),
(725,175,o),
(725,175,c),
(725,175,o),
(625,350,o),
(625,350,c),
(625,350,o),
(725,524,o),
(725,525,c),
(725,525,o),
(525,700,o),
(525,700,c),
(125,700,l)
);
},
{
attr = {
mask = "1";
};
closed = 1;
nodes = (
(350,625,o),
(300,501,o),
(300,501,c),
(300,501,o),
(375,375,o),
(375,375,c),
(375,375,o),
(450,501,o),
(450,501,c),
(450,501,o),
(400,625,o),
(375,625,c)
);
},
{
attr = {
mask = "1";
};
closed = 1;
nodes = (
(375,325,o),
(300,201,o),
(300,201,c),
(300,201,o),
(375,75,o),
(375,75,c),
(375,75,o),
(450,201,o),
(450,201,c),
(450,201,o),
(375,325,o),
(375,325,c)
);
}
);
width = 750;
}
);
unicode = (66,98);
},
{
glyphname = C;
lastChange = "2022-12-19 01:41:23 +0000";
layers = (
{
layerId = m01;
shapes = (
{
closed = 1;
nodes = (
(125,700,o),
(25,600,o),
(25,500,c),
(25,200,l),
(25,100,o),
(125,0,o),
(225,0,c),
(525,0,l),
(625,0,o),
(725,100,o),
(725,200,c),
(725,325,o),
(725,325,o),
(625,325,c),
(500,325,l),
(375,325,o),
(500,275,o),
(375,275,c),
(300,275,o),
(300,325,o),
(300,350,c),
(300,375,o),
(300,425,o),
(375,425,c),
(500,425,o),
(375,375,o),
(500,375,c),
(625,375,l),
(725,375,o),
(725,375,o),
(725,500,c),
(725,600,o),
(625,700,o),
(525,700,c),
(225,700,l)
);
}
);
width = 750;
},
{
layerId = "3FB0BBD1-C623-48BB-B11C-478BB36E1931";
shapes = (
{
closed = 1;
nodes = (
(250,700,o),
(25,700,o),
(25,500,c),
(25,200,l),
(25,0,o),
(250,0,o),
(350,0,c),
(400,0,l),
(500,0,o),
(725,0,o),
(725,200,c),
(725,325,o),
(725,325,o),
(675,325,c),
(625,325,l),
(550,325,o),
(600,250,o),
(375,250,c),
(125,250,o),
(125,325,o),
(125,350,c),
(125,375,o),
(125,450,o),
(375,450,c),
(600,450,o),
(550,375,o),
(625,375,c),
(675,375,l),
(725,375,o),
(725,375,o),
(725,500,c),
(725,700,o),
(500,700,o),
(400,700,c),
(350,700,l)
);
}
);
width = 750;
},
{
layerId = "D19652E7-EFD0-4E4C-BF76-3B076A5B34BC";
shapes = (
{
closed = 1;
nodes = (
(25,700,o),
(25,475,o),
(25,375,c),
(25,325,l),
(25,225,o),
(25,0,o),
(225,0,c),
(525,0,l),
(725,0,o),
(725,200,o),
(725,275,c),
(725,325,o),
(725,325,o),
(625,325,c),
(500,325,l),
(375,325,o),
(500,75,o),
(375,75,c),
(300,75,o),
(300,300,o),
(300,350,c),
(300,400,o),
(300,625,o),
(375,625,c),
(500,625,o),
(375,375,o),
(500,375,c),
(625,375,l),
(725,375,o),
(725,375,o),
(725,425,c),
(725,500,o),
(725,700,o),
(525,700,c),
(225,700,l)
);
}
);
width = 750;
},
{
layerId = "19B082C2-3429-47B4-A4D8-F059340FFD3C";
shapes = (
{
closed = 1;
nodes = (
(125,700,o),
(25,600,o),
(25,500,c),
(25,200,l),
(25,100,o),
(125,0,o),
(225,0,c),
(525,0,l),
(625,0,o),
(725,100,o),
(725,200,c),
(725,275,o),
(725,275,o),
(675,275,c),
(662,275,l),
(662,275,o),
(650,275,o),
(650,275,c),
(575,275,o),
(575,325,o),
(575,350,c),
(575,375,o),
(575,425,o),
(650,425,c),
(650,425,o),
(662,425,o),
(662,425,c),
(675,425,l),
(725,425,o),
(725,425,o),
(725,500,c),
(725,600,o),
(625,700,o),
(525,700,c),
(225,700,l)
);
}
);
width = 750;
},
{
layerId = "97FA09B7-861C-4A63-ABF9-29244986920C";
shapes = (
{
closed = 1;
nodes = (
(125,700,o),
(25,600,o),
(25,500,c),
(25,200,l),
(25,100,o),
(125,0,o),
(225,0,c),
(525,0,l),
(625,0,o),
(725,100,o),
(725,200,c),
(725,275,o),
(725,275,o),
(675,275,c),
(625,275,l),
(625,275,o),
(475,275,o),
(475,275,c),
(375,275,o),
(375,325,o),
(375,350,c),
(375,375,o),
(375,425,o),
(475,425,c),
(475,425,o),
(625,425,o),
(625,425,c),
(675,425,l),
(725,425,o),
(725,425,o),
(725,500,c),
(725,600,o),
(625,700,o),
(525,700,c),
(225,700,l)
);
}
);
width = 750;
},
{
layerId = "73DF1801-42CB-4FE2-B370-82821562EC7A";
shapes = (
{
closed = 1;
nodes = (
(125,700,o),
(25,600,o),
(25,500,c),
(25,200,l),
(25,100,o),
(125,0,o),
(225,0,c),
(525,0,l),
(625,0,o),
(725,75,o),
(725,175,cs),
(725,244,o),
(717,245,o),
(679,253,cs),
(674,254,l),
(674,254,o),
(669,255,o),
(669,255,c),
(632,263,o),
(625,300,o),
(625,350,c),
(625,400,o),
(633,437,o),
(669,445,c),
(669,445,o),
(674,446,o),
(674,446,c),
(679,447,ls),
(716,454,o),
(725,457,o),
(725,525,cs),
(725,625,o),
(625,700,o),
(525,700,c),
(225,700,l)
);
}
);
width = 750;
},
{
layerId = "7255AB37-F0AF-404B-B2C0-BE0CDFEFD522";
shapes = (
{
closed = 1;
nodes = (
(159,634,o),
(92,567,o),
(25,500,c),
(25,200,l),
(92,134,o),
(158,67,o),
(225,0,c),
(525,0,l),
(592,67,o),
(658,133,o),
(725,200,c),
(709,225,o),
(692,250,o),
(675,275,c),
(662,275,l),
(658,275,o),
(654,275,o),
(650,275,c),
(625,300,o),
(600,325,o),
(575,350,c),
(600,375,o),
(625,400,o),
(650,425,c),
(654,425,o),
(658,425,o),
(662,425,c),
(675,425,l),
(692,450,o),
(708,475,o),
(725,500,c),
(659,567,o),
(592,633,o),
(525,700,c),
(225,700,l)
);
}
);
width = 750;
},
{
layerId = "2D1336F4-505A-45CB-96E0-1A391A104589";
shapes = (
{
closed = 1;
nodes = (
(159,634,o),
(92,567,o),
(25,500,c),
(25,200,l),
(92,134,o),
(158,67,o),
(225,0,c),
(525,0,l),
(592,67,o),
(658,133,o),
(725,200,c),
(709,225,o),
(692,250,o),
(675,275,c),
(625,275,l),
(575,275,o),
(525,275,o),
(475,275,c),
(442,300,o),
(408,325,o),
(375,350,c),
(409,375,o),
(442,400,o),
(475,425,c),
(525,425,o),
(575,425,o),
(625,425,c),
(675,425,l),
(692,450,o),
(708,475,o),
(725,500,c),
(659,567,o),
(592,633,o),
(525,700,c),
(225,700,l)
);
}
);
width = 750;
},
{
layerId = "28F6F6CF-6CF1-4298-BBDC-1B578C225890";
shapes = (
{
closed = 1;
nodes = (
(159,634,o),
(92,567,o),
(25,500,c),
(25,200,l),
(92,134,o),
(158,67,o),
(225,0,c),
(525,0,l),
(592,59,o),
(658,117,o),
(725,175,c),
(710,201,o),
(694,227,o),
(679,253,c),
(674,254,l),
(674,254,o),
(669,255,o),
(669,255,c),
(655,287,o),
(640,318,o),
(625,350,c),
(640,382,o),
(654,413,o),
(669,445,c),
(669,445,o),
(674,446,o),
(674,446,c),
(679,447,l),
(695,473,o),
(710,499,o),
(725,525,c),
(659,584,o),
(592,642,o),
(525,700,c),
(225,700,l)
);
}
);
width = 750;
},
{
layerId = "66BFC9E6-1952-4B87-BF6C-C5A8A5CAFA4D";
shapes = (
{
closed = 1;
nodes = (
(159,634,o),
(92,567,o),
(25,500,c),
(25,200,l),
(92,134,o),
(158,67,o),
(225,0,c),
(525,0,l),
(592,67,o),
(658,133,o),
(725,200,c),
(692,242,o),
(658,283,o),
(625,325,c),
(500,325,l),
(459,309,o),
(417,292,o),
(375,275,c),
(350,300,o),
(325,325,o),
(300,350,c),
(325,375,o),
(350,400,o),
(375,425,c),
(417,409,o),
(458,392,o),
(500,375,c),
(625,375,l),
(659,417,o),
(692,458,o),
(725,500,c),
(659,567,o),
(592,633,o),
(525,700,c),
(225,700,l)
);
}
);
width = 750;
},
{
layerId = "5D199366-843B-4174-BE1F-6720719AACE9";
shapes = (
{
closed = 1;
nodes = (
(242,634,o),
(133,567,o),
(25,500,c),
(25,200,l),
(134,134,o),
(242,67,o),
(350,0,c),
(400,0,l),
(509,67,o),
(617,133,o),
(725,200,c),
(709,242,o),
(692,283,o),
(675,325,c),
(625,325,l),
(542,300,o),
(458,275,o),
(375,250,c),
(292,284,o),
(208,317,o),
(125,350,c),
(209,384,o),
(292,417,o),
(375,450,c),
(459,425,o),
(542,400,o),
(625,375,c),
(675,375,l),
(692,417,o),
(708,458,o),
(725,500,c),
(617,567,o),
(508,633,o),
(400,700,c),
(350,700,l)
);
}
);
width = 750;
},
{
layerId = "C9F343FC-F72A-4E5E-9438-E02DE7AFC5D3";
shapes = (
{
closed = 1;
nodes = (
(159,592,o),
(92,483,o),
(25,375,c),
(25,325,l),
(92,217,o),
(158,108,o),
(225,0,c),
(525,0,l),
(592,92,o),
(658,183,o),
(725,275,c),
(692,292,o),
(658,308,o),
(625,325,c),
(500,325,l),
(459,242,o),
(417,158,o),
(375,75,c),
(350,167,o),
(325,258,o),
(300,350,c),
(325,442,o),
(350,533,o),
(375,625,c),
(417,542,o),
(458,458,o),
(500,375,c),
(625,375,l),
(658,392,o),
(692,408,o),
(725,425,c),
(659,517,o),
(592,608,o),
(525,700,c),
(225,700,l)
);
}
);
width = 750;
}
);
unicode = (67,99);
},
{
glyphname = D;
lastChange = "2022-12-19 02:16:16 +0000";
layers = (
{
layerId = m01;
shapes = (
{
closed = 1;
nodes = (
(259,0,o),
(392,0,o),
(525,0,c),
(625,0,o),
(725,100,o),
(725,200,c),
(725,300,o),
(725,400,o),
(725,500,c),
(725,600,o),
(625,700,o),
(525,700,c),
(392,700,o),
(258,700,o),
(125,700,c),
(25,700,o),
(25,700,o),
(25,600,c),
(25,434,o),
(25,267,o),
(25,100,c),
(25,0,o),
(25,0,o),
(125,0,c)
);
},
{
closed = 1;
nodes = (
(300,275,o),
(300,275,o),
(300,350,c),
(300,425,o),
(300,425,o),
(375,425,c),
(450,425,o),
(450,375,o),
(450,350,c),
(450,325,o),
(450,275,o),
(375,275,c)
);
}
);
width = 750;
},
{
layerId = "3FB0BBD1-C623-48BB-B11C-478BB36E1931";
shapes = (
{
closed = 1;
nodes = (
(367,0,o),
(383,0,o),
(400,0,c),
(500,0,o),
(725,0,o),
(725,200,c),
(725,300,o),
(725,400,o),
(725,500,c),
(725,700,o),
(500,700,o),
(400,700,c),
(384,700,o),
(367,700,o),
(350,700,c),
(250,700,o),
(25,700,o),
(25,600,c),
(25,434,o),
(25,267,o),
(25,100,c),
(25,0,o),
(250,0,o),
(350,0,c)
);
},
{
closed = 1;
nodes = (
(125,250,o),
(125,275,o),
(125,350,c),
(125,425,o),
(125,450,o),
(375,450,c),
(625,450,o),
(625,375,o),
(625,350,c),
(625,325,o),
(625,250,o),
(375,250,c)
);
}
);
width = 750;
},
{
layerId = "D19652E7-EFD0-4E4C-BF76-3B076A5B34BC";
shapes = (
{
closed = 1;
nodes = (
(259,0,o),
(392,0,o),
(525,0,c),
(725,0,o),
(725,225,o),
(725,325,c),
(725,342,o),
(725,358,o),
(725,375,c),
(725,475,o),
(725,700,o),
(525,700,c),
(392,700,o),
(258,700,o),
(125,700,c),
(25,700,o),
(25,475,o),
(25,375,c),
(25,359,o),
(25,342,o),
(25,325,c),
(25,225,o),
(25,0,o),
(125,0,c)
);
},
{
closed = 1;
nodes = (
(300,75,o),
(300,75,o),
(300,350,c),
(300,625,o),
(300,625,o),
(375,625,c),
(450,625,o),
(450,400,o),
(450,350,c),
(450,300,o),
(450,75,o),
(375,75,c)
);
}
);
width = 750;
},
{
layerId = "19B082C2-3429-47B4-A4D8-F059340FFD3C";
shapes = (
{
closed = 1;
nodes = (
(259,0,o),
(392,0,o),
(525,0,c),
(625,0,o),
(725,100,o),
(725,200,c),
(725,300,o),
(725,400,o),
(725,500,c),
(725,600,o),
(625,700,o),
(525,700,c),
(392,700,o),
(258,700,o),
(125,700,c),
(25,700,o),
(25,700,o),
(25,600,c),
(25,434,o),
(25,267,o),
(25,100,c),
(25,0,o),
(25,0,o),
(125,0,c)
);
},
{
closed = 1;
nodes = (
(300,275,o),
(300,275,o),
(300,350,c),
(300,425,o),
(300,425,o),
(375,425,c),
(450,425,o),
(450,375,o),
(450,350,c),
(450,325,o),
(450,275,o),
(375,275,c)
);
}
);
width = 750;
},
{
layerId = "97FA09B7-861C-4A63-ABF9-29244986920C";
shapes = (
{
closed = 1;
nodes = (
(259,0,o),
(392,0,o),
(525,0,c),
(625,0,o),
(725,100,o),
(725,200,c),
(725,300,o),
(725,400,o),
(725,500,c),
(725,600,o),
(625,700,o),
(525,700,c),
(392,700,o),
(258,700,o),
(125,700,c),
(25,700,o),
(25,700,o),
(25,600,c),
(25,434,o),
(25,267,o),
(25,100,c),
(25,0,o),
(25,0,o),
(125,0,c)
);
},
{
closed = 1;
nodes = (
(200,275,o),
(200,275,o),
(200,350,c),
(200,425,o),
(200,425,o),
(375,425,c),
(550,425,o),
(550,375,o),
(550,350,c),
(550,325,o),
(550,275,o),
(375,275,c)
);
}
);
width = 750;
},
{
layerId = "73DF1801-42CB-4FE2-B370-82821562EC7A";
shapes = (
{
closed = 1;
nodes = (
(259,0,o),
(392,0,o),
(525,0,c),
(625,0,o),
(725,100,o),
(725,200,c),
(725,300,o),
(725,400,o),
(725,500,c),
(725,600,o),
(625,700,o),
(525,700,c),
(392,700,o),
(258,700,o),
(125,700,c),
(25,700,o),
(25,700,o),
(25,600,c),
(25,434,o),
(25,267,o),
(25,100,c),
(25,0,o),
(25,0,o),
(125,0,c)
);
},
{
closed = 1;
nodes = (
(300,175,o),
(300,175,o),
(300,350,c),
(300,525,o),
(300,525,o),
(375,525,c),
(450,525,o),
(450,400,o),
(450,350,c),
(450,300,o),
(450,175,o),
(375,175,c)
);
}
);
width = 750;
},
{
layerId = "7255AB37-F0AF-404B-B2C0-BE0CDFEFD522";
shapes = (
{
closed = 1;
nodes = (
(259,0,o),
(392,0,o),
(525,0,c),
(592,67,o),
(658,133,o),
(725,200,c),
(725,300,o),
(725,400,o),
(725,500,c),
(659,567,o),
(592,633,o),
(525,700,c),
(392,700,o),
(258,700,o),
(125,700,c),
(92,667,o),
(58,633,o),
(25,600,c),
(25,434,o),
(25,267,o),
(25,100,c),
(59,67,o),
(92,33,o),
(125,0,c)
);
},
{
closed = 1;
nodes = (
(350,300,o),
(325,325,o),
(300,350,c),
(325,375,o),
(350,400,o),
(375,425,c),
(400,400,o),
(425,375,o),
(450,350,c),
(425,325,o),
(400,300,o),
(375,275,c)
);
}
);
width = 750;
},
{
layerId = "2D1336F4-505A-45CB-96E0-1A391A104589";
shapes = (
{
closed = 1;
nodes = (
(259,0,o),
(392,0,o),
(525,0,c),
(592,67,o),
(658,133,o),
(725,200,c),
(725,300,o),
(725,400,o),
(725,500,c),
(659,567,o),
(592,633,o),
(525,700,c),
(392,700,o),
(258,700,o),
(125,700,c),
(92,667,o),
(58,633,o),
(25,600,c),
(25,434,o),
(25,267,o),
(25,100,c),
(59,67,o),
(92,33,o),
(125,0,c)
);
},
{
closed = 1;
nodes = (
(317,300,o),
(259,325,o),
(200,350,c),
(258,375,o),
(317,400,o),
(375,425,c),
(433,400,o),
(492,375,o),
(550,350,c),
(492,325,o),
(434,300,o),
(375,275,c)
);
}
);
width = 750;
},
{
layerId = "28F6F6CF-6CF1-4298-BBDC-1B578C225890";
shapes = (
{
closed = 1;
nodes = (
(259,0,o),
(392,0,o),
(525,0,c),
(592,67,o),
(658,133,o),
(725,200,c),
(725,300,o),
(725,400,o),
(725,500,c),
(659,567,o),
(592,633,o),
(525,700,c),
(392,700,o),
(258,700,o),
(125,700,c),
(92,667,o),
(58,633,o),
(25,600,c),
(25,434,o),
(25,267,o),
(25,100,c),
(59,67,o),
(92,33,o),
(125,0,c)
);
},
{
closed = 1;
nodes = (
(350,233,o),
(325,292,o),
(300,350,c),
(325,408,o),
(350,467,o),
(375,525,c),
(400,467,o),
(425,409,o),
(450,350,c),
(425,292,o),
(400,234,o),
(375,175,c)
);
}
);
width = 750;
},
{
layerId = "66BFC9E6-1952-4B87-BF6C-C5A8A5CAFA4D";
shapes = (
{
closed = 1;
nodes = (
(259,0,o),
(392,0,o),
(525,0,c),
(592,67,o),
(658,133,o),
(725,200,c),
(725,300,o),
(725,400,o),
(725,500,c),
(659,567,o),
(592,633,o),
(525,700,c),
(392,700,o),
(258,700,o),
(125,700,c),
(92,667,o),
(58,633,o),
(25,600,c),
(25,434,o),
(25,267,o),
(25,100,c),
(59,67,o),
(92,33,o),
(125,0,c)
);
},
{
closed = 1;
nodes = (
(350,300,o),
(325,325,o),
(300,350,c),
(325,375,o),
(350,400,o),
(375,425,c),
(400,400,o),
(425,375,o),
(450,350,c),
(425,325,o),
(400,300,o),
(375,275,c)
);
}
);
width = 750;
},
{
layerId = "5D199366-843B-4174-BE1F-6720719AACE9";
shapes = (
{
closed = 1;
nodes = (
(367,0,o),
(383,0,o),
(400,0,c),
(509,67,o),
(617,133,o),
(725,200,c),
(725,300,o),
(725,400,o),
(725,500,c),
(617,567,o),
(508,633,o),
(400,700,c),
(384,700,o),
(367,700,o),
(350,700,c),
(242,667,o),
(133,633,o),
(25,600,c),
(25,434,o),
(25,267,o),
(25,100,c),
(134,67,o),
(242,33,o),
(350,0,c)
);
},
{
closed = 1;
nodes = (
(292,283,o),
(209,317,o),
(125,350,c),
(208,383,o),
(292,417,o),
(375,450,c),
(458,417,o),
(542,384,o),
(625,350,c),
(542,317,o),
(459,284,o),
(375,250,c)
);
}
);
width = 750;
},
{
layerId = "C9F343FC-F72A-4E5E-9438-E02DE7AFC5D3";
shapes = (
{
closed = 1;
nodes = (
(259,0,o),
(392,0,o),
(525,0,c),
(592,109,o),
(658,217,o),
(725,325,c),
(725,342,o),
(725,358,o),
(725,375,c),
(659,484,o),
(592,592,o),
(525,700,c),
(392,700,o),
(258,700,o),
(125,700,c),
(92,592,o),
(58,483,o),
(25,375,c),
(25,359,o),
(25,342,o),
(25,325,c),
(59,217,o),
(92,108,o),
(125,0,c)
);
},
{
closed = 1;
nodes = (
(350,167,o),
(325,259,o),
(300,350,c),
(325,442,o),
(350,534,o),
(375,625,c),
(400,533,o),
(425,442,o),
(450,350,c),
(425,258,o),
(400,167,o),
(375,75,c)
);
}
);
width = 750;
}
);
unicode = (68,100);
},
{
glyphname = E;
lastChange = "2022-12-19 02:32:31 +0000";
layers = (
{
layerId = m01;
shapes = (
{
closed = 1;
nodes = (
(292,0,o),
(458,0,o),
(625,0,c),
(725,0,o),
(725,0,o),
(725,100,c),
(725,200,o),
(725,200,o),
(625,200,c),
(584,200,o),
(542,200,o),
(500,200,c),
(375,200,o),
(500,150,o),
(375,150,c),
(300,150,o),
(300,200,o),
(300,225,c),
(300,250,o),
(300,300,o),
(375,300,c),
(500,300,o),
(375,250,o),
(500,250,c),
(542,250,o),
(583,250,o),
(625,250,c),
(725,250,o),
(725,250,o),
(725,350,c),
(725,450,o),
(725,450,o),
(625,450,c),
(584,450,o),
(542,450,o),
(500,450,c),
(375,450,o),
(500,400,o),
(375,400,c),
(300,400,o),
(300,450,o),
(300,475,c),
(300,500,o),
(300,550,o),
(375,550,c),
(500,550,o),
(375,500,o),
(500,500,c),
(542,500,o),
(583,500,o),
(625,500,c),
(725,500,o),
(725,500,o),
(725,600,c),
(725,700,o),
(725,700,o),
(625,700,c),
(459,700,o),
(292,700,o),
(125,700,c),
(25,700,o),
(25,700,o),
(25,600,c),
(25,434,o),
(25,267,o),
(25,100,c),
(25,0,o),
(25,0,o),
(125,0,c)
);
}
);
width = 750;
},
{
layerId = "3FB0BBD1-C623-48BB-B11C-478BB36E1931";
shapes = (
{
closed = 1;
nodes = (
(367,0,o),
(383,0,o),
(400,0,c),
(500,0,o),
(725,0,o),
(725,100,c),
(725,200,o),
(725,200,o),
(675,200,c),
(659,200,o),
(642,200,o),
(625,200,c),
(550,200,o),
(600,150,o),
(375,150,c),
(125,150,o),
(125,200,o),
(125,225,c),
(125,250,o),
(125,300,o),
(375,300,c),
(600,300,o),
(550,250,o),
(625,250,c),
(642,250,o),
(658,250,o),
(675,250,c),
(725,250,o),
(725,250,o),
(725,350,c),
(725,450,o),
(725,450,o),
(675,450,c),
(659,450,o),
(642,450,o),
(625,450,c),
(550,450,o),
(600,400,o),
(375,400,c),
(125,400,o),
(125,450,o),
(125,475,c),
(125,500,o),
(125,550,o),
(375,550,c),
(600,550,o),
(550,500,o),
(625,500,c),
(642,500,o),
(658,500,o),
(675,500,c),
(725,500,o),
(725,500,o),
(725,600,c),
(725,700,o),
(500,700,o),
(400,700,c),
(384,700,o),
(367,700,o),
(350,700,c),
(250,700,o),
(25,700,o),
(25,600,c),
(25,434,o),
(25,267,o),
(25,100,c),
(25,0,o),
(250,0,o),
(350,0,c)
);
}
);
width = 750;
},
{
layerId = "D19652E7-EFD0-4E4C-BF76-3B076A5B34BC";
shapes = (
{
closed = 1;
nodes = (
(292,0,o),
(458,0,o),
(625,0,c),
(725,0,o),
(725,125,o),
(725,150,c),
(725,200,o),
(725,200,o),
(625,200,c),
(584,200,o),
(542,200,o),
(500,200,c),
(375,200,o),
(500,75,o),
(375,75,c),
(300,75,o),
(300,175,o),
(300,200,c),
(300,225,o),
(300,325,o),
(375,325,c),
(500,325,o),
(375,250,o),
(500,250,c),
(542,250,o),
(583,250,o),
(625,250,c),
(725,250,o),
(725,250,o),
(725,350,c),
(725,450,o),
(725,450,o),
(625,450,c),
(584,450,o),
(542,450,o),
(500,450,c),
(375,450,o),
(500,375,o),
(375,375,c),
(300,375,o),
(300,475,o),
(300,500,c),
(300,525,o),
(300,625,o),
(375,625,c),
(500,625,o),
(376,500,o),
(500,500,c),
(542,500,o),
(583,500,o),
(625,500,c),
(725,500,o),
(725,500,o),
(725,550,c),
(725,575,o),
(725,700,o),
(625,700,c),
(459,700,o),
(292,700,o),
(125,700,c),
(25,700,o),
(25,475,o),
(25,375,c),
(25,359,o),
(25,342,o),
(25,325,c),
(25,225,o),
(25,0,o),
(125,0,c)
);
}
);
width = 750;
},
{
layerId = "19B082C2-3429-47B4-A4D8-F059340FFD3C";
shapes = (
{
closed = 1;
nodes = (
(292,0,o),
(458,0,o),
(625,0,c),
(725,0,o),
(725,0,o),
(725,100,c),
(725,150,o),
(725,150,o),
(675,150,c),
(671,150,o),
(666,150,o),
(662,150,c),
(662,150,o),
(650,150,o),
(650,150,c),
(575,150,o),
(575,200,o),
(575,225,c),
(575,250,o),
(575,300,o),
(650,300,c),
(650,300,o),
(662,300,o),
(662,300,c),
(667,300,o),
(671,300,o),
(675,300,c),
(725,300,o),
(725,300,o),
(725,350,c),
(725,400,o),
(725,400,o),
(675,400,c),
(671,400,o),
(666,400,o),
(662,400,c),
(662,400,o),
(650,400,o),
(650,400,c),
(575,400,o),
(575,450,o),
(575,475,c),
(575,500,o),
(575,550,o),
(650,550,c),
(650,550,o),
(662,550,o),
(662,550,c),
(667,550,o),
(671,550,o),
(675,550,c),
(725,550,o),
(725,550,o),
(725,600,c),
(725,700,o),
(725,700,o),
(625,700,c),
(459,700,o),
(292,700,o),
(125,700,c),
(25,700,o),
(25,700,o),
(25,600,c),
(25,434,o),
(25,267,o),
(25,100,c),
(25,0,o),
(25,0,o),
(125,0,c)
);
}
);
width = 750;
},
{
layerId = "97FA09B7-861C-4A63-ABF9-29244986920C";
shapes = (
{
closed = 1;
nodes = (
(292,0,o),
(458,0,o),
(625,0,c),
(725,0,o),
(725,0,o),
(725,100,c),
(725,149,o),
(725,149,o),
(675,149,c),
(659,149,o),
(642,149,o),
(625,149,c),
(625,149,o),
(475,150,o),
(475,150,c),
(375,150,o),
(375,200,o),
(375,225,c),
(375,250,o),
(375,300,o),
(475,300,c),
(475,300,o),
(625,300,o),
(625,300,c),
(642,300,o),
(658,300,o),
(675,300,c),
(725,300,o),
(725,300,o),
(725,350,c),
(725,400,o),
(725,400,o),
(675,400,c),
(659,400,o),
(642,400,o),
(625,400,c),
(625,400,o),
(475,400,o),
(475,400,c),
(375,400,o),
(375,450,o),
(375,475,c),
(375,500,o),
(375,550,o),
(475,550,c),
(475,550,o),
(625,550,o),
(625,550,c),
(642,550,o),
(658,550,o),
(675,550,c),
(725,550,o),
(725,550,o),
(725,600,c),
(725,700,o),
(725,700,o),
(625,700,c),
(459,700,o),
(292,700,o),
(125,700,c),
(25,700,o),
(25,700,o),
(25,600,c),
(25,434,o),
(25,267,o),
(25,100,c),
(25,0,o),
(25,0,o),
(125,0,c)
);
}
);
width = 750;
},
{
layerId = "73DF1801-42CB-4FE2-B370-82821562EC7A";
shapes = (
{
closed = 1;
nodes = (
(292,0,o),
(458,0,o),
(625,0,c),
(725,0,o),
(725,0,o),
(725,80,cs),
(725,119,o),
(724,119,o),
(695,127,c),
(691,128,o),
(686,129,o),
(682,130,c),
(682,130,o),
(670,133,o),
(670,133,c),
(646,140,o),
(625,155,o),
(625,225,c),
(625,295,o),
(646,310,o),
(670,317,c),
(670,317,o),
(682,320,o),
(682,320,c),
(687,321,o),
(691,322,o),
(695,323,cs),
(725,330,o),
(725,330,o),
(725,350,cs),
(725,370,o),
(725,370,o),
(695,377,cs),
(691,378,o),
(686,379,o),
(682,380,c),
(682,380,o),
(670,383,o),
(670,383,c),
(646,390,o),
(625,405,o),
(625,475,c),
(625,545,o),
(646,560,o),
(670,567,c),
(670,567,o),
(682,570,o),
(682,570,c),
(687,571,o),
(691,572,o),
(695,573,cs),
(725,580,o),
(725,580,o),
(725,620,cs),
(725,700,o),
(725,700,o),
(625,700,c),
(459,700,o),
(292,700,o),
(125,700,c),
(25,700,o),
(25,700,o),
(25,600,c),
(25,434,o),
(25,267,o),
(25,100,c),
(25,0,o),
(25,0,o),
(125,0,c)
);
}
);
width = 750;
},
{
layerId = "7255AB37-F0AF-404B-B2C0-BE0CDFEFD522";
shapes = (
{
closed = 1;
nodes = (
(292,0,o),
(458,0,o),
(625,0,c),
(659,34,o),
(692,67,o),
(725,100,c),
(709,117,o),
(692,133,o),
(675,150,c),
(671,150,o),
(666,150,o),
(662,150,c),
(658,150,o),
(654,150,o),
(650,150,c),
(625,175,o),
(600,200,o),
(575,225,c),
(600,250,o),
(625,275,o),
(650,300,c),
(654,300,o),
(658,300,o),
(662,300,c),
(667,300,o),
(671,300,o),
(675,300,c),
(692,317,o),
(708,333,o),
(725,350,c),
(709,367,o),
(692,383,o),
(675,400,c),
(671,400,o),
(666,400,o),
(662,400,c),
(658,400,o),
(654,400,o),
(650,400,c),
(625,425,o),
(600,450,o),
(575,475,c),
(600,500,o),
(625,525,o),
(650,550,c),
(654,550,o),
(658,550,o),
(662,550,c),
(667,550,o),
(671,550,o),
(675,550,c),
(692,567,o),
(708,583,o),
(725,600,c),
(692,634,o),
(658,667,o),
(625,700,c),
(459,700,o),
(292,700,o),
(125,700,c),
(92,667,o),
(58,633,o),
(25,600,c),
(25,434,o),
(25,267,o),
(25,100,c),
(59,67,o),
(92,33,o),
(125,0,c)
);
}
);
width = 750;
},
{
layerId = "2D1336F4-505A-45CB-96E0-1A391A104589";
shapes = (
{
closed = 1;
nodes = (
(292,0,o),
(458,0,o),
(625,0,c),
(659,34,o),
(692,67,o),
(725,100,c),
(709,117,o),
(692,133,o),
(675,149,c),
(659,149,o),
(642,149,o),
(625,149,c),
(575,150,o),
(525,150,o),
(475,150,c),
(442,175,o),
(408,200,o),
(375,225,c),
(409,250,o),
(442,275,o),
(475,300,c),
(525,300,o),
(575,300,o),
(625,300,c),
(642,300,o),
(658,300,o),
(675,300,c),
(692,317,o),
(708,333,o),
(725,350,c),
(709,367,o),
(692,383,o),
(675,400,c),
(659,400,o),
(642,400,o),
(625,400,c),
(575,400,o),
(525,400,o),
(475,400,c),
(442,425,o),
(408,450,o),
(375,475,c),
(409,500,o),
(442,525,o),
(475,550,c),
(525,550,o),
(575,550,o),
(625,550,c),
(642,550,o),
(658,550,o),
(675,550,c),
(692,567,o),
(708,583,o),
(725,600,c),
(692,634,o),
(658,667,o),
(625,700,c),
(459,700,o),
(292,700,o),
(125,700,c),
(92,667,o),
(58,633,o),
(25,600,c),
(25,434,o),
(25,267,o),
(25,100,c),
(59,67,o),
(92,33,o),
(125,0,c)
);
}
);
width = 750;
},
{
layerId = "28F6F6CF-6CF1-4298-BBDC-1B578C225890";
shapes = (
{
closed = 1;
nodes = (
(292,0,o),
(458,0,o),
(625,0,c),
(659,27,o),
(692,53,o),
(725,80,c),
(715,96,o),
(705,111,o),
(695,127,c),
(691,128,o),
(686,129,o),
(682,130,c),
(678,131,o),
(674,132,o),
(670,133,c),
(655,164,o),
(640,194,o),
(625,225,c),
(640,256,o),
(655,286,o),
(670,317,c),
(674,318,o),
(678,319,o),
(682,320,c),
(687,321,o),
(691,322,o),
(695,323,c),
(705,332,o),
(715.001,341,o),
(725,350,c),
(715,359,o),
(704.999,368,o),
(695,377,c),
(691,378,o),
(686,379,o),
(682,380,c),
(678,381,o),
(674,382,o),
(670,383,c),
(655,414,o),
(640,444,o),
(625,475,c),
(640,506,o),
(655,536,o),
(670,567,c),
(674,568,o),
(678,569,o),
(682,570,c),
(687,571,o),
(691,572,o),
(695,573,c),
(705,589,o),
(715,604,o),
(725,620,c),
(692,647,o),
(658,673,o),
(625,700,c),
(459,700,o),
(292,700,o),
(125,700,c),
(92,667,o),
(58,633,o),
(25,600,c),
(25,434,o),
(25,267,o),
(25,100,c),
(59,67,o),
(92,33,o),
(125,0,c)
);
}
);
width = 750;
},
{
layerId = "66BFC9E6-1952-4B87-BF6C-C5A8A5CAFA4D";
shapes = (
{
closed = 1;
nodes = (
(292,0,o),
(458,0,o),
(625,0,c),
(659,34,o),
(692,67,o),
(725,100,c),
(692,134,o),
(658,167,o),
(625,200,c),
(584,200,o),
(542,200,o),
(500,200,c),
(459,184,o),
(417,167,o),
(375,150,c),
(350,175,o),
(325,200,o),
(300,225,c),
(325,250,o),
(350,275,o),
(375,300,c),
(417,284,o),
(458,267,o),
(500,250,c),
(542,250,o),
(583,250,o),
(625,250,c),
(659,284,o),
(692,317,o),
(725,350,c),
(692,384,o),
(658,417,o),
(625,450,c),
(584,450,o),
(542,450,o),
(500,450,c),
(459,434,o),
(417,417,o),
(375,400,c),
(350,425,o),
(325,450,o),
(300,475,c),
(325,500,o),
(350,525,o),
(375,550,c),
(417,534,o),
(458,517,o),
(500,500,c),
(542,500,o),
(583,500,o),
(625,500,c),
(659,534,o),
(692,567,o),
(725,600,c),
(692,634,o),
(658,667,o),
(625,700,c),
(459,700,o),
(292,700,o),
(125,700,c),
(92,667,o),
(58,633,o),
(25,600,c),
(25,434,o),
(25,267,o),
(25,100,c),
(59,67,o),
(92,33,o),
(125,0,c)
);
}
);
width = 750;
},
{
layerId = "5D199366-843B-4174-BE1F-6720719AACE9";
shapes = (
{
closed = 1;
nodes = (
(367,0,o),
(383,0,o),
(400,0,c),
(509,34,o),
(617,67,o),
(725,100,c),
(709,134,o),
(692,167,o),
(675,200,c),
(659,200,o),
(642,200,o),
(625,200,c),
(542,184,o),
(458,167,o),
(375,150,c),
(292,175,o),
(208,200,o),
(125,225,c),
(209,250,o),
(292,275,o),
(375,300,c),
(459,284,o),
(542,267,o),
(625,250,c),
(642,250,o),
(658,250,o),
(675,250,c),
(692,284,o),
(708,317,o),
(725,350,c),
(709,384,o),
(692,417,o),
(675,450,c),
(659,450,o),
(642,450,o),
(625,450,c),
(542,434,o),
(458,417,o),
(375,400,c),
(292,425,o),
(208,450,o),
(125,475,c),
(209,500,o),
(292,525,o),
(375,550,c),
(459,534,o),
(542,517,o),
(625,500,c),
(642,500,o),
(658,500,o),
(675,500,c),
(692,534,o),
(708,567,o),
(725,600,c),
(617,634,o),
(508,667,o),
(400,700,c),
(384,700,o),
(367,700,o),
(350,700,c),
(242,667,o),
(133,633,o),
(25,600,c),
(25,434,o),
(25,267,o),
(25,100,c),
(134,67,o),
(242,33,o),
(350,0,c)
);
}
);
width = 750;
},
{
layerId = "C9F343FC-F72A-4E5E-9438-E02DE7AFC5D3";
shapes = (
{
closed = 1;
nodes = (
(292,0,o),
(458,0,o),
(625,0,c),
(659,50,o),
(692,100,o),
(725,150,c),
(692,167,o),
(658,183,o),
(625,200,c),
(584,200,o),
(542,200,o),
(500,200,c),
(459,159,o),
(417,117,o),
(375,75,c),
(350,117,o),
(325,158,o),
(300,200,c),
(325,242,o),
(350,283,o),
(375,325,c),
(417,300,o),
(458,275,o),
(500,250,c),
(542,250,o),
(583,250,o),
(625,250,c),
(659,284,o),
(692,317,o),
(725,350,c),
(692,384,o),
(658,417,o),
(625,450,c),
(584,450,o),
(542,450,o),
(500,450,c),
(459,425,o),
(417,400,o),
(375,375,c),
(350,417,o),
(325,458,o),
(300,500,c),
(325,542,o),
(350,583,o),
(375,625,c),
(417,584,o),
(458,542,o),
(500,500,c),
(542,500,o),
(583,500,o),
(625,500,c),
(659,517,o),
(692,533,o),
(725,550,c),
(692,600,o),
(658,650,o),
(625,700,c),
(459,700,o),
(292,700,o),
(125,700,c),
(92,592,o),
(58,483,o),
(25,375,c),
(25,359,o),
(25,342,o),
(25,325,c),
(59,217,o),
(92,108,o),
(125,0,c)
);
}
);
width = 750;
}
);
unicode = (69,101);
},
{
glyphname = F;
lastChange = "2022-12-19 02:33:04 +0000";
layers = (
{
layerId = m01;
shapes = (
{
closed = 1;
nodes = (
(167,0,o),
(208,0,o),
(250,0,c),
(350,0,o),
(350,0,o),
(350,100,c),
(350,225,o),
(300,100,o),
(300,225,c),
(300,275,o),
(325,300,o),
(375,300,c),
(500,300,o),
(375,250,o),
(500,250,c),
(542,250,o),
(583,250,o),
(625,250,c),
(725,250,o),
(725,250,o),
(725,350,c),
(725,450,o),
(725,450,o),
(625,450,c),
(584,450,o),
(542,450,o),
(500,450,c),
(375,450,o),
(500,400,o),
(375,400,c),
(300,400,o),
(300,450,o),
(300,475,c),
(300,500,o),
(300,550,o),
(375,550,c),
(500,550,o),
(375,500,o),
(500,500,c),
(542,500,o),
(583,500,o),
(625,500,c),
(725,500,o),
(725,500,o),
(725,600,c),
(725,700,o),
(725,700,o),
(625,700,c),
(459,700,o),
(292,700,o),
(125,700,c),
(25,700,o),
(25,700,o),
(25,600,c),
(25,434,o),
(25,267,o),
(25,100,c),
(25,0,o),
(25,0,o),
(125,0,c)
);
}
);
width = 750;
},
{
layerId = "3FB0BBD1-C623-48BB-B11C-478BB36E1931";
shapes = (
{
closed = 1;
nodes = (
(267,0,o),
(283,0,o),
(300,0,c),
(350,0,o),
(350,0,o),
(350,100,c),
(350,225,o),
(125,100,o),
(125,225,c),
(125,275,o),
(125,300,o),
(375,300,c),
(600,300,o),
(550,250,o),
(625,250,c),
(642,250,o),
(658,250,o),
(675,250,c),
(725,250,o),
(725,250,o),
(725,350,c),
(725,450,o),
(725,450,o),
(675,450,c),
(659,450,o),
(642,450,o),
(625,450,c),
(550,450,o),
(601,400,o),
(375,400,c),
(125,400,o),
(125,450,o),
(125,475,c),
(125,500,o),
(125,550,o),
(375,550,c),
(600,550,o),
(550,500,o),
(625,500,c),
(642,500,o),
(658,500,o),
(675,500,c),
(725,500,o),
(725,500,o),
(725,600,c),
(725,700,o),
(500,700,o),
(400,700,c),
(384,700,o),
(367,700,o),
(350,700,c),
(250,700,o),
(25,700,o),
(25,600,c),
(25,434,o),
(25,267,o),
(25,100,c),
(25,0,o),
(175,0,o),
(250,0,c)
);
}
);
width = 750;
},
{
layerId = "D19652E7-EFD0-4E4C-BF76-3B076A5B34BC";
shapes = (
{
closed = 1;
nodes = (
(167,0,o),
(208,0,o),
(250,0,c),
(350,0,o),
(350,0,o),
(350,50,c),
(350,110,o),
(300,90,o),
(300,200,c),
(300,250,o),
(300,325,o),
(375,325,c),
(500,325,o),
(375,250,o),
(500,250,c),
(542,250,o),
(583,250,o),
(625,250,c),
(725,250,o),
(725,375,o),
(725,400,c),
(725,450,o),
(725,450,o),
(625,450,c),
(584,450,o),
(542,450,o),
(500,450,c),
(375,450,o),
(500,375,o),
(375,375,c),
(300,375,o),
(300,475,o),
(300,500,c),
(300,525,o),
(300,625,o),
(375,625,c),
(500,625,o),
(375,500,o),
(500,500,c),
(542,500,o),
(583,500,o),
(625,500,c),
(725,500,o),
(725,500,o),
(725,550,c),
(725,575,o),
(725,700,o),
(625,700,c),
(459,700,o),
(292,700,o),
(125,700,c),
(25,700,o),
(25,475,o),
(25,375,c),
(25,359,o),
(25,342,o),
(25,325,c),
(25,225,o),
(25,0,o),
(125,0,c)
);
}
);
width = 750;
},
{
layerId = "19B082C2-3429-47B4-A4D8-F059340FFD3C";
shapes = (
{
closed = 1;
nodes = (
(167,0,o),
(208,0,o),
(250,0,c),
(350,0,o),
(350,0,o),
(350,100,c),
(350,100,o),
(350,150,o),
(350,150,c),
(350,250,o),
(350,250,o),
(450,250,c),
(450,250,o),
(500,250,o),
(500,250,c),
(542,250,o),
(583,250,o),
(625,250,c),
(725,250,o),
(725,250,o),
(725,350,c),
(725,400,o),
(725,400,o),
(675,400,c),
(671,400,o),
(666,400,o),
(662,400,c),
(662,400,o),
(650,400,o),
(650,400,c),
(575,400,o),
(575,450,o),
(575,475,c),
(575,500,o),
(575,550,o),
(650,550,c),
(650,550,o),
(662,550,o),
(662,550,c),
(667,550,o),
(671,550,o),
(675,550,c),
(725,550,o),
(725,550,o),
(725,600,c),
(725,700,o),
(725,700,o),
(625,700,c),
(459,700,o),
(292,700,o),
(125,700,c),
(25,700,o),
(25,700,o),
(25,600,c),
(25,434,o),
(25,267,o),
(25,100,c),
(25,0,o),
(25,0,o),
(125,0,c)
);
}
);
width = 750;
},
{
layerId = "97FA09B7-861C-4A63-ABF9-29244986920C";
shapes = (
{
closed = 1;
nodes = (
(134,0,o),
(142,0,o),
(150,0,c),
(250,0,o),
(250,0,o),
(250,100,c),
(250,100,o),
(250,150,o),
(250,150,c),
(250,250,o),
(250,250,o),
(350,250,c),
(350,250,o),
(625,250,o),
(625,250,c),
(642,250,o),
(658,250,o),
(675,250,c),
(725,250,o),
(725,250,o),
(725,350,c),
(725,401,o),
(725,401,o),
(675,401,c),
(659,401,o),
(642,401,o),
(625,401,c),
(625,401,o),
(475,400,o),
(475,400,c),
(375,400,o),
(375,450,o),
(375,475,c),
(375,500,o),
(375,550,o),
(475,550,c),
(475,550,o),
(625,550,o),
(625,550,c),
(642,550,o),
(658,550,o),
(675,550,c),
(725,550,o),
(725,550,o),
(725,600,c),
(725,700,o),
(725,700,o),
(625,700,c),
(459,700,o),
(292,700,o),
(125,700,c),
(25,700,o),
(25,700,o),
(25,600,c),
(25,434,o),
(25,267,o),
(25,100,c),
(25,0,o),
(25,0,o),
(125,0,c)
);
}
);
width = 750;
},
{
layerId = "73DF1801-42CB-4FE2-B370-82821562EC7A";
shapes = (
{
closed = 1;
nodes = (
(167,0,o),
(208,0,o),
(250,0,c),
(350,0,o),
(350,0,o),
(350,100,c),
(350,100,o),
(350,150,o),
(350,150,c),
(350,250,o),
(350,250,o),
(450,250,c),
(450,250,o),
(500,250,o),
(500,250,c),
(542,250,o),
(583,250,o),
(625,250,c),
(725,250,o),
(725,250,o),
(725,320,cs),
(725,369,o),
(725,369,o),
(690,377,cs),
(686,378,o),
(681,379,o),
(677,380,c),
(677,380,o),
(665,383,o),
(665,383,c),
(627,394,o),
(625,450,o),
(625,475,c),
(625,500,o),
(627,556,o),
(665,567,c),
(665,567,o),
(677,570,o),
(677,570,c),
(682,571,o),
(686,572,o),
(690,573,cs),
(725,581,o),
(725,581,o),
(725,630,cs),
(725,700,o),
(725,700,o),
(625,700,c),
(459,700,o),
(292,700,o),
(125,700,c),
(25,700,o),
(25,700,o),
(25,600,c),
(25,434,o),
(25,267,o),
(25,100,c),
(25,0,o),
(25,0,o),
(125,0,c)
);
}
);
width = 750;
},
{
layerId = "7255AB37-F0AF-404B-B2C0-BE0CDFEFD522";
shapes = (
{
closed = 1;
nodes = (
(167,0,o),
(208,0,o),
(250,0,c),
(284,34,o),
(317,67,o),
(350,100,c),
(350,117,o),
(350,133,o),
(350,150,c),
(384,184,o),
(417,217,o),
(450,250,c),
(467,250,o),
(483,250,o),
(500,250,c),
(542,250,o),
(583,250,o),
(625,250,c),
(659,284,o),
(692,317,o),
(725,350,c),
(709,367,o),
(692,383,o),
(675,400,c),
(671,400,o),
(666,400,o),
(662,400,c),
(658,400,o),
(654,400,o),
(650,400,c),
(625,425,o),
(600,450,o),
(575,475,c),
(600,500,o),
(625,525,o),
(650,550,c),
(654,550,o),
(658,550,o),
(662,550,c),
(667,550,o),
(671,550,o),
(675,550,c),
(692,567,o),
(708,583,o),
(725,600,c),
(692,634,o),
(658,667,o),
(625,700,c),
(459,700,o),
(292,700,o),
(125,700,c),
(92,667,o),
(58,633,o),
(25,600,c),
(25,434,o),
(25,267,o),
(25,100,c),
(59,67,o),
(92,33,o),
(125,0,c)
);
}
);
width = 750;
},
{
layerId = "2D1336F4-505A-45CB-96E0-1A391A104589";
shapes = (
{
closed = 1;
nodes = (
(134,0,o),
(142,0,o),
(150,0,c),
(184,34,o),
(217,67,o),
(250,100,c),
(250,117,o),
(250,133,o),
(250,150,c),
(284,184,o),
(317,217,o),
(350,250,c),
(442,250,o),
(533,250,o),
(625,250,c),
(642,250,o),
(658,250,o),
(675,250,c),
(692,284,o),
(708,317,o),
(725,350,c),
(709,367,o),
(692,384,o),
(675,401,c),
(659,401,o),
(642,401,o),
(625,401,c),
(575,401,o),
(525,400,o),
(475,400,c),
(442,425,o),
(408,450,o),
(375,475,c),
(409,500,o),
(442,525,o),
(475,550,c),
(525,550,o),
(575,550,o),
(625,550,c),
(642,550,o),
(658,550,o),
(675,550,c),
(692,567,o),
(708,583,o),
(725,600,c),
(692,634,o),
(658,667,o),
(625,700,c),
(459,700,o),
(292,700,o),
(125,700,c),
(92,667,o),
(58,633,o),
(25,600,c),
(25,434,o),
(25,267,o),
(25,100,c),
(59,67,o),
(92,33,o),
(125,0,c)
);
}
);
width = 750;
},
{
layerId = "28F6F6CF-6CF1-4298-BBDC-1B578C225890";
shapes = (
{
closed = 1;
nodes = (
(167,0,o),
(208,0,o),
(250,0,c),
(284,34,o),
(317,67,o),
(350,100,c),
(350,117,o),
(350,133,o),
(350,150,c),
(384,184,o),
(417,217,o),
(450,250,c),
(467,250,o),
(483,250,o),
(500,250,c),
(542,250,o),
(583,250,o),
(625,250,c),
(659,274,o),
(692,297,o),
(725,320,c),
(714,339,o),
(702,358,o),
(690,377,c),
(686,378,o),
(681,379,o),
(677,380,c),
(673,381,o),
(669,382,o),
(665,383,c),
(652,414,o),
(638,444,o),
(625,475,c),
(639,506,o),
(652,536,o),
(665,567,c),
(669,568,o),
(673,569,o),
(677,570,c),
(682,571,o),
(686,572,o),
(690,573,c),
(702,592,o),
(713,611,o),
(725,630,c),
(692,654,o),
(658,677,o),
(625,700,c),
(459,700,o),
(292,700,o),
(125,700,c),
(92,667,o),
(58,633,o),
(25,600,c),
(25,434,o),
(25,267,o),
(25,100,c),
(59,67,o),
(92,33,o),
(125,0,c)
);
}
);
width = 750;
},
{
layerId = "66BFC9E6-1952-4B87-BF6C-C5A8A5CAFA4D";
shapes = (
{
closed = 1;
nodes = (
(167,0,o),
(208,0,o),
(250,0,c),
(284,34,o),
(317,67,o),
(350,100,c),
(334,142,o),
(317,183,o),
(300,225,c),
(325,250,o),
(350,275,o),
(375,300,c),
(417,284,o),
(458,267,o),
(500,250,c),
(542,250,o),
(583,250,o),
(625,250,c),
(659,284,o),
(692,317,o),
(725,350,c),
(692,384,o),
(658,417,o),
(625,450,c),
(584,450,o),
(542,450,o),
(500,450,c),
(459,434,o),
(417,417,o),
(375,400,c),
(350,425,o),
(325,450,o),
(300,475,c),
(325,500,o),
(350,525,o),
(375,550,c),
(417,534,o),
(458,517,o),
(500,500,c),
(542,500,o),
(583,500,o),
(625,500,c),
(659,534,o),
(692,567,o),
(725,600,c),
(692,634,o),
(658,667,o),
(625,700,c),
(459,700,o),
(292,700,o),
(125,700,c),
(92,667,o),
(58,633,o),
(25,600,c),
(25,434,o),
(25,267,o),
(25,100,c),
(59,67,o),
(92,33,o),
(125,0,c)
);
}
);
width = 750;
},
{
layerId = "5D199366-843B-4174-BE1F-6720719AACE9";
shapes = (
{
closed = 1;
nodes = (
(267,0,o),
(283,0,o),
(300,0,c),
(317,34,o),
(333,67,o),
(350,100,c),
(275,142,o),
(200,183,o),
(125,225,c),
(209,250,o),
(292,275,o),
(375,300,c),
(459,284,o),
(542,267,o),
(625,250,c),
(642,250,o),
(658,250,o),
(675,250,c),
(692,284,o),
(708,317,o),
(725,350,c),
(709,384,o),
(692,417,o),
(675,450,c),
(659,450,o),
(642,450,o),
(625,450,c),
(542,434,o),
(458,417,o),
(375,400,c),
(292,425,o),
(208,450,o),
(125,475,c),
(209,500,o),
(292,525,o),
(375,550,c),
(459,534,o),
(542,517,o),
(625,500,c),
(642,500,o),
(658,500,o),
(675,500,c),
(692,534,o),
(708,567,o),
(725,600,c),
(617,634,o),
(508,667,o),
(400,700,c),
(384,700,o),
(367,700,o),
(350,700,c),
(242,667,o),
(133,633,o),
(25,600,c),
(25,434,o),
(25,267,o),
(25,100,c),
(100,67,o),
(175,33,o),
(250,0,c)
);
}
);
width = 750;
},
{
layerId = "C9F343FC-F72A-4E5E-9438-E02DE7AFC5D3";
shapes = (
{
closed = 1;
nodes = (
(167,0,o),
(208,0,o),
(250,0,c),
(284,17,o),
(317,33,o),
(350,50,c),
(334,100,o),
(317,150,o),
(300,200,c),
(325,242,o),
(350,283,o),
(375,325,c),
(417,300,o),
(458,275,o),
(500,250,c),
(542,250,o),
(583,250,o),
(625,250,c),
(659,300,o),
(692,350,o),
(725,400,c),
(692,417,o),
(658,433,o),
(625,450,c),
(584,450,o),
(542,450,o),
(500,450,c),
(459,425,o),
(417,400,o),
(375,375,c),
(350,417,o),
(325,458,o),
(300,500,c),
(325,542,o),
(350,583,o),
(375,625,c),
(417,584,o),
(458,542,o),
(500,500,c),
(542,500,o),
(583,500,o),
(625,500,c),
(659,517,o),
(692,533,o),
(725,550,c),
(692,600,o),
(658,650,o),
(625,700,c),
(459,700,o),
(292,700,o),
(125,700,c),
(92,592,o),
(58,483,o),
(25,375,c),
(25,359,o),
(25,342,o),
(25,325,c),
(59,217,o),
(92,108,o),
(125,0,c)
);
}
);
width = 750;
}
);
unicode = (70,102);
},
{
glyphname = G;
lastChange = "2022-12-19 02:40:01 +0000";
layers = (
{
layerId = m01;
shapes = (
{
closed = 1;
nodes = (
(375,0,o),
(250,100,o),
(375,100,c),
(500,100,o),
(375,0,o),
(500,0,c),
(542,0,o),
(583,0,o),
(625,0,c),
(725,0,o),
(725,0,o),
(725,100,c),
(725,142,o),
(725,183,o),
(725,225,c),
(725,325,o),
(725,325,o),
(625,325,c),
(584,325,o),
(542,325,o),
(500,325,c),
(375,325,o),
(500,275,o),
(375,275,c),
(300,275,o),
(300,325,o),
(300,350,c),
(300,375,o),
(300,425,o),
(375,425,c),
(500,425,o),
(375,375,o),
(500,375,c),
(542,375,o),
(583,375,o),
(625,375,c),
(725,375,o),
(725,375,o),
(725,500,c),
(725,600,o),
(625,700,o),
(525,700,c),
(425,700,o),
(325,700,o),
(225,700,c),
(125,700,o),
(25,600,o),
(25,500,c),
(25,400,o),
(25,300,o),
(25,200,c),
(25,100,o),
(125,0,o),
(225,0,c)
);
}
);
width = 750;
},
{
layerId = "3FB0BBD1-C623-48BB-B11C-478BB36E1931";
shapes = (
{
closed = 1;
nodes = (
(375,0,o),
(200,100,o),
(375,100,c),
(550,100,o),
(375,0,o),
(550,0,c),
(567,0,o),
(583,0,o),
(600,0,c),
(650,0,o),
(725,0,o),
(725,100,c),
(725,142,o),
(725,183,o),
(725,225,c),
(725,325,o),
(725,325,o),
(675,325,c),
(659,325,o),
(642,325,o),
(625,325,c),
(550,325,o),
(600,250,o),
(375,250,c),
(125,250,o),
(125,325,o),
(125,350,c),
(125,375,o),
(125,450,o),
(375,450,c),
(600,450,o),
(550,375,o),
(625,375,c),
(642,375,o),
(658,375,o),
(675,375,c),
(725,375,o),
(725,375,o),
(725,500,c),
(725,700,o),
(500,700,o),
(400,700,c),
(384,700,o),
(367,700,o),
(350,700,c),
(250,700,o),
(25,700,o),
(25,500,c),
(25,400,o),
(25,300,o),
(25,200,c),
(25,100,o),
(100,0,o),
(200,0,c)
);
}
);
width = 750;
},
{
layerId = "D19652E7-EFD0-4E4C-BF76-3B076A5B34BC";
shapes = (
{
closed = 1;
nodes = (
(375,0,o),
(250,150,o),
(375,150,c),
(500,150,o),
(375,0,o),
(500,0,c),
(542,0,o),
(583,0,o),
(625,0,c),
(725,0,o),
(725,150,o),
(725,225,c),
(725,242,o),
(725,258,o),
(725,275,c),
(725,325,o),
(725,325,o),
(625,325,c),
(584,325,o),
(542,325,o),
(500,325,c),
(375,325,o),
(500,225,o),
(375,225,c),
(300,225,o),
(300,400,o),
(300,425,c),
(300,450,o),
(300,625,o),
(375,625,c),
(500,625,o),
(375,375,o),
(500,375,c),
(542,375,o),
(583,375,o),
(625,375,c),
(725,375,o),
(725,375,o),
(725,425,c),
(725,500,o),
(725,700,o),
(525,700,c),
(425,700,o),
(325,700,o),
(225,700,c),
(25,700,o),
(25,475,o),
(25,375,c),
(25,359,o),
(25,342,o),
(25,325,c),
(25,225,o),
(25,0,o),
(225,0,c)
);
}
);
width = 750;
},
{
layerId = "19B082C2-3429-47B4-A4D8-F059340FFD3C";
shapes = (
{
closed = 1;
nodes = (
(375,0,o),
(250,100,o),
(375,100,c),
(500,100,o),
(375,0,o),
(500,0,c),
(542,0,o),
(583,0,o),
(625,0,c),
(725,0,o),
(725,0,o),
(725,100,c),
(725,142,o),
(725,183,o),
(725,225,c),
(725,275,o),
(725,275,o),
(675,275,c),
(671,275,o),
(666,275,o),
(662,275,c),
(662,275,o),
(650,275,o),
(650,275,c),
(575,275,o),
(575,325,o),
(575,350,c),
(575,375,o),
(575,425,o),
(650,425,c),
(650,425,o),
(662,425,o),
(662,425,c),
(667,425,o),
(671,425,o),
(675,425,c),
(725,425,o),
(725,425,o),
(725,500,c),
(725,600,o),
(625,700,o),
(525,700,c),
(425,700,o),
(325,700,o),
(225,700,c),
(125,700,o),
(25,600,o),
(25,500,c),
(25,400,o),
(25,300,o),
(25,200,c),
(25,100,o),
(125,0,o),
(225,0,c)
);
}
);
width = 750;
},
{
layerId = "97FA09B7-861C-4A63-ABF9-29244986920C";
shapes = (
{
closed = 1;
nodes = (
(375,0,o),
(200,100,o),
(375,100,c),
(550,100,o),
(375,0,o),
(550,0,c),
(575,0,o),
(600,0,o),
(625,0,c),
(725,0,o),
(725,0,o),
(725,100,c),
(725,142,o),
(725,183,o),
(725,225,c),
(725,275,o),
(725,275,o),
(675,275,c),
(659,275,o),
(642,275,o),
(625,275,c),
(625,275,o),
(475,275,o),
(475,275,c),
(375,275,o),
(375,325,o),
(375,350,c),
(375,375,o),
(375,425,o),
(475,425,c),
(475,425,o),
(625,425,o),
(625,425,c),
(642,425,o),
(658,425,o),
(675,425,c),
(725,425,o),
(725,425,o),
(725,500,c),
(725,600,o),
(625,700,o),
(525,700,c),
(425,700,o),
(325,700,o),
(225,700,c),
(125,700,o),
(25,600,o),
(25,500,c),
(25,400,o),
(25,300,o),
(25,200,c),
(25,100,o),
(100,0,o),
(200,0,c)
);
}
);
width = 750;
},
{
layerId = "73DF1801-42CB-4FE2-B370-82821562EC7A";
shapes = (
{
closed = 1;
nodes = (
(375,0,o),
(250,150,o),
(375,150,c),
(500,150,o),
(375,0,o),
(500,0,c),
(542,0,o),
(583,0,o),
(625,0,c),
(725,0,o),
(725,0,o),
(725,100,c),
(725,142,o),
(725,183,o),
(725,225,cs),
(725,242,o),
(725,242,o),
(690,250,cs),
(686,251,o),
(681,252,o),
(677,253,c),
(677,253,o),
(665,256,o),
(665,256,c),
(627,266,o),
(625,325,o),
(625,350,c),
(625,375,o),
(627,434,o),
(666,444,c),
(666,444,o),
(677,447,o),
(677,447,c),
(682,449,o),
(686,450,o),
(690,451,cs),
(725,462,o),
(725,462,o),
(725,500,cs),
(725,600,o),
(625,700,o),
(525,700,c),
(425,700,o),
(325,700,o),
(225,700,c),
(125,700,o),
(25,600,o),
(25,500,c),
(25,400,o),
(25,300,o),
(25,200,c),
(25,100,o),
(125,0,o),
(250,0,c)
);
}
);
width = 750;
},
{
layerId = "7255AB37-F0AF-404B-B2C0-BE0CDFEFD522";
shapes = (
{
closed = 1;
nodes = (
(275,34,o),
(325,67,o),
(375,100,c),
(417,67,o),
(458,33,o),
(500,0,c),
(542,0,o),
(583,0,o),
(625,0,c),
(659,34,o),
(692,67,o),
(725,100,c),
(725,142,o),
(725,183,o),
(725,225,c),
(709,242,o),
(692,258,o),
(675,275,c),
(671,275,o),
(666,275,o),
(662,275,c),
(658,275,o),
(654,275,o),
(650,275,c),
(625,300,o),
(600,325,o),
(575,350,c),
(600,375,o),
(625,400,o),
(650,425,c),
(654,425,o),
(658,425,o),
(662,425,c),
(667,425,o),
(671,425,o),
(675,425,c),
(692,450,o),
(708,475,o),
(725,500,c),
(659,567,o),
(592,633,o),
(525,700,c),
(425,700,o),
(325,700,o),
(225,700,c),
(159,634,o),
(92,567,o),
(25,500,c),
(25,400,o),
(25,300,o),
(25,200,c),
(92,134,o),
(158,67,o),
(225,0,c)
);
}
);
width = 750;
},
{
layerId = "2D1336F4-505A-45CB-96E0-1A391A104589";
shapes = (
{
closed = 1;
nodes = (
(259,34,o),
(317,67,o),
(375,100,c),
(434,67,o),
(492,33,o),
(550,0,c),
(575,0,o),
(600,0,o),
(625,0,c),
(659,34,o),
(692,67,o),
(725,100,c),
(725,142,o),
(725,183,o),
(725,225,c),
(709,242,o),
(692,258,o),
(675,275,c),
(659,275,o),
(642,275,o),
(625,275,c),
(575,275,o),
(525,275,o),
(475,275,c),
(442,300,o),
(408,325,o),
(375,350,c),
(409,375,o),
(442,400,o),
(475,425,c),
(525,425,o),
(575,425,o),
(625,425,c),
(642,425,o),
(658,425,o),
(675,425,c),
(692,450,o),
(708,475,o),
(725,500,c),
(659,567,o),
(592,633,o),
(525,700,c),
(425,700,o),
(325,700,o),
(225,700,c),
(159,634,o),
(92,567,o),
(25,500,c),
(25,400,o),
(25,300,o),
(25,200,c),
(84,134,o),
(142,67,o),
(200,0,c)
);
}
);
width = 750;
},
{
layerId = "28F6F6CF-6CF1-4298-BBDC-1B578C225890";
shapes = (
{
closed = 1;
nodes = (
(292,50,o),
(333,100,o),
(375,150,c),
(417,100,o),
(458,50,o),
(500,0,c),
(542,0,o),
(583,0,o),
(625,0,c),
(659,34,o),
(692,67,o),
(725,100,c),
(725,142,o),
(725,183,o),
(725,225,c),
(714,234,o),
(702,242,o),
(690,250,c),
(686,251,o),
(681,252,o),
(677,253,c),
(673,254,o),
(669,255,o),
(665,256,c),
(652,288,o),
(638,319,o),
(625,350,c),
(639,382,o),
(652,413,o),
(666,444,c),
(670,445,o),
(673,446,o),
(677,447,c),
(682,449,o),
(686,450,o),
(690,451,c),
(702,468,o),
(713,484,o),
(725,500,c),
(659,567,o),
(592,633,o),
(525,700,c),
(425,700,o),
(325,700,o),
(225,700,c),
(159,634,o),
(92,567,o),
(25,500,c),
(25,400,o),
(25,300,o),
(25,200,c),
(100,134,o),
(175,67,o),
(250,0,c)
);
}
);
width = 750;
},
{
layerId = "66BFC9E6-1952-4B87-BF6C-C5A8A5CAFA4D";
shapes = (
{
closed = 1;
nodes = (
(275,34,o),
(325,67,o),
(375,100,c),
(417,67,o),
(458,33,o),
(500,0,c),
(542,0,o),
(583,0,o),
(625,0,c),
(659,34,o),
(692,67,o),
(725,100,c),
(725,142,o),
(725,183,o),
(725,225,c),
(692,259,o),
(658,292,o),
(625,325,c),
(584,325,o),
(542,325,o),
(500,325,c),
(459,309,o),
(417,292,o),
(375,275,c),
(350,300,o),
(325,325,o),
(300,350,c),
(325,375,o),
(350,400,o),
(375,425,c),
(417,409,o),
(458,392,o),
(500,375,c),
(542,375,o),
(583,375,o),
(625,375,c),
(659,417,o),
(692,458,o),
(725,500,c),
(659,567,o),
(592,633,o),
(525,700,c),
(425,700,o),
(325,700,o),
(225,700,c),
(159,634,o),
(92,567,o),
(25,500,c),
(25,400,o),
(25,300,o),
(25,200,c),
(92,134,o),
(158,67,o),
(225,0,c)
);
}
);
width = 750;
},
{
layerId = "5D199366-843B-4174-BE1F-6720719AACE9";
shapes = (
{
closed = 1;
nodes = (
(259,34,o),
(317,67,o),
(375,100,c),
(434,67,o),
(492,33,o),
(550,0,c),
(567,0,o),
(583,0,o),
(600,0,c),
(642,34,o),
(683,67,o),
(725,100,c),
(725,142,o),
(725,183,o),
(725,225,c),
(709,259,o),
(692,292,o),
(675,325,c),
(659,325,o),
(642,325,o),
(625,325,c),
(542,300,o),
(458,275,o),
(375,250,c),
(292,284,o),
(208,317,o),
(125,350,c),
(209,384,o),
(292,417,o),
(375,450,c),
(459,425,o),
(542,400,o),
(625,375,c),
(642,375,o),
(658,375,o),
(675,375,c),
(692,417,o),
(708,458,o),
(725,500,c),
(617,567,o),
(508,633,o),
(400,700,c),
(384,700,o),
(367,700,o),
(350,700,c),
(242,634,o),
(133,567,o),
(25,500,c),
(25,400,o),
(25,300,o),
(25,200,c),
(84,134,o),
(142,67,o),
(200,0,c)
);
}
);
width = 750;
},
{
layerId = "C9F343FC-F72A-4E5E-9438-E02DE7AFC5D3";
shapes = (
{
closed = 1;
nodes = (
(275,50,o),
(325,100,o),
(375,150,c),
(417,100,o),
(458,50,o),
(500,0,c),
(542,0,o),
(583,0,o),
(625,0,c),
(659,75,o),
(692,150,o),
(725,225,c),
(725,242,o),
(725,258,o),
(725,275,c),
(692,292,o),
(658,308,o),
(625,325,c),
(584,325,o),
(542,325,o),
(500,325,c),
(459,292,o),
(417,258,o),
(375,225,c),
(350,292,o),
(325,358,o),
(300,425,c),
(325,492,o),
(350,558,o),
(375,625,c),
(417,542,o),
(458,458,o),
(500,375,c),
(542,375,o),
(583,375,o),
(625,375,c),
(659,392,o),
(692,408,o),
(725,425,c),
(659,517,o),
(592,608,o),
(525,700,c),
(425,700,o),
(325,700,o),
(225,700,c),
(159,592,o),
(92,483,o),
(25,375,c),
(25,359,o),
(25,342,o),
(25,325,c),
(92,217,o),
(158,108,o),
(225,0,c)
);
}
);
width = 750;
}
);
unicode = (71,103);
},
{
glyphname = H;
lastChange = "2022-12-19 02:39:31 +0000";
layers = (
{
layerId = m01;
shapes = (
{
closed = 1;
nodes = (
(167,0,o),
(208,0,o),
(250,0,c),
(350,0,o),
(350,0,o),
(350,100,c),
(350,225,o),
(300,100,o),
(300,225,c),
(300,299,o),
(350,300,o),
(375,300,c),
(400,300,o),
(450,300,o),
(450,225,c),
(450,100,o),
(400,225,o),
(400,100,c),
(400,0,o),
(400,0,o),
(500,0,c),
(542,0,o),
(583,0,o),
(625,0,c),
(725,0,o),
(725,0,o),
(725,100,c),
(725,267,o),
(725,433,o),
(725,600,c),
(725,700,o),
(725,700,o),
(625,700,c),
(584,700,o),
(542,700,o),
(500,700,c),
(400,700,o),
(400,700,o),
(400,600,c),
(400,475,o),
(450,600,o),
(450,475,c),
(450,400,o),
(400,400,o),
(375,400,c),
(350,400,o),
(300,401,o),
(300,475,c),
(300,600,o),
(350,475,o),
(350,600,c),
(350,700,o),
(350,700,o),
(250,700,c),
(209,700,o),
(167,700,o),
(125,700,c),
(25,700,o),
(25,700,o),
(25,600,c),
(25,434,o),
(25,267,o),
(25,100,c),
(25,0,o),
(25,0,o),
(125,0,c)
);
}
);
width = 750;
},
{
layerId = "3FB0BBD1-C623-48BB-B11C-478BB36E1931";
shapes = (
{
closed = 1;
nodes = (
(267,0,o),
(283,0,o),
(300,0,c),
(350,0,o),
(350,0,o),
(350,100,c),
(350,225,o),
(125,100,o),
(125,225,c),
(125,299,o),
(325,300,o),
(375,300,c),
(425,300,o),
(625,300,o),
(625,225,c),
(625,100,o),
(400,225,o),
(400,100,c),
(400,0,o),
(400,0,o),
(450,0,c),
(467,0,o),
(483,0,o),
(500,0,c),
(575,0,o),
(725,0,o),
(725,100,c),
(725,267,o),
(725,433,o),
(725,600,c),
(725,700,o),
(575,700,o),
(500,700,c),
(484,700,o),
(467,700,o),
(450,700,c),
(400,700,o),
(400,700,o),
(400,600,c),
(400,475,o),
(625,600,o),
(625,475,c),
(625,400,o),
(425,400,o),
(375,400,c),
(325,400,o),
(125,401,o),
(125,475,c),
(125,600,o),
(350,475,o),
(350,600,c),
(350,700,o),
(350,700,o),
(300,700,c),
(284,700,o),
(267,700,o),
(250,700,c),
(175,700,o),
(25,700,o),
(25,600,c),
(25,434,o),
(25,267,o),
(25,100,c),
(25,0,o),
(175,0,o),
(250,0,c)
);
}
);
width = 750;
},
{
layerId = "D19652E7-EFD0-4E4C-BF76-3B076A5B34BC";
shapes = (
{
closed = 1;
nodes = (
(167,0,o),
(208,0,o),
(250,0,c),
(350,0,o),
(350,0,o),
(350,50,c),
(350,110,o),
(300,90,o),
(300,200,c),
(300,325,o),
(350,325,o),
(375,325,c),
(400,325,o),
(450,326,o),
(450,200,c),
(450,90,o),
(400,110,o),
(400,50,c),
(400,0,o),
(400,0,o),
(500,0,c),
(542,0,o),
(583,0,o),
(625,0,c),
(725,0,o),
(725,225,o),
(725,325,c),
(725,342,o),
(725,358,o),
(725,375,c),
(725,475,o),
(725,700,o),
(625,700,c),
(584,700,o),
(542,700,o),
(500,700,c),
(400,700,o),
(400,700,o),
(400,650,c),
(400,590,o),
(450,610,o),
(450,500,c),
(450,374,o),
(400,375,o),
(375,375,c),
(350,375,o),
(300,375,o),
(300,500,c),
(300,610,o),
(350,590,o),
(350,650,c),
(350,700,o),
(350,700,o),
(250,700,c),
(209,700,o),
(167,700,o),
(125,700,c),
(25,700,o),
(25,475,o),
(25,375,c),
(25,359,o),
(25,342,o),
(25,325,c),
(25,225,o),
(25,0,o),
(125,0,c)
);
}
);
width = 750;
},
{
layerId = "19B082C2-3429-47B4-A4D8-F059340FFD3C";
shapes = (
{
closed = 1;
nodes = (
(167,0,o),
(208,0,o),
(250,0,c),
(300,0,o),
(300,0,o),
(300,50,c),
(300,50,o),
(300,75,o),
(300,75,c),
(300,149,o),
(350,150,o),
(375,150,c),
(400,150,o),
(450,150,o),
(450,75,c),
(450,75,o),
(450,50,o),
(450,50,c),
(450,0,o),
(450,0,o),
(500,0,c),
(542,0,o),
(583,0,o),
(625,0,c),
(725,0,o),
(725,0,o),
(725,100,c),
(725,267,o),
(725,433,o),
(725,600,c),
(725,700,o),
(725,700,o),
(625,700,c),
(584,700,o),
(542,700,o),
(500,700,c),
(450,700,o),
(450,700,o),
(450,650,c),
(450,650,o),
(450,625,o),
(450,625,c),
(450,550,o),
(400,550,o),
(375,550,c),
(350,550,o),
(300,551,o),
(300,625,c),
(300,625,o),
(300,650,o),
(300,650,c),
(300,700,o),
(300,700,o),
(250,700,c),
(209,700,o),
(167,700,o),
(125,700,c),
(25,700,o),
(25,700,o),
(25,600,c),
(25,434,o),
(25,267,o),
(25,100,c),
(25,0,o),
(25,0,o),
(125,0,c)
);
}
);
width = 750;
},
{
layerId = "97FA09B7-861C-4A63-ABF9-29244986920C";
shapes = (
{
closed = 1;
nodes = (
(150,0,o),
(175,0,o),
(200,0,c),
(250,0,o),
(266,3,o),
(275,36,c),
(275,36,o),
(281,61,o),
(281,61,c),
(291,98,o),
(325,100,o),
(375,100,c),
(425,100,o),
(457,99,o),
(468,61,c),
(468,61,o),
(474,36,o),
(474,36,c),
(483,3,o),
(500,0,o),
(550,0,c),
(575,0,o),
(600,0,o),
(625,0,c),
(725,0,o),
(725,0,o),
(725,100,c),
(725,267,o),
(725,433,o),
(725,600,c),
(725,700,o),
(725,700,o),
(625,700,c),
(600,700,o),
(575,700,o),
(550,700,c),
(500,700,o),
(484,698,o),
(475,665,c),
(475,665,o),
(469,640,o),
(469,640,c),
(459,602,o),
(425,600,o),
(375,600,c),
(325,600,o),
(291,603,o),
(281,640,c),
(281,640,o),
(275,665,o),
(275,665,c),
(266,698,o),
(250,700,o),
(200,700,c),
(175,700,o),
(150,700,o),
(125,700,c),
(25,700,o),
(25,700,o),
(25,600,c),
(25,434,o),
(25,267,o),
(25,100,c),
(25,0,o),
(25,0,o),
(125,0,c)
);
}
);
width = 750;
},
{
layerId = "73DF1801-42CB-4FE2-B370-82821562EC7A";
shapes = (
{
closed = 1;
nodes = (
(167,0,o),
(208,0,o),
(250,0,c),
(300,0,o),
(300,0,o),
(300,50,c),
(300,50,o),
(300,225,o),
(300,225,c),
(300,299,o),
(350,300,o),
(375,300,c),
(400,300,o),
(450,300,o),
(450,225,c),
(450,225,o),
(450,50,o),
(450,50,c),
(450,0,o),
(450,0,o),
(500,0,c),
(542,0,o),
(583,0,o),
(625,0,c),
(725,0,o),
(725,0,o),
(725,100,c),
(725,267,o),
(725,433,o),
(725,600,c),
(725,700,o),
(725,700,o),
(625,700,c),
(584,700,o),
(542,700,o),
(500,700,c),
(450,700,o),
(450,700,o),
(450,650,c),
(450,650,o),
(450,475,o),
(450,475,c),
(450,400,o),
(400,400,o),
(375,400,c),
(350,400,o),
(300,401,o),
(300,475,c),
(300,475,o),
(300,650,o),
(300,650,c),
(300,700,o),
(300,700,o),
(250,700,c),
(209,700,o),
(167,700,o),
(125,700,c),
(25,700,o),
(25,700,o),
(25,600,c),
(25,434,o),
(25,267,o),
(25,100,c),
(25,0,o),
(25,0,o),
(125,0,c)
);
}
);
width = 750;
},
{
layerId = "7255AB37-F0AF-404B-B2C0-BE0CDFEFD522";
shapes = (
{
closed = 1;
nodes = (
(167,0,o),
(208,0,o),
(250,0,c),
(267,17,o),
(283,33,o),
(300,50,c),
(300,59,o),
(300,67,o),
(300,75,c),
(325,100,o),
(350,125,o),
(375,150,c),
(400,125,o),
(425,100,o),
(450,75,c),
(450,67,o),
(450,58,o),
(450,50,c),
(467,34,o),
(483,17,o),
(500,0,c),
(542,0,o),
(583,0,o),
(625,0,c),
(659,34,o),
(692,67,o),
(725,100,c),
(725,267,o),
(725,433,o),
(725,600,c),
(692,634,o),
(658,667,o),
(625,700,c),
(584,700,o),
(542,700,o),
(500,700,c),
(484,684,o),
(467,667,o),
(450,650,c),
(450,642,o),
(450,633,o),
(450,625,c),
(425,600,o),
(400,575,o),
(375,550,c),
(350,575,o),
(325,600,o),
(300,625,c),
(300,634,o),
(300,642,o),
(300,650,c),
(284,667,o),
(267,683,o),
(250,700,c),
(209,700,o),
(167,700,o),
(125,700,c),
(92,667,o),
(58,633,o),
(25,600,c),
(25,434,o),
(25,267,o),
(25,100,c),
(59,67,o),
(92,33,o),
(125,0,c)
);
}
);
width = 750;
},
{
layerId = "2D1336F4-505A-45CB-96E0-1A391A104589";
shapes = (
{
closed = 1;
nodes = (
(150,0,o),
(175,0,o),
(200,0,c),
(225,12,o),
(250,24,o),
(275,36,c),
(277,45,o),
(279,53,o),
(281,61,c),
(313,74,o),
(344,87,o),
(375,100,c),
(406,87,o),
(437,74,o),
(468,61,c),
(470,53,o),
(472,44,o),
(474,36,c),
(500,24,o),
(525,12,o),
(550,0,c),
(575,0,o),
(600,0,o),
(625,0,c),
(659,34,o),
(692,67,o),
(725,100,c),
(725,267,o),
(725,433,o),
(725,600,c),
(692,634,o),
(658,667,o),
(625,700,c),
(600,700,o),
(575,700,o),
(550,700,c),
(525,689,o),
(500,677,o),
(475,665,c),
(473,657,o),
(471,648,o),
(469,640,c),
(438,627,o),
(406,613,o),
(375,600,c),
(344,614,o),
(312,627,o),
(281,640,c),
(279,649,o),
(277,657,o),
(275,665,c),
(250,677,o),
(225,688,o),
(200,700,c),
(175,700,o),
(150,700,o),
(125,700,c),
(92,667,o),
(58,633,o),
(25,600,c),
(25,434,o),
(25,267,o),
(25,100,c),
(59,67,o),
(92,33,o),
(125,0,c)
);
}
);
width = 750;
},
{
layerId = "28F6F6CF-6CF1-4298-BBDC-1B578C225890";
shapes = (
{
closed = 1;
nodes = (
(167,0,o),
(208,0,o),
(250,0,c),
(267,17,o),
(283,33,o),
(300,50,c),
(300,109,o),
(300,167,o),
(300,225,c),
(325,250,o),
(350,275,o),
(375,300,c),
(400,275,o),
(425,250,o),
(450,225,c),
(450,167,o),
(450,108,o),
(450,50,c),
(467,34,o),
(483,17,o),
(500,0,c),
(542,0,o),
(583,0,o),
(625,0,c),
(659,34,o),
(692,67,o),
(725,100,c),
(725,267,o),
(725,433,o),
(725,600,c),
(692,634,o),
(658,667,o),
(625,700,c),
(584,700,o),
(542,700,o),
(500,700,c),
(484,684,o),
(467,667,o),
(450,650,c),
(450,592,o),
(450,533,o),
(450,475,c),
(425,450,o),
(400,425,o),
(375,400,c),
(350,425,o),
(325,450,o),
(300,475,c),
(300,534,o),
(300,592,o),
(300,650,c),
(284,667,o),
(267,683,o),
(250,700,c),
(209,700,o),
(167,700,o),
(125,700,c),
(92,667,o),
(58,633,o),
(25,600,c),
(25,434,o),
(25,267,o),
(25,100,c),
(59,67,o),
(92,33,o),
(125,0,c)
);
}
);
width = 750;
},
{
layerId = "66BFC9E6-1952-4B87-BF6C-C5A8A5CAFA4D";
shapes = (
{
closed = 1;
nodes = (
(167,0,o),
(208,0,o),
(250,0,c),
(284,34,o),
(317,67,o),
(350,100,c),
(334,142,o),
(317,183,o),
(300,225,c),
(325,250,o),
(350,275,o),
(375,300,c),
(400,275,o),
(425,250,o),
(450,225,c),
(434,184,o),
(417,142,o),
(400,100,c),
(434,67,o),
(467,33,o),
(500,0,c),
(542,0,o),
(583,0,o),
(625,0,c),
(659,34,o),
(692,67,o),
(725,100,c),
(725,267,o),
(725,433,o),
(725,600,c),
(692,634,o),
(658,667,o),
(625,700,c),
(584,700,o),
(542,700,o),
(500,700,c),
(467,667,o),
(433,633,o),
(400,600,c),
(417,559,o),
(433,517,o),
(450,475,c),
(425,450,o),
(400,425,o),
(375,400,c),
(350,425,o),
(325,450,o),
(300,475,c),
(317,517,o),
(333,558,o),
(350,600,c),
(317,634,o),
(283,667,o),
(250,700,c),
(209,700,o),
(167,700,o),
(125,700,c),
(92,667,o),
(58,633,o),
(25,600,c),
(25,434,o),
(25,267,o),
(25,100,c),
(59,67,o),
(92,33,o),
(125,0,c)
);
}
);
width = 750;
},
{
layerId = "5D199366-843B-4174-BE1F-6720719AACE9";
shapes = (
{
closed = 1;
nodes = (
(267,0,o),
(283,0,o),
(300,0,c),
(317,34,o),
(333,67,o),
(350,100,c),
(275,142,o),
(200,183,o),
(125,225,c),
(209,250,o),
(292,275,o),
(375,300,c),
(459,275,o),
(542,250,o),
(625,225,c),
(550,184,o),
(475,142,o),
(400,100,c),
(417,67,o),
(433,33,o),
(450,0,c),
(467,0,o),
(483,0,o),
(500,0,c),
(575,34,o),
(650,67,o),
(725,100,c),
(725,267,o),
(725,433,o),
(725,600,c),
(650,634,o),
(575,667,o),
(500,700,c),
(484,700,o),
(467,700,o),
(450,700,c),
(434,667,o),
(417,633,o),
(400,600,c),
(475,559,o),
(550,517,o),
(625,475,c),
(542,450,o),
(458,425,o),
(375,400,c),
(292,425,o),
(208,450,o),
(125,475,c),
(200,517,o),
(275,558,o),
(350,600,c),
(334,634,o),
(317,667,o),
(300,700,c),
(284,700,o),
(267,700,o),
(250,700,c),
(175,667,o),
(100,633,o),
(25,600,c),
(25,434,o),
(25,267,o),
(25,100,c),
(100,67,o),
(175,33,o),
(250,0,c)
);
}
);
width = 750;
},
{
layerId = "C9F343FC-F72A-4E5E-9438-E02DE7AFC5D3";
shapes = (
{
closed = 1;
nodes = (
(167,0,o),
(208,0,o),
(250,0,c),
(284,17,o),
(317,33,o),
(350,50,c),
(334,100,o),
(317,150,o),
(300,200,c),
(325,242,o),
(350,283,o),
(375,325,c),
(400,284,o),
(425,242,o),
(450,200,c),
(434,150,o),
(417,100,o),
(400,50,c),
(434,34,o),
(467,17,o),
(500,0,c),
(542,0,o),
(583,0,o),
(625,0,c),
(659,109,o),
(692,217,o),
(725,325,c),
(725,342,o),
(725,358,o),
(725,375,c),
(692,484,o),
(658,592,o),
(625,700,c),
(584,700,o),
(542,700,o),
(500,700,c),
(467,684,o),
(433,667,o),
(400,650,c),
(417,600,o),
(433,550,o),
(450,500,c),
(425,459,o),
(400,417,o),
(375,375,c),
(350,417,o),
(325,458,o),
(300,500,c),
(317,550,o),
(333,600,o),
(350,650,c),
(317,667,o),
(283,683,o),
(250,700,c),
(209,700,o),
(167,700,o),
(125,700,c),
(92,592,o),
(58,483,o),
(25,375,c),
(25,359,o),
(25,342,o),
(25,325,c),
(59,217,o),
(92,108,o),
(125,0,c)
);
}
);
width = 750;
}
);
unicode = (72,104);
},
{
glyphname = I;
lastChange = "2022-12-19 02:38:49 +0000";
layers = (
{
layerId = m01;
shapes = (
{
closed = 1;
nodes = (
(292,0,o),
(458,0,o),
(625,0,c),
(725,0,o),
(725,0,o),
(725,100,c),
(725,142,o),
(725,183,o),
(725,225,c),
(725,325,o),
(725,325,o),
(625,325,c),
(500,325,o),
(625,275,o),
(500,275,c),
(426,275,o),
(425,325,o),
(425,350,c),
(425,375,o),
(425,425,o),
(500,425,c),
(625,425,o),
(500,375,o),
(625,375,c),
(725,375,o),
(725,375,o),
(725,475,c),
(725,517,o),
(725,558,o),
(725,600,c),
(725,700,o),
(725,700,o),
(625,700,c),
(459,700,o),
(292,700,o),
(125,700,c),
(25,700,o),
(25,700,o),
(25,600,c),
(25,559,o),
(25,517,o),
(25,475,c),
(25,375,o),
(25,375,o),
(125,375,c),
(250,375,o),
(125,425,o),
(250,425,c),
(325,425,o),
(325,375,o),
(325,350,c),
(325,325,o),
(324,275,o),
(250,275,c),
(125,275,o),
(250,325,o),
(125,325,c),
(25,325,o),
(25,325,o),
(25,225,c),
(25,184,o),
(25,142,o),
(25,100,c),
(25,0,o),
(25,0,o),
(125,0,c)
);
}
);
width = 750;
},
{
layerId = "3FB0BBD1-C623-48BB-B11C-478BB36E1931";
shapes = (
{
closed = 1;
nodes = (
(367,0,o),
(383,0,o),
(400,0,c),
(500,0,o),
(725,0,o),
(725,100,c),
(725,142,o),
(725,183,o),
(725,225,c),
(725,325,o),
(725,325,o),
(700,325,c),
(650,325,o),
(650,250,o),
(525,250,c),
(425,250,o),
(425,325,o),
(425,350,c),
(425,375,o),
(425,450,o),
(525,450,c),
(650,450,o),
(650,375,o),
(700,375,c),
(725,375,o),
(725,375,o),
(725,475,c),
(725,517,o),
(725,558,o),
(725,600,c),
(725,700,o),
(500,700,o),
(400,700,c),
(384,700,o),
(367,700,o),
(350,700,c),
(250,700,o),
(25,700,o),
(25,600,c),
(25,559,o),
(25,517,o),
(25,475,c),
(25,375,o),
(25,375,o),
(50,375,c),
(100,375,o),
(100,450,o),
(225,450,c),
(325,450,o),
(325,375,o),
(325,350,c),
(325,325,o),
(325,250,o),
(225,250,c),
(100,250,o),
(100,325,o),
(50,325,c),
(25,325,o),
(25,325,o),
(25,225,c),
(25,184,o),
(25,142,o),
(25,100,c),
(25,0,o),
(250,0,o),
(350,0,c)
);
}
);
width = 750;
},
{
layerId = "D19652E7-EFD0-4E4C-BF76-3B076A5B34BC";
shapes = (
{
closed = 1;
nodes = (
(292,0,o),
(458,0,o),
(625,0,c),
(725,0,o),
(725,150,o),
(725,225,c),
(725,242,o),
(725,258,o),
(725,275,c),
(725,325,o),
(725,325,o),
(625,325,c),
(525,325,o),
(625,75,o),
(525,75,c),
(461,75,o),
(460,300,o),
(460,350,c),
(460,400,o),
(460,625,o),
(525,625,c),
(625,625,o),
(525,375,o),
(625,375,c),
(725,375,o),
(725,375,o),
(725,425,c),
(725,442,o),
(725,458,o),
(725,475,c),
(725,550,o),
(725,700,o),
(625,700,c),
(459,700,o),
(292,700,o),
(125,700,c),
(25,700,o),
(25,550,o),
(25,475,c),
(25,459,o),
(25,442,o),
(25,425,c),
(25,375,o),
(25,375,o),
(125,375,c),
(225,375,o),
(125,625,o),
(225,625,c),
(290,625,o),
(290,400,o),
(290,350,c),
(290,300,o),
(289,75,o),
(225,75,c),
(125,75,o),
(225,325,o),
(125,325,c),
(25,325,o),
(25,325,o),
(25,275,c),
(25,259,o),
(25,242,o),
(25,225,c),
(25,150,o),
(25,0,o),
(125,0,c)
);
}
);
width = 750;
},
{
layerId = "19B082C2-3429-47B4-A4D8-F059340FFD3C";
shapes = (
{
closed = 1;
nodes = (
(292,0,o),
(458,0,o),
(625,0,c),
(725,0,o),
(725,0,o),
(725,100,c),
(725,142,o),
(725,183,o),
(725,225,c),
(725,275,o),
(725,275,o),
(675,275,c),
(675,275,o),
(650,275,o),
(650,275,c),
(576,275,o),
(575,325,o),
(575,350,c),
(575,375,o),
(575,425,o),
(650,425,c),
(650,425,o),
(675,425,o),
(675,425,c),
(725,425,o),
(725,425,o),
(725,475,c),
(725,517,o),
(725,558,o),
(725,600,c),
(725,700,o),
(725,700,o),
(625,700,c),
(459,700,o),
(292,700,o),
(125,700,c),
(25,700,o),
(25,700,o),
(25,600,c),
(25,559,o),
(25,517,o),
(25,475,c),
(25,425,o),
(25,425,o),
(75,425,c),
(75,425,o),
(100,425,o),
(100,425,c),
(175,425,o),
(175,375,o),
(175,350,c),
(175,325,o),
(174,275,o),
(100,275,c),
(100,275,o),
(75,275,o),
(75,275,c),
(25,275,o),
(25,275,o),
(25,225,c),
(25,184,o),
(25,142,o),
(25,100,c),
(25,0,o),
(25,0,o),
(125,0,c)
);
}
);
width = 750;
},
{
layerId = "97FA09B7-861C-4A63-ABF9-29244986920C";
shapes = (
{
closed = 1;
nodes = (
(292,0,o),
(458,0,o),
(625,0,c),
(725,0,o),
(725,0,o),
(725,100,c),
(725,142,o),
(725,183,o),
(725,225,c),
(725,275,o),
(725,275,o),
(675,275,c),
(675,275,o),
(500,275,o),
(500,275,c),
(426,275,o),
(425,325,o),
(425,350,c),
(425,375,o),
(425,425,o),
(500,425,c),
(500,425,o),
(675,425,o),
(675,425,c),
(725,425,o),
(725,425,o),
(725,475,c),
(725,517,o),
(725,558,o),
(725,600,c),
(725,700,o),
(725,700,o),
(625,700,c),
(459,700,o),
(292,700,o),
(125,700,c),
(25,700,o),
(25,700,o),
(25,600,c),
(25,559,o),
(25,517,o),
(25,475,c),
(25,425,o),
(25,425,o),
(75,425,c),
(75,425,o),
(250,425,o),
(250,425,c),
(325,425,o),
(325,375,o),
(325,350,c),
(325,325,o),
(324,275,o),
(250,275,c),
(250,275,o),
(75,275,o),
(75,275,c),
(25,275,o),
(25,275,o),
(25,225,c),
(25,184,o),
(25,142,o),
(25,100,c),
(25,0,o),
(25,0,o),
(125,0,c)
);
}
);
width = 750;
},
{
layerId = "73DF1801-42CB-4FE2-B370-82821562EC7A";
shapes = (
{
closed = 1;
nodes = (
(292,0,o),
(458,0,o),
(625,0,c),
(725,0,o),
(725,0,o),
(725,100,c),
(725,135,o),
(725,170,o),
(725,205,cs),
(725,244,o),
(724,244,o),
(695,252,c),
(695,252,o),
(670,258,o),
(670,258,c),
(628,270,o),
(625,325,o),
(625,350,c),
(625,375,o),
(627,430,o),
(670,442,c),
(670,442,o),
(695,448,o),
(695,448,c),
(724,456,o),
(725,456,o),
(725,495,cs),
(725,530,o),
(725,565,o),
(725,600,c),
(725,700,o),
(725,700,o),
(625,700,c),
(459,700,o),
(292,700,o),
(125,700,c),
(25,700,o),
(25,700,o),
(25,600,c),
(25,565,o),
(25,530,o),
(25,495,cs),
(25,456,o),
(26,456,o),
(55,448,c),
(55,448,o),
(80,442,o),
(80,442,c),
(123,430,o),
(125,375,o),
(125,350,c),
(125,325,o),
(122,270,o),
(80,258,c),
(80,258,o),
(55,252,o),
(55,252,c),
(26,244,o),
(25,244,o),
(25,205,cs),
(25,170,o),
(25,135,o),
(25,100,c),
(25,0,o),
(25,0,o),
(125,0,c)
);
}
);
width = 750;
},
{
layerId = "7255AB37-F0AF-404B-B2C0-BE0CDFEFD522";
shapes = (
{
closed = 1;
nodes = (
(292,0,o),
(458,0,o),
(625,0,c),
(659,34,o),
(692,67,o),
(725,100,c),
(725,142,o),
(725,183,o),
(725,225,c),
(709,242,o),
(692,258,o),
(675,275,c),
(667,275,o),
(658,275,o),
(650,275,c),
(625,300,o),
(600,325,o),
(575,350,c),
(600,375,o),
(625,400,o),
(650,425,c),
(659,425,o),
(667,425,o),
(675,425,c),
(692,442,o),
(708,458,o),
(725,475,c),
(725,517,o),
(725,558,o),
(725,600,c),
(692,634,o),
(658,667,o),
(625,700,c),
(459,700,o),
(292,700,o),
(125,700,c),
(92,667,o),
(58,633,o),
(25,600,c),
(25,559,o),
(25,517,o),
(25,475,c),
(42,459,o),
(58,442,o),
(75,425,c),
(84,425,o),
(92,425,o),
(100,425,c),
(125,400,o),
(150,375,o),
(175,350,c),
(150,325,o),
(125,300,o),
(100,275,c),
(92,275,o),
(83,275,o),
(75,275,c),
(59,259,o),
(42,242,o),
(25,225,c),
(25,184,o),
(25,142,o),
(25,100,c),
(59,67,o),
(92,33,o),
(125,0,c)
);
}
);
width = 750;
},
{
layerId = "2D1336F4-505A-45CB-96E0-1A391A104589";
shapes = (
{
closed = 1;
nodes = (
(292,0,o),
(458,0,o),
(625,0,c),
(659,34,o),
(692,67,o),
(725,100,c),
(725,142,o),
(725,183,o),
(725,225,c),
(709,242,o),
(692,258,o),
(675,275,c),
(617,275,o),
(558,275,o),
(500,275,c),
(475,300,o),
(450,325,o),
(425,350,c),
(450,375,o),
(475,400,o),
(500,425,c),
(559,425,o),
(617,425,o),
(675,425,c),
(692,442,o),
(708,458,o),
(725,475,c),
(725,517,o),
(725,558,o),
(725,600,c),
(692,634,o),
(658,667,o),
(625,700,c),
(459,700,o),
(292,700,o),
(125,700,c),
(92,667,o),
(58,633,o),
(25,600,c),
(25,559,o),
(25,517,o),
(25,475,c),
(42,459,o),
(58,442,o),
(75,425,c),
(134,425,o),
(192,425,o),
(250,425,c),
(275,400,o),
(300,375,o),
(325,350,c),
(300,325,o),
(275,300,o),
(250,275,c),
(192,275,o),
(133,275,o),
(75,275,c),
(59,259,o),
(42,242,o),
(25,225,c),
(25,184,o),
(25,142,o),
(25,100,c),
(59,67,o),
(92,33,o),
(125,0,c)
);
}
);
width = 750;
},
{
layerId = "28F6F6CF-6CF1-4298-BBDC-1B578C225890";
shapes = (
{
closed = 1;
nodes = (
(292,0,o),
(458,0,o),
(625,0,c),
(659,34,o),
(692,67,o),
(725,100,c),
(725,135,o),
(725,170,o),
(725,205,c),
(715,221,o),
(705,236,o),
(695,252,c),
(687,254,o),
(678,256,o),
(670,258,c),
(655,289,o),
(640,319,o),
(625,350,c),
(640,381,o),
(655,411,o),
(670,442,c),
(679,444,o),
(687,446,o),
(695,448,c),
(705,464,o),
(715,479,o),
(725,495,c),
(725,530,o),
(725,565,o),
(725,600,c),
(692,634,o),
(658,667,o),
(625,700,c),
(459,700,o),
(292,700,o),
(125,700,c),
(92,667,o),
(58,633,o),
(25,600,c),
(25,565,o),
(25,530,o),
(25,495,c),
(35,480,o),
(45,464,o),
(55,448,c),
(64,446,o),
(72,444,o),
(80,442,c),
(95,412,o),
(110,381,o),
(125,350,c),
(110,320,o),
(95,289,o),
(80,258,c),
(72,256,o),
(63,254,o),
(55,252,c),
(45,237,o),
(35,221,o),
(25,205,c),
(25,170,o),
(25,135,o),
(25,100,c),
(59,67,o),
(92,33,o),
(125,0,c)
);
}
);
width = 750;
},
{
layerId = "66BFC9E6-1952-4B87-BF6C-C5A8A5CAFA4D";
shapes = (
{
closed = 1;
nodes = (
(292,0,o),
(458,0,o),
(625,0,c),
(659,34,o),
(692,67,o),
(725,100,c),
(725,142,o),
(725,183,o),
(725,225,c),
(692,259,o),
(658,292,o),
(625,325,c),
(584,309,o),
(542,292,o),
(500,275,c),
(475,300,o),
(450,325,o),
(425,350,c),
(450,375,o),
(475,400,o),
(500,425,c),
(542,409,o),
(583,392,o),
(625,375,c),
(659,409,o),
(692,442,o),
(725,475,c),
(725,517,o),
(725,558,o),
(725,600,c),
(692,634,o),
(658,667,o),
(625,700,c),
(459,700,o),
(292,700,o),
(125,700,c),
(92,667,o),
(58,633,o),
(25,600,c),
(25,559,o),
(25,517,o),
(25,475,c),
(59,442,o),
(92,408,o),
(125,375,c),
(167,392,o),
(208,408,o),
(250,425,c),
(275,400,o),
(300,375,o),
(325,350,c),
(300,325,o),
(275,300,o),
(250,275,c),
(209,292,o),
(167,308,o),
(125,325,c),
(92,292,o),
(58,258,o),
(25,225,c),
(25,184,o),
(25,142,o),
(25,100,c),
(59,67,o),
(92,33,o),
(125,0,c)
);
}
);
width = 750;
},
{
layerId = "5D199366-843B-4174-BE1F-6720719AACE9";
shapes = (
{
closed = 1;
nodes = (
(367,0,o),
(383,0,o),
(400,0,c),
(509,34,o),
(617,67,o),
(725,100,c),
(725,142,o),
(725,183,o),
(725,225,c),
(717,259,o),
(708,292,o),
(700,325,c),
(642,300,o),
(583,275,o),
(525,250,c),
(492,284,o),
(458,317,o),
(425,350,c),
(459,384,o),
(492,417,o),
(525,450,c),
(584,425,o),
(642,400,o),
(700,375,c),
(709,409,o),
(717,442,o),
(725,475,c),
(725,517,o),
(725,558,o),
(725,600,c),
(617,634,o),
(508,667,o),
(400,700,c),
(384,700,o),
(367,700,o),
(350,700,c),
(242,667,o),
(133,633,o),
(25,600,c),
(25,559,o),
(25,517,o),
(25,475,c),
(34,442,o),
(42,408,o),
(50,375,c),
(109,400,o),
(167,425,o),
(225,450,c),
(259,417,o),
(292,383,o),
(325,350,c),
(292,317,o),
(258,283,o),
(225,250,c),
(167,275,o),
(108,300,o),
(50,325,c),
(42,292,o),
(33,258,o),
(25,225,c),
(25,184,o),
(25,142,o),
(25,100,c),
(134,67,o),
(242,33,o),
(350,0,c)
);
}
);
width = 750;
},
{
layerId = "C9F343FC-F72A-4E5E-9438-E02DE7AFC5D3";
shapes = (
{
closed = 1;
nodes = (
(292,0,o),
(458,0,o),
(625,0,c),
(659,75,o),
(692,150,o),
(725,225,c),
(725,242,o),
(725,258,o),
(725,275,c),
(692,292,o),
(658,308,o),
(625,325,c),
(592,242,o),
(558,158,o),
(525,75,c),
(504,167,o),
(482,258,o),
(460,350,c),
(482,442,o),
(503,533,o),
(525,625,c),
(559,542,o),
(592,458,o),
(625,375,c),
(659,392,o),
(692,408,o),
(725,425,c),
(725,442,o),
(725,458,o),
(725,475,c),
(692,550,o),
(658,625,o),
(625,700,c),
(459,700,o),
(292,700,o),
(125,700,c),
(92,625,o),
(58,550,o),
(25,475,c),
(25,459,o),
(25,442,o),
(25,425,c),
(59,409,o),
(92,392,o),
(125,375,c),
(159,459,o),
(192,542,o),
(225,625,c),
(247,534,o),
(268,442,o),
(290,350,c),
(269,259,o),
(247,167,o),
(225,75,c),
(192,159,o),
(158,242,o),
(125,325,c),
(92,309,o),
(58,292,o),
(25,275,c),
(25,259,o),
(25,242,o),
(25,225,c),
(59,150,o),
(92,75,o),
(125,0,c)
);
}
);
width = 750;
}
);
unicode = (73,105);
},
{
glyphname = J;
lastChange = "2022-12-19 02:38:04 +0000";
layers = (
{
layerId = m01;
shapes = (
{
closed = 1;
nodes = (
(259,0,o),
(392,0,o),
(525,0,c),
(625,0,o),
(725,100,o),
(725,200,c),
(725,334,o),
(725,467,o),
(725,600,c),
(725,700,o),
(725,700,o),
(625,700,c),
(584,700,o),
(542,700,o),
(500,700,c),
(400,700,o),
(400,700,o),
(400,600,c),
(400,559,o),
(400,517,o),
(400,475,c),
(400,350,o),
(450,475,o),
(450,350,c),
(450,300,o),
(425,275,o),
(375,275,c),
(250,275,o),
(375,325,o),
(250,325,c),
(209,325,o),
(167,325,o),
(125,325,c),
(25,325,o),
(25,325,o),
(25,225,c),
(25,184,o),
(25,142,o),
(25,100,c),
(25,0,o),
(25,0,o),
(125,0,c)
);
}
);
width = 750;
},
{
layerId = "3FB0BBD1-C623-48BB-B11C-478BB36E1931";
shapes = (
{
closed = 1;
nodes = (
(367,0,o),
(383,0,o),
(400,0,c),
(500,0,o),
(725,0,o),
(725,200,c),
(725,334,o),
(725,467,o),
(725,600,c),
(725,700,o),
(575,700,o),
(500,700,c),
(484,700,o),
(467,700,o),
(450,700,c),
(400,700,o),
(400,700,o),
(400,600,c),
(400,565,o),
(400,530,o),
(400,495,c),
(400,375,o),
(625,469,o),
(625,350,c),
(625,300,o),
(625,250,o),
(375,250,c),
(150,250,o),
(200,325,o),
(125,325,c),
(109,325,o),
(92,325,o),
(75,325,c),
(25,325,o),
(25,325,o),
(25,225,c),
(25,184,o),
(25,142,o),
(25,100,c),
(25,0,o),
(250,0,o),
(350,0,c)
);
}
);
width = 750;
},
{
layerId = "D19652E7-EFD0-4E4C-BF76-3B076A5B34BC";
shapes = (
{
closed = 1;
nodes = (
(259,0,o),
(392,0,o),
(525,0,c),
(725,0,o),
(725,225,o),
(725,325,c),
(725,342,o),
(725,358,o),
(725,375,c),
(725,475,o),
(725,700,o),
(625,700,c),
(584,700,o),
(542,700,o),
(500,700,c),
(400,700,o),
(400,700,o),
(400,650,c),
(400,634,o),
(400,617,o),
(400,600,c),
(400,525,o),
(450,575,o),
(450,350,c),
(450,300,o),
(450,75,o),
(375,75,c),
(250,75,o),
(375,325,o),
(250,325,c),
(209,325,o),
(167,325,o),
(125,325,c),
(25,325,o),
(25,325,o),
(25,275,c),
(25,259,o),
(25,242,o),
(25,225,c),
(25,125,o),
(25,0,o),
(125,0,c)
);
}
);
width = 750;
},
{
layerId = "19B082C2-3429-47B4-A4D8-F059340FFD3C";
shapes = (
{
closed = 1;
nodes = (
(259,0,o),
(392,0,o),
(525,0,c),
(625,0,o),
(725,100,o),
(725,200,c),
(725,334,o),
(725,467,o),
(725,600,c),
(725,700,o),
(725,700,o),
(625,700,c),
(584,700,o),
(542,700,o),
(500,700,c),
(400,700,o),
(400,700,o),
(400,600,c),
(400,559,o),
(400,517,o),
(400,475,c),
(400,475,o),
(400,425,o),
(400,425,c),
(400,325,o),
(400,325,o),
(300,325,c),
(300,325,o),
(250,325,o),
(250,325,c),
(209,325,o),
(167,325,o),
(125,325,c),
(25,325,o),
(25,325,o),
(25,225,c),
(25,184,o),
(25,142,o),
(25,100,c),
(25,0,o),
(25,0,o),
(125,0,c)
);
}
);
width = 750;
},
{
layerId = "97FA09B7-861C-4A63-ABF9-29244986920C";
shapes = (
{
closed = 1;
nodes = (
(259,0,o),
(392,0,o),
(525,0,c),
(625,0,o),
(725,100,o),
(725,200,c),
(725,334,o),
(725,467,o),
(725,600,c),
(725,700,o),
(725,700,o),
(625,700,c),
(617,700,o),
(608,700,o),
(600,700,c),
(500,700,o),
(500,700,o),
(500,600,c),
(500,559,o),
(500,517,o),
(500,475,c),
(500,475,o),
(500,425,o),
(500,425,c),
(500,325,o),
(500,325,o),
(400,325,c),
(400,325,o),
(350,325,o),
(350,325,c),
(275,325,o),
(200,325,o),
(125,325,c),
(25,325,o),
(25,325,o),
(25,225,c),
(25,184,o),
(25,142,o),
(25,100,c),
(25,0,o),
(25,0,o),
(125,0,c)
);
}
);
width = 750;
},
{
layerId = "73DF1801-42CB-4FE2-B370-82821562EC7A";
shapes = (
{
closed = 1;
nodes = (
(259,0,o),
(392,0,o),
(525,0,c),
(625,0,o),
(725,100,o),
(725,200,c),
(725,334,o),
(725,467,o),
(725,600,c),
(725,700,o),
(725,700,o),
(625,700,c),
(584,700,o),
(542,700,o),
(500,700,c),
(400,700,o),
(400,700,o),
(400,600,c),
(400,525,o),
(400,450,o),
(400,375,c),
(400,375,o),
(400,325,o),
(400,325,c),
(400,225,o),
(400,225,o),
(300,225,c),
(300,225,o),
(250,225,o),
(250,225,c),
(209,225,o),
(167,225,o),
(125,225,c),
(25,225,o),
(25,225,o),
(25,125,c),
(25,117,o),
(25,108,o),
(25,100,c),
(25,0,o),
(25,0,o),
(125,0,c)
);
}
);
width = 750;
},
{
layerId = "7255AB37-F0AF-404B-B2C0-BE0CDFEFD522";
shapes = (
{
closed = 1;
nodes = (
(259,0,o),
(392,0,o),
(525,0,c),
(592,67,o),
(658,133,o),
(725,200,c),
(725,334,o),
(725,467,o),
(725,600,c),
(692,634,o),
(658,667,o),
(625,700,c),
(584,700,o),
(542,700,o),
(500,700,c),
(467,667,o),
(433,633,o),
(400,600,c),
(400,559,o),
(400,517,o),
(400,475,c),
(400,459,o),
(400,442,o),
(400,425,c),
(367,392,o),
(333,358,o),
(300,325,c),
(284,325,o),
(267,325,o),
(250,325,c),
(209,325,o),
(167,325,o),
(125,325,c),
(92,292,o),
(58,258,o),
(25,225,c),
(25,184,o),
(25,142,o),
(25,100,c),
(59,67,o),
(92,33,o),
(125,0,c)
);
}
);
width = 750;
},
{
layerId = "2D1336F4-505A-45CB-96E0-1A391A104589";
shapes = (
{
closed = 1;
nodes = (
(259,0,o),
(392,0,o),
(525,0,c),
(592,67,o),
(658,133,o),
(725,200,c),
(725,334,o),
(725,467,o),
(725,600,c),
(692,634,o),
(658,667,o),
(625,700,c),
(617,700,o),
(608,700,o),
(600,700,c),
(567,667,o),
(533,633,o),
(500,600,c),
(500,559,o),
(500,517,o),
(500,475,c),
(500,459,o),
(500,442,o),
(500,425,c),
(467,392,o),
(433,358,o),
(400,325,c),
(384,325,o),
(367,325,o),
(350,325,c),
(275,325,o),
(200,325,o),
(125,325,c),
(92,292,o),
(58,258,o),
(25,225,c),
(25,184,o),
(25,142,o),
(25,100,c),
(59,67,o),
(92,33,o),
(125,0,c)
);
}
);
width = 750;
},
{
layerId = "28F6F6CF-6CF1-4298-BBDC-1B578C225890";
shapes = (
{
closed = 1;
nodes = (
(259,0,o),
(392,0,o),
(525,0,c),
(592,67,o),
(658,133,o),
(725,200,c),
(725,334,o),
(725,467,o),
(725,600,c),
(692,634,o),
(658,667,o),
(625,700,c),
(584,700,o),
(542,700,o),
(500,700,c),
(467,667,o),
(433,633,o),
(400,600,c),
(400,525,o),
(400,450,o),
(400,375,c),
(400,359,o),
(400,342,o),
(400,325,c),
(367,292,o),
(333,258,o),
(300,225,c),
(284,225,o),
(267,225,o),
(250,225,c),
(209,225,o),
(167,225,o),
(125,225,c),
(92,192,o),
(58,158,o),
(25,125,c),
(25,117,o),
(25,108,o),
(25,100,c),
(59,67,o),
(92,33,o),
(125,0,c)
);
}
);
width = 750;
},
{
layerId = "66BFC9E6-1952-4B87-BF6C-C5A8A5CAFA4D";
shapes = (
{
closed = 1;
nodes = (
(259,0,o),
(392,0,o),
(525,0,c),
(592,67,o),
(658,133,o),
(725,200,c),
(725,334,o),
(725,467,o),
(725,600,c),
(692,634,o),
(658,667,o),
(625,700,c),
(584,700,o),
(542,700,o),
(500,700,c),
(467,667,o),
(433,633,o),
(400,600,c),
(400,559,o),
(400,517,o),
(400,475,c),
(417,434,o),
(433,392,o),
(450,350,c),
(425,325,o),
(400,300,o),
(375,275,c),
(334,292,o),
(292,308,o),
(250,325,c),
(209,325,o),
(167,325,o),
(125,325,c),
(92,292,o),
(58,258,o),
(25,225,c),
(25,184,o),
(25,142,o),
(25,100,c),
(59,67,o),
(92,33,o),
(125,0,c)
);
}
);
width = 750;
},
{
layerId = "5D199366-843B-4174-BE1F-6720719AACE9";
shapes = (
{
closed = 1;
nodes = (
(367,0,o),
(383,0,o),
(400,0,c),
(509,67,o),
(617,133,o),
(725,200,c),
(725,334,o),
(725,467,o),
(725,600,c),
(650,634,o),
(575,667,o),
(500,700,c),
(484,700,o),
(467,700,o),
(450,700,c),
(434,667,o),
(417,633,o),
(400,600,c),
(400,565,o),
(400,530,o),
(400,495,c),
(475,447,o),
(550,398,o),
(625,350,c),
(542,317,o),
(458,283,o),
(375,250,c),
(292,275,o),
(208,300,o),
(125,325,c),
(109,325,o),
(92,325,o),
(75,325,c),
(59,292,o),
(42,258,o),
(25,225,c),
(25,184,o),
(25,142,o),
(25,100,c),
(134,67,o),
(242,33,o),
(350,0,c)
);
}
);
width = 750;
},
{
layerId = "C9F343FC-F72A-4E5E-9438-E02DE7AFC5D3";
shapes = (
{
closed = 1;
nodes = (
(259,0,o),
(392,0,o),
(525,0,c),
(592,109,o),
(658,217,o),
(725,325,c),
(725,342,o),
(725,358,o),
(725,375,c),
(692,484,o),
(658,592,o),
(625,700,c),
(584,700,o),
(542,700,o),
(500,700,c),
(467,684,o),
(433,667,o),
(400,650,c),
(400,634,o),
(400,617,o),
(400,600,c),
(417,517,o),
(433,433,o),
(450,350,c),
(425,259,o),
(400,167,o),
(375,75,c),
(334,159,o),
(292,242,o),
(250,325,c),
(209,325,o),
(167,325,o),
(125,325,c),
(92,309,o),
(58,292,o),
(25,275,c),
(25,259,o),
(25,242,o),
(25,225,c),
(59,150,o),
(92,75,o),
(125,0,c)
);
}
);
width = 750;
}
);
unicode = (74,106);
},
{
glyphname = K;
lastChange = "2022-12-19 02:37:31 +0000";
layers = (
{
layerId = m01;
shapes = (
{
closed = 1;
nodes = (
(167,0,o),
(208,0,o),
(250,0,c),
(350,0,o),
(350,0,o),
(350,100,c),
(350,225,o),
(300,100,o),
(300,225,c),
(300,299,o),
(350,300,o),
(375,300,c),
(400,300,o),
(450,300,o),
(450,225,c),
(450,100,o),
(400,225,o),
(400,100,c),
(400,0,o),
(400,0,o),
(500,0,c),
(542,0,o),
(583,0,o),
(625,0,c),
(725,0,o),
(725,100,o),
(725,200,c),
(725,350,o),
(625,225,o),
(625,350,c),
(625,475,o),
(725,350,o),
(725,500,c),
(725,600,o),
(725,700,o),
(625,700,c),
(584,700,o),
(542,700,o),
(500,700,c),
(400,700,o),
(400,700,o),
(400,600,c),
(400,475,o),
(450,600,o),
(450,475,c),
(450,400,o),
(400,400,o),
(375,400,c),
(350,400,o),
(300,401,o),
(300,475,c),
(300,600,o),
(350,475,o),
(350,600,c),
(350,700,o),
(350,700,o),
(250,700,c),
(209,700,o),
(167,700,o),
(125,700,c),
(25,700,o),
(25,700,o),
(25,600,c),
(25,434,o),
(25,267,o),
(25,100,c),
(25,0,o),
(25,0,o),
(125,0,c)
);
}
);
width = 750;
},
{
layerId = "3FB0BBD1-C623-48BB-B11C-478BB36E1931";
shapes = (
{
closed = 1;
nodes = (
(267,0,o),
(283,0,o),
(300,0,c),
(350,0,o),
(350,0,o),
(350,100,c),
(350,225,o),
(125,100,o),
(125,225,c),
(125,299,o),
(325,300,o),
(375,300,c),
(425,300,o),
(625,300,o),
(625,225,c),
(625,100,o),
(400,225,o),
(400,100,c),
(400,0,o),
(400,0,o),
(450,0,c),
(467,0,o),
(483,0,o),
(500,0,c),
(575,0,o),
(725,0,o),
(725,225,c),
(725,350,o),
(575,275,o),
(575,350,c),
(575,425,o),
(725,350,o),
(725,475,c),
(725,700,o),
(575,700,o),
(500,700,c),
(484,700,o),
(467,700,o),
(450,700,c),
(400,700,o),
(400,700,o),
(400,600,c),
(400,475,o),
(625,600,o),
(625,475,c),
(625,400,o),
(425,400,o),
(375,400,c),
(325,400,o),
(125,401,o),
(125,475,c),
(125,600,o),
(350,475,o),
(350,600,c),
(350,700,o),
(350,700,o),
(300,700,c),
(284,700,o),
(267,700,o),
(250,700,c),
(175,700,o),
(25,700,o),
(25,600,c),
(25,434,o),
(25,267,o),
(25,100,c),
(25,0,o),
(175,0,o),
(250,0,c)
);
}
);
width = 750;
},
{
layerId = "D19652E7-EFD0-4E4C-BF76-3B076A5B34BC";
shapes = (
{
closed = 1;
nodes = (
(167,0,o),
(208,0,o),
(250,0,c),
(350,0,o),
(350,0,o),
(350,50,c),
(350,110,o),
(300,90,o),
(300,200,c),
(300,325,o),
(350,325,o),
(375,325,c),
(400,325,o),
(450,326,o),
(450,200,c),
(450,90,o),
(400,110,o),
(400,50,c),
(400,0,o),
(400,0,o),
(500,0,c),
(525,0,o),
(550,0,o),
(575,0,c),
(675,0,o),
(725,75,o),
(725,175,c),
(725,325,o),
(625,175,o),
(625,350,c),
(625,525,o),
(725,375,o),
(725,525,c),
(725,625,o),
(675,700,o),
(575,700,c),
(550,700,o),
(525,700,o),
(500,700,c),
(400,700,o),
(400,700,o),
(400,650,c),
(400,590,o),
(450,610,o),
(450,500,c),
(450,374,o),
(400,375,o),
(375,375,c),
(350,375,o),
(300,375,o),
(300,500,c),
(300,610,o),
(350,590,o),
(350,650,c),
(350,700,o),
(350,700,o),
(250,700,c),
(209,700,o),
(167,700,o),
(125,700,c),
(25,700,o),
(25,475,o),
(25,375,c),
(25,359,o),
(25,342,o),
(25,325,c),
(25,225,o),
(25,0,o),
(125,0,c)
);
}
);
width = 750;
},
{
background = {
shapes = (
{
closed = 1;
nodes = (
(25,700,o),
(25,700,o),
(25,600,c),
(25,100,l),
(25,0,o),
(25,0,o),
(125,0,c),
(250,0,l),
(300,0,o),
(300,0,o),
(300,50,c),
(300,50,o),
(300,75,o),
(300,75,c),
(300,149,o),
(350,150,o),
(375,150,c),
(400,150,o),
(450,150,o),
(450,75,c),
(450,75,o),
(450,50,o),
(450,50,c),
(450,0,o),
(450,0,o),
(500,0,c),
(625,0,l),
(725,0,o),
(725,0,o),
(725,100,c),
(725,600,l),
(725,700,o),
(725,700,o),
(625,700,c),
(500,700,l),
(450,700,o),
(450,700,o),
(450,650,c),
(450,650,o),
(450,625,o),
(450,625,c),
(450,550,o),
(400,550,o),
(375,550,c),
(350,550,o),
(300,551,o),
(300,625,c),
(300,625,o),
(300,650,o),
(300,650,c),
(300,700,o),
(300,700,o),
(250,700,c),
(125,700,l)
);
}
);
};
layerId = "19B082C2-3429-47B4-A4D8-F059340FFD3C";
shapes = (
{
closed = 1;
nodes = (
(167,0,o),
(208,0,o),
(250,0,c),
(300,0,o),
(300,0,o),
(300,50,c),
(300,50,o),
(300,75,o),
(300,75,c),
(300,149,o),
(350,150,o),
(375,150,c),
(400,150,o),
(450,150,o),
(450,75,c),
(450,75,o),
(450,50,o),
(450,50,c),
(450,0,o),
(450,0,o),
(500,0,c),
(542,0,o),
(583,0,o),
(625,0,c),
(725,0,o),
(725,100,o),
(725,200,c),
(725,350,o),
(625,225,o),
(625,350,c),
(625,475,o),
(725,350,o),
(725,500,c),
(725,600,o),
(725,700,o),
(625,700,c),
(584,700,o),
(542,700,o),
(500,700,c),
(450,700,o),
(450,700,o),
(450,650,c),
(450,650,o),
(450,625,o),
(450,625,c),
(450,550,o),
(400,550,o),
(375,550,c),
(350,550,o),
(300,551,o),
(300,625,c),
(300,625,o),
(300,650,o),
(300,650,c),
(300,700,o),
(300,700,o),
(250,700,c),
(209,700,o),
(167,700,o),
(125,700,c),
(25,700,o),
(25,700,o),
(25,600,c),
(25,434,o),
(25,267,o),
(25,100,c),
(25,0,o),
(25,0,o),
(125,0,c)
);
}
);
width = 750;
},
{
layerId = "97FA09B7-861C-4A63-ABF9-29244986920C";
shapes = (
{
closed = 1;
nodes = (
(150,0,o),
(175,0,o),
(200,0,c),
(250,0,o),
(265,2,o),
(274,35,c),
(274,35,o),
(280,60,o),
(280,60,c),
(290,97,o),
(325,100,o),
(375,100,c),
(425,100,o),
(457,98,o),
(468,60,c),
(468,60,o),
(474,35,o),
(474,35,c),
(483,2,o),
(500,0,o),
(550,0,c),
(575,0,o),
(600,0,o),
(625,0,c),
(725,0,o),
(725,100,o),
(725,200,c),
(725,350,o),
(550,225,o),
(550,350,c),
(550,475,o),
(725,350,o),
(725,500,c),
(725,600,o),
(725,700,o),
(625,700,c),
(600,700,o),
(575,700,o),
(550,700,c),
(500,700,o),
(484,698,o),
(475,665,c),
(475,665,o),
(469,640,o),
(469,640,c),
(458,602,o),
(425,600,o),
(375,600,c),
(325,600,o),
(291,603,o),
(281,640,c),
(281,640,o),
(275,665,o),
(275,665,c),
(266,698,o),
(250,700,o),
(200,700,c),
(175,700,o),
(150,700,o),
(125,700,c),
(25,700,o),
(25,700,o),
(25,600,c),
(25,434,o),
(25,267,o),
(25,100,c),
(25,0,o),
(25,0,o),
(125,0,c)
);
}
);
width = 750;
},
{
layerId = "73DF1801-42CB-4FE2-B370-82821562EC7A";
shapes = (
{
closed = 1;
nodes = (
(167,0,o),
(208,0,o),
(250,0,c),
(300,0,o),
(300,0,o),
(300,50,c),
(300,50,o),
(300,225,o),
(300,225,c),
(300,299,o),
(350,300,o),
(375,300,c),
(400,300,o),
(450,300,o),
(450,225,c),
(450,225,o),
(450,50,o),
(450,50,c),
(450,0,o),
(450,0,o),
(500,0,c),
(542,0,o),
(583,0,o),
(625,0,c),
(725,0,o),
(725,75,o),
(725,175,c),
(725,325,o),
(625,175,o),
(625,350,c),
(625,525,o),
(725,375,o),
(725,525,c),
(725,625,o),
(725,700,o),
(625,700,c),
(584,700,o),
(542,700,o),
(500,700,c),
(450,700,o),
(450,700,o),
(450,650,c),
(450,650,o),
(450,475,o),
(450,475,c),
(450,400,o),
(400,400,o),
(375,400,c),
(350,400,o),
(300,401,o),
(300,475,c),
(300,475,o),
(300,650,o),
(300,650,c),
(300,700,o),
(300,700,o),
(250,700,c),
(209,700,o),
(167,700,o),
(125,700,c),
(25,700,o),
(25,700,o),
(25,600,c),
(25,434,o),
(25,267,o),
(25,100,c),
(25,0,o),
(25,0,o),
(125,0,c)
);
}
);
width = 750;
},
{
layerId = "7255AB37-F0AF-404B-B2C0-BE0CDFEFD522";
shapes = (
{
closed = 1;
nodes = (
(167,0,o),
(208,0,o),
(250,0,c),
(267,17,o),
(283,33,o),
(300,50,c),
(300,59,o),
(300,67,o),
(300,75,c),
(325,100,o),
(350,125,o),
(375,150,c),
(400,125,o),
(425,100,o),
(450,75,c),
(450,67,o),
(450,58,o),
(450,50,c),
(467,34,o),
(483,17,o),
(500,0,c),
(542,0,o),
(583,0,o),
(625,0,c),
(659,67,o),
(692,133,o),
(725,200,c),
(692,250,o),
(658,300,o),
(625,350,c),
(659,400,o),
(692,450,o),
(725,500,c),
(692,567,o),
(658,633,o),
(625,700,c),
(584,700,o),
(542,700,o),
(500,700,c),
(484,684,o),
(467,667,o),
(450,650,c),
(450,642,o),
(450,633,o),
(450,625,c),
(425,600,o),
(400,575,o),
(375,550,c),
(350,575,o),
(325,600,o),
(300,625,c),
(300,634,o),
(300,642,o),
(300,650,c),
(284,667,o),
(267,683,o),
(250,700,c),
(209,700,o),
(167,700,o),
(125,700,c),
(92,667,o),
(58,633,o),
(25,600,c),
(25,434,o),
(25,267,o),
(25,100,c),
(59,67,o),
(92,33,o),
(125,0,c)
);
}
);
width = 750;
},
{
layerId = "2D1336F4-505A-45CB-96E0-1A391A104589";
shapes = (
{
closed = 1;
nodes = (
(150,0,o),
(175,0,o),
(200,0,c),
(225,12,o),
(249,23,o),
(274,35,c),
(276,44,o),
(278,52,o),
(280,60,c),
(312,74,o),
(343,87,o),
(375,100,c),
(406,87,o),
(437,73,o),
(468,60,c),
(470,52,o),
(472,43,o),
(474,35,c),
(500,24,o),
(525,12,o),
(550,0,c),
(575,0,o),
(600,0,o),
(625,0,c),
(659,67,o),
(692,133,o),
(725,200,c),
(667,250,o),
(608,300,o),
(550,350,c),
(609,400,o),
(667,450,o),
(725,500,c),
(692,567,o),
(658,633,o),
(625,700,c),
(600,700,o),
(575,700,o),
(550,700,c),
(525,689,o),
(500,677,o),
(475,665,c),
(473,657,o),
(471,648,o),
(469,640,c),
(438,627,o),
(406,613,o),
(375,600,c),
(344,614,o),
(312,627,o),
(281,640,c),
(279,649,o),
(277,657,o),
(275,665,c),
(250,677,o),
(225,688,o),
(200,700,c),
(175,700,o),
(150,700,o),
(125,700,c),
(92,667,o),
(58,633,o),
(25,600,c),
(25,434,o),
(25,267,o),
(25,100,c),
(59,67,o),
(92,33,o),
(125,0,c)
);
}
);
width = 750;
},
{
layerId = "28F6F6CF-6CF1-4298-BBDC-1B578C225890";
shapes = (
{
closed = 1;
nodes = (
(167,0,o),
(208,0,o),
(250,0,c),
(267,17,o),
(283,33,o),
(300,50,c),
(300,109,o),
(300,167,o),
(300,225,c),
(325,250,o),
(350,275,o),
(375,300,c),
(400,275,o),
(425,250,o),
(450,225,c),
(450,167,o),
(450,108,o),
(450,50,c),
(467,34,o),
(483,17,o),
(500,0,c),
(542,0,o),
(583,0,o),
(625,0,c),
(659,59,o),
(692,117,o),
(725,175,c),
(692,234,o),
(658,292,o),
(625,350,c),
(659,409,o),
(692,467,o),
(725,525,c),
(692,584,o),
(658,642,o),
(625,700,c),
(584,700,o),
(542,700,o),
(500,700,c),
(484,684,o),
(467,667,o),
(450,650,c),
(450,592,o),
(450,533,o),
(450,475,c),
(425,450,o),
(400,425,o),
(375,400,c),
(350,425,o),
(325,450,o),
(300,475,c),
(300,534,o),
(300,592,o),
(300,650,c),
(284,667,o),
(267,683,o),
(250,700,c),
(209,700,o),
(167,700,o),
(125,700,c),
(92,667,o),
(58,633,o),
(25,600,c),
(25,434,o),
(25,267,o),
(25,100,c),
(59,67,o),
(92,33,o),
(125,0,c)
);
}
);
width = 750;
},
{
layerId = "66BFC9E6-1952-4B87-BF6C-C5A8A5CAFA4D";
shapes = (
{
closed = 1;
nodes = (
(167,0,o),
(208,0,o),
(250,0,c),
(284,34,o),
(317,67,o),
(350,100,c),
(334,142,o),
(317,183,o),
(300,225,c),
(325,250,o),
(350,275,o),
(375,300,c),
(400,275,o),
(425,250,o),
(450,225,c),
(434,184,o),
(417,142,o),
(400,100,c),
(434,67,o),
(467,33,o),
(500,0,c),
(542,0,o),
(583,0,o),
(625,0,c),
(659,67,o),
(692,133,o),
(725,200,c),
(692,250,o),
(658,300,o),
(625,350,c),
(659,400,o),
(692,450,o),
(725,500,c),
(692,567,o),
(658,633,o),
(625,700,c),
(584,700,o),
(542,700,o),
(500,700,c),
(467,667,o),
(433,633,o),
(400,600,c),
(417,559,o),
(433,517,o),
(450,475,c),
(425,450,o),
(400,425,o),
(375,400,c),
(350,425,o),
(325,450,o),
(300,475,c),
(317,517,o),
(333,558,o),
(350,600,c),
(317,634,o),
(283,667,o),
(250,700,c),
(209,700,o),
(167,700,o),
(125,700,c),
(92,667,o),
(58,633,o),
(25,600,c),
(25,434,o),
(25,267,o),
(25,100,c),
(59,67,o),
(92,33,o),
(125,0,c)
);
}
);
width = 750;
},
{
layerId = "5D199366-843B-4174-BE1F-6720719AACE9";
shapes = (
{
closed = 1;
nodes = (
(267,0,o),
(283,0,o),
(300,0,c),
(317,34,o),
(333,67,o),
(350,100,c),
(275,142,o),
(200,183,o),
(125,225,c),
(209,250,o),
(292,275,o),
(375,300,c),
(459,275,o),
(542,250,o),
(625,225,c),
(550,184,o),
(475,142,o),
(400,100,c),
(417,67,o),
(433,33,o),
(450,0,c),
(467,0,o),
(483,0,o),
(500,0,c),
(575,75,o),
(650,150,o),
(725,225,c),
(675,267,o),
(625,308,o),
(575,350,c),
(625,392,o),
(675,433,o),
(725,475,c),
(650,550,o),
(575,625,o),
(500,700,c),
(484,700,o),
(467,700,o),
(450,700,c),
(434,667,o),
(417,633,o),
(400,600,c),
(475,559,o),
(550,517,o),
(625,475,c),
(542,450,o),
(458,425,o),
(375,400,c),
(292,425,o),
(208,450,o),
(125,475,c),
(200,517,o),
(275,558,o),
(350,600,c),
(334,634,o),
(317,667,o),
(300,700,c),
(284,700,o),
(267,700,o),
(250,700,c),
(175,667,o),
(100,633,o),
(25,600,c),
(25,434,o),
(25,267,o),
(25,100,c),
(100,67,o),
(175,33,o),
(250,0,c)
);
}
);
width = 750;
},
{
layerId = "C9F343FC-F72A-4E5E-9438-E02DE7AFC5D3";
shapes = (
{
closed = 1;
nodes = (
(167,0,o),
(208,0,o),
(250,0,c),
(284,17,o),
(317,33,o),
(350,50,c),
(334,100,o),
(317,150,o),
(300,200,c),
(325,242,o),
(350,283,o),
(375,325,c),
(400,284,o),
(425,242,o),
(450,200,c),
(434,150,o),
(417,100,o),
(400,50,c),
(434,34,o),
(467,17,o),
(500,0,c),
(525,0,o),
(550,0,o),
(575,0,c),
(625,59,o),
(675,117,o),
(725,175,c),
(692,234,o),
(658,292,o),
(625,350,c),
(659,409,o),
(692,467,o),
(725,525,c),
(675,584,o),
(625,642,o),
(575,700,c),
(550,700,o),
(525,700,o),
(500,700,c),
(467,684,o),
(433,667,o),
(400,650,c),
(417,600,o),
(433,550,o),
(450,500,c),
(425,459,o),
(400,417,o),
(375,375,c),
(350,417,o),
(325,458,o),
(300,500,c),
(317,550,o),
(333,600,o),
(350,650,c),
(317,667,o),
(283,683,o),
(250,700,c),
(209,700,o),
(167,700,o),
(125,700,c),
(92,592,o),
(58,483,o),
(25,375,c),
(25,359,o),
(25,342,o),
(25,325,c),
(59,217,o),
(92,108,o),
(125,0,c)
);
}
);
width = 750;
}
);
unicode = (75,107);
},
{
glyphname = L;
lastChange = "2022-12-19 02:19:01 +0000";
layers = (
{
layerId = m01;
shapes = (
{
closed = 1;
nodes = (
(292,0,o),
(458,0,o),
(625,0,c),
(725,0,o),
(725,0,o),
(725,100,c),
(725,142,o),
(725,183,o),
(725,225,c),
(725,325,o),
(725,325,o),
(625,325,c),
(584,325,o),
(542,325,o),
(500,325,c),
(375,325,o),
(500,275,o),
(375,275,c),
(325,275,o),
(300,300,o),
(300,350,c),
(300,475,o),
(350,350,o),
(350,475,c),
(350,517,o),
(350,558,o),
(350,600,c),
(350,700,o),
(350,700,o),
(250,700,c),
(209,700,o),
(167,700,o),
(125,700,c),
(25,700,o),
(25,700,o),
(25,600,c),
(25,434,o),
(25,267,o),
(25,100,c),
(25,0,o),
(25,0,o),
(125,0,c)
);
}
);
width = 750;
},
{
layerId = "3FB0BBD1-C623-48BB-B11C-478BB36E1931";
shapes = (
{
closed = 1;
nodes = (
(367,0,o),
(383,0,o),
(400,0,c),
(500,0,o),
(725,0,o),
(725,100,c),
(725,142,o),
(725,183,o),
(725,225,c),
(725,325,o),
(725,325,o),
(675,325,c),
(659,325,o),
(642,325,o),
(625,325,c),
(550,325,o),
(600,250,o),
(375,250,c),
(125,250,o),
(125,300,o),
(125,350,c),
(125,470,o),
(350,375,o),
(350,500,c),
(350,534,o),
(350,567,o),
(350,600,c),
(350,700,o),
(350,700,o),
(300,700,c),
(284,700,o),
(267,700,o),
(250,700,c),
(175,700,o),
(25,700,o),
(25,600,c),
(25,434,o),
(25,267,o),
(25,100,c),
(25,0,o),
(250,0,o),
(350,0,c)
);
}
);
width = 750;
},
{
layerId = "D19652E7-EFD0-4E4C-BF76-3B076A5B34BC";
shapes = (
{
closed = 1;
nodes = (
(292,0,o),
(458,0,o),
(625,0,c),
(725,0,o),
(725,125,o),
(725,225,c),
(725,242,o),
(725,258,o),
(725,275,c),
(725,325,o),
(725,325,o),
(625,325,c),
(584,325,o),
(542,325,o),
(500,325,c),
(375,325,o),
(500,75,o),
(375,75,c),
(300,75,o),
(300,300,o),
(300,350,c),
(300,575,o),
(350,525,o),
(350,600,c),
(350,617,o),
(350,633,o),
(350,650,c),
(350,700,o),
(350,700,o),
(250,700,c),
(209,700,o),
(167,700,o),
(125,700,c),
(25,700,o),
(25,475,o),
(25,375,c),
(25,359,o),
(25,342,o),
(25,325,c),
(25,225,o),
(25,0,o),
(125,0,c)
);
}
);
width = 750;
},
{
layerId = "19B082C2-3429-47B4-A4D8-F059340FFD3C";
shapes = (
{
closed = 1;
nodes = (
(292,0,o),
(458,0,o),
(625,0,c),
(725,0,o),
(725,0,o),
(725,100,c),
(725,142,o),
(725,183,o),
(725,225,c),
(725,325,o),
(725,325,o),
(625,325,c),
(584,325,o),
(542,325,o),
(500,325,c),
(500,325,o),
(450,325,o),
(450,325,c),
(350,325,o),
(350,325,o),
(350,425,c),
(350,425,o),
(350,475,o),
(350,475,c),
(350,517,o),
(350,558,o),
(350,600,c),
(350,700,o),
(350,700,o),
(250,700,c),
(209,700,o),
(167,700,o),
(125,700,c),
(25,700,o),
(25,700,o),
(25,600,c),
(25,434,o),
(25,267,o),
(25,100,c),
(25,0,o),
(25,0,o),
(125,0,c)
);
}
);
width = 750;
},
{
layerId = "97FA09B7-861C-4A63-ABF9-29244986920C";
shapes = (
{
closed = 1;
nodes = (
(292,0,o),
(458,0,o),
(625,0,c),
(725,0,o),
(725,0,o),
(725,100,c),
(725,142,o),
(725,183,o),
(725,225,c),
(725,325,o),
(725,325,o),
(625,325,c),
(550,325,o),
(475,325,o),
(400,325,c),
(400,325,o),
(350,325,o),
(350,325,c),
(250,325,o),
(250,325,o),
(250,425,c),
(250,425,o),
(250,475,o),
(250,475,c),
(250,517,o),
(250,558,o),
(250,600,c),
(250,700,o),
(250,700,o),
(150,700,c),
(142,700,o),
(133,700,o),
(125,700,c),
(25,700,o),
(25,700,o),
(25,600,c),
(25,434,o),
(25,267,o),
(25,100,c),
(25,0,o),
(25,0,o),
(125,0,c)
);
}
);
width = 750;
},
{
layerId = "73DF1801-42CB-4FE2-B370-82821562EC7A";
shapes = (
{
closed = 1;
nodes = (
(292,0,o),
(458,0,o),
(625,0,c),
(725,0,o),
(725,0,o),
(725,100,c),
(725,109,o),
(725,117,o),
(725,125,c),
(725,225,o),
(725,225,o),
(625,225,c),
(584,225,o),
(542,225,o),
(500,225,c),
(500,225,o),
(450,225,o),
(450,225,c),
(350,225,o),
(350,225,o),
(350,325,c),
(350,325,o),
(350,375,o),
(350,375,c),
(350,450,o),
(350,525,o),
(350,600,c),
(350,700,o),
(350,700,o),
(250,700,c),
(209,700,o),
(167,700,o),
(125,700,c),
(25,700,o),
(25,700,o),
(25,600,c),
(25,434,o),
(25,267,o),
(25,100,c),
(25,0,o),
(25,0,o),
(125,0,c)
);
}
);
width = 750;
},
{
layerId = "7255AB37-F0AF-404B-B2C0-BE0CDFEFD522";
shapes = (
{
closed = 1;
nodes = (
(292,0,o),
(458,0,o),
(625,0,c),
(659,34,o),
(692,67,o),
(725,100,c),
(725,142,o),
(725,183,o),
(725,225,c),
(692,259,o),
(658,292,o),
(625,325,c),
(584,325,o),
(542,325,o),
(500,325,c),
(484,325,o),
(467,325,o),
(450,325,c),
(417,359,o),
(383,392,o),
(350,425,c),
(350,442,o),
(350,458,o),
(350,475,c),
(350,517,o),
(350,558,o),
(350,600,c),
(317,634,o),
(283,667,o),
(250,700,c),
(209,700,o),
(167,700,o),
(125,700,c),
(92,667,o),
(58,633,o),
(25,600,c),
(25,434,o),
(25,267,o),
(25,100,c),
(59,67,o),
(92,33,o),
(125,0,c)
);
}
);
width = 750;
},
{
layerId = "2D1336F4-505A-45CB-96E0-1A391A104589";
shapes = (
{
closed = 1;
nodes = (
(292,0,o),
(458,0,o),
(625,0,c),
(659,34,o),
(692,67,o),
(725,100,c),
(725,142,o),
(725,183,o),
(725,225,c),
(692,259,o),
(658,292,o),
(625,325,c),
(550,325,o),
(475,325,o),
(400,325,c),
(384,325,o),
(367,325,o),
(350,325,c),
(317,359,o),
(283,392,o),
(250,425,c),
(250,442,o),
(250,458,o),
(250,475,c),
(250,517,o),
(250,558,o),
(250,600,c),
(217,634,o),
(183,667,o),
(150,700,c),
(142,700,o),
(133,700,o),
(125,700,c),
(92,667,o),
(58,633,o),
(25,600,c),
(25,434,o),
(25,267,o),
(25,100,c),
(59,67,o),
(92,33,o),
(125,0,c)
);
}
);
width = 750;
},
{
layerId = "28F6F6CF-6CF1-4298-BBDC-1B578C225890";
shapes = (
{
closed = 1;
nodes = (
(292,0,o),
(458,0,o),
(625,0,c),
(659,34,o),
(692,67,o),
(725,100,c),
(725,109,o),
(725,117,o),
(725,125,c),
(692,159,o),
(658,192,o),
(625,225,c),
(584,225,o),
(542,225,o),
(500,225,c),
(484,225,o),
(467,225,o),
(450,225,c),
(417,259,o),
(383,292,o),
(350,325,c),
(350,342,o),
(350,358,o),
(350,375,c),
(350,450,o),
(350,525,o),
(350,600,c),
(317,634,o),
(283,667,o),
(250,700,c),
(209,700,o),
(167,700,o),
(125,700,c),
(92,667,o),
(58,633,o),
(25,600,c),
(25,434,o),
(25,267,o),
(25,100,c),
(59,67,o),
(92,33,o),
(125,0,c)
);
}
);
width = 750;
},
{
layerId = "66BFC9E6-1952-4B87-BF6C-C5A8A5CAFA4D";
shapes = (
{
closed = 1;
nodes = (
(292,0,o),
(458,0,o),
(625,0,c),
(659,34,o),
(692,67,o),
(725,100,c),
(725,142,o),
(725,183,o),
(725,225,c),
(692,259,o),
(658,292,o),
(625,325,c),
(584,325,o),
(542,325,o),
(500,325,c),
(459,309,o),
(417,292,o),
(375,275,c),
(350,300,o),
(325,325,o),
(300,350,c),
(317,392,o),
(333,433,o),
(350,475,c),
(350,517,o),
(350,558,o),
(350,600,c),
(317,634,o),
(283,667,o),
(250,700,c),
(209,700,o),
(167,700,o),
(125,700,c),
(92,667,o),
(58,633,o),
(25,600,c),
(25,434,o),
(25,267,o),
(25,100,c),
(59,67,o),
(92,33,o),
(125,0,c)
);
}
);
width = 750;
},
{
layerId = "5D199366-843B-4174-BE1F-6720719AACE9";
shapes = (
{
closed = 1;
nodes = (
(367,0,o),
(383,0,o),
(400,0,c),
(509,34,o),
(617,67,o),
(725,100,c),
(725,142,o),
(725,183,o),
(725,225,c),
(709,259,o),
(692,292,o),
(675,325,c),
(659,325,o),
(642,325,o),
(625,325,c),
(542,300,o),
(458,275,o),
(375,250,c),
(292,284,o),
(208,317,o),
(125,350,c),
(200,400,o),
(275,450,o),
(350,500,c),
(350,534,o),
(350,567,o),
(350,600,c),
(334,634,o),
(317,667,o),
(300,700,c),
(284,700,o),
(267,700,o),
(250,700,c),
(175,667,o),
(100,633,o),
(25,600,c),
(25,434,o),
(25,267,o),
(25,100,c),
(134,67,o),
(242,33,o),
(350,0,c)
);
}
);
width = 750;
},
{
layerId = "C9F343FC-F72A-4E5E-9438-E02DE7AFC5D3";
shapes = (
{
closed = 1;
nodes = (
(292,0,o),
(458,0,o),
(625,0,c),
(659,75,o),
(692,150,o),
(725,225,c),
(725,242,o),
(725,258,o),
(725,275,c),
(692,292,o),
(658,308,o),
(625,325,c),
(584,325,o),
(542,325,o),
(500,325,c),
(459,242,o),
(417,158,o),
(375,75,c),
(350,167,o),
(325,258,o),
(300,350,c),
(317,434,o),
(333,517,o),
(350,600,c),
(350,617,o),
(350,633,o),
(350,650,c),
(317,667,o),
(283,683,o),
(250,700,c),
(209,700,o),
(167,700,o),
(125,700,c),
(92,592,o),
(58,483,o),
(25,375,c),
(25,359,o),
(25,342,o),
(25,325,c),
(59,217,o),
(92,108,o),
(125,0,c)
);
}
);
width = 750;
}
);
unicode = (76,108);
},
{
glyphname = M;
lastChange = "2022-12-19 01:54:48 +0000";
layers = (
{
layerId = m01;
shapes = (
{
closed = 1;
nodes = (
(225,0,o),
(225,0,o),
(225,100,c),
(225,225,l),
(225,350,o),
(175,225,o),
(175,350,c),
(175,425,o),
(225,425,o),
(250,425,c),
(275,425,o),
(325,425,o),
(325,350,c),
(325,225,o),
(275,350,o),
(275,225,c),
(275,100,l),
(275,0,o),
(275,0,o),
(375,0,c),
(475,0,o),
(475,0,o),
(475,100,c),
(475,225,l),
(475,350,o),
(425,225,o),
(425,350,c),
(425,425,o),
(475,425,o),
(500,425,c),
(525,425,o),
(575,425,o),
(575,350,c),
(575,225,o),
(525,350,o),
(525,225,c),
(525,100,l),
(525,0,o),
(525,0,o),
(625,0,c),
(725,0,o),
(725,0,o),
(725,100,c),
(725,600,l),
(725,700,o),
(725,700,o),
(625,700,c),
(500,700,l),
(375,700,o),
(500,600,o),
(375,600,c),
(250,600,o),
(375,700,o),
(250,700,c),
(125,700,l),
(25,700,o),
(25,700,o),
(25,600,c),
(25,100,l),
(25,0,o),
(25,0,o),
(125,0,c)
);
}
);
width = 750;
},
{
layerId = "3FB0BBD1-C623-48BB-B11C-478BB36E1931";
shapes = (
{
closed = 1;
nodes = (
(225,0,o),
(225,0,o),
(225,100,c),
(225,215,l),
(225,340,o),
(125,215,o),
(125,350,c),
(125,435,o),
(215,435,o),
(240,435,c),
(265,435,o),
(340,435,o),
(340,350,c),
(340,215,o),
(275,340,o),
(275,215,c),
(275,100,l),
(275,0,o),
(275,0,o),
(375,0,c),
(475,0,o),
(475,0,o),
(475,100,c),
(475,215,l),
(475,340,o),
(410,215,o),
(410,350,c),
(410,435,o),
(490,435,o),
(515,435,c),
(540,435,o),
(625,435,o),
(625,350,c),
(625,215,o),
(525,340,o),
(525,215,c),
(525,100,l),
(525,0,o),
(525,0,o),
(550,0,c),
(575,0,o),
(725,0,o),
(725,100,c),
(725,600,l),
(725,700,o),
(625,700,o),
(575,700,c),
(525,700,l),
(400,700,o),
(525,600,o),
(375,600,c),
(225,600,o),
(350,700,o),
(225,700,c),
(175,700,l),
(125,700,o),
(25,700,o),
(25,600,c),
(25,100,l),
(25,0,o),
(175,0,o),
(200,0,c)
);
}
);
width = 750;
},
{
layerId = "D19652E7-EFD0-4E4C-BF76-3B076A5B34BC";
shapes = (
{
closed = 1;
nodes = (
(225,0,o),
(225,0,o),
(225,50,c),
(225,100,l),
(225,175,o),
(165,125,o),
(165,350,c),
(165,605,o),
(225,605,o),
(250,605,c),
(275,605,o),
(315,605,o),
(315,350,c),
(315,125,o),
(275,175,o),
(275,100,c),
(275,50,l),
(275,0,o),
(275,0,o),
(375,0,c),
(475,0,o),
(475,0,o),
(475,50,c),
(475,100,l),
(475,175,o),
(435,125,o),
(435,350,c),
(435,605,o),
(475,605,o),
(500,605,c),
(525,605,o),
(585,605,o),
(585,350,c),
(585,125,o),
(525,175,o),
(525,100,c),
(525,50,l),
(525,0,o),
(525,0,o),
(625,0,c),
(725,0,o),
(725,225,o),
(725,325,c),
(725,375,l),
(725,475,o),
(725,700,o),
(625,700,c),
(500,700,l),
(375,700,o),
(450,585,o),
(375,585,c),
(300,585,o),
(375,700,o),
(250,700,c),
(125,700,l),
(25,700,o),
(25,475,o),
(25,375,c),
(25,325,l),
(25,225,o),
(25,0,o),
(125,0,c)
);
}
);
width = 750;
},
{
layerId = "19B082C2-3429-47B4-A4D8-F059340FFD3C";
shapes = (
{
closed = 1;
nodes = (
(175,0,o),
(175,0,o),
(175,50,c),
(175,63,l),
(175,63,o),
(175,75,o),
(175,75,c),
(175,150,o),
(225,150,o),
(250,150,c),
(275,150,o),
(325,150,o),
(325,75,c),
(325,75,o),
(325,63,o),
(325,63,c),
(325,50,l),
(325,0,o),
(325,0,o),
(375,0,c),
(425,0,o),
(425,0,o),
(425,50,c),
(425,63,l),
(425,63,o),
(425,75,o),
(425,75,c),
(425,150,o),
(475,150,o),
(500,150,c),
(525,150,o),
(575,150,o),
(575,75,c),
(575,75,o),
(575,63,o),
(575,63,c),
(575,50,l),
(575,0,o),
(575,0,o),
(625,0,c),
(725,0,o),
(725,0,o),
(725,100,c),
(725,600,l),
(725,700,o),
(725,700,o),
(625,700,c),
(500,700,l),
(375,700,o),
(500,600,o),
(375,600,c),
(250,600,o),
(375,700,o),
(250,700,c),
(125,700,l),
(25,700,o),
(25,700,o),
(25,600,c),
(25,100,l),
(25,0,o),
(25,0,o),
(125,0,c)
);
}
);
width = 750;
},
{
layerId = "97FA09B7-861C-4A63-ABF9-29244986920C";
shapes = (
{
closed = 1;
nodes = (
(144,2,o),
(144,2,o),
(153,35,c),
(156,48,l),
(156,48,o),
(159,60,o),
(159,60,c),
(170,98,o),
(225,100,o),
(250,100,c),
(275,100,o),
(329,98,o),
(340,60,c),
(340,60,o),
(343,48,o),
(343,48,c),
(346,35,l),
(355,2,o),
(355,2,o),
(375,0,c),
(395,2,o),
(395,2,o),
(404,35,c),
(407,48,l),
(407,48,o),
(410,60,o),
(410,60,c),
(421,98,o),
(475,100,o),
(500,100,c),
(525,100,o),
(579,98,o),
(590,60,c),
(590,60,o),
(593,48,o),
(593,48,c),
(596,35,l),
(605,2,o),
(605,2,o),
(645,0,c),
(725,0,o),
(725,0,o),
(725,100,c),
(725,600,l),
(725,700,o),
(725,700,o),
(625,700,c),
(550,700,l),
(375,700,o),
(550,600,o),
(375,600,c),
(200,600,o),
(375,700,o),
(200,700,c),
(125,700,l),
(25,700,o),
(25,700,o),
(25,600,c),
(25,100,l),
(25,0,o),
(25,0,o),
(105,0,c)
);
}
);
width = 750;
},
{
layerId = "73DF1801-42CB-4FE2-B370-82821562EC7A";
shapes = (
{
closed = 1;
nodes = (
(175,0,o),
(175,0,o),
(175,50,c),
(175,100,l),
(175,100,o),
(175,225,o),
(175,225,c),
(175,300,o),
(225,300,o),
(250,300,c),
(275,300,o),
(325,300,o),
(325,225,c),
(325,225,o),
(325,100,o),
(325,100,c),
(325,50,l),
(325,0,o),
(325,0,o),
(375,0,c),
(425,0,o),
(425,0,o),
(425,50,c),
(425,100,l),
(425,100,o),
(425,225,o),
(425,225,c),
(425,300,o),
(475,300,o),
(500,300,c),
(525,300,o),
(575,300,o),
(575,225,c),
(575,225,o),
(575,100,o),
(575,100,c),
(575,50,l),
(575,0,o),
(575,0,o),
(625,0,c),
(725,0,o),
(725,0,o),
(725,100,c),
(725,600,l),
(725,700,o),
(725,700,o),
(625,700,c),
(500,700,l),
(375,700,o),
(500,550,o),
(375,550,c),
(250,550,o),
(375,700,o),
(250,700,c),
(125,700,l),
(25,700,o),
(25,700,o),
(25,600,c),
(25,100,l),
(25,0,o),
(25,0,o),
(125,0,c)
);
}
);
width = 750;
},
{
layerId = "7255AB37-F0AF-404B-B2C0-BE0CDFEFD522";
shapes = (
{
closed = 1;
nodes = (
(142,17,o),
(158,33,o),
(175,50,c),
(175,63,l),
(175,67,o),
(175,71,o),
(175,75,c),
(200,100,o),
(225,125,o),
(250,150,c),
(275,125,o),
(300,100,o),
(325,75,c),
(325,71,o),
(325,67,o),
(325,63,c),
(325,50,l),
(342,34,o),
(358,17,o),
(375,0,c),
(392,17,o),
(408,33,o),
(425,50,c),
(425,63,l),
(425,67,o),
(425,71,o),
(425,75,c),
(450,100,o),
(475,125,o),
(500,150,c),
(525,125,o),
(550,100,o),
(575,75,c),
(575,71,o),
(575,67,o),
(575,63,c),
(575,50,l),
(592,34,o),
(608,17,o),
(625,0,c),
(659,34,o),
(692,67,o),
(725,100,c),
(725,600,l),
(692,634,o),
(658,667,o),
(625,700,c),
(500,700,l),
(459,667,o),
(417,633,o),
(375,600,c),
(334,634,o),
(292,667,o),
(250,700,c),
(125,700,l),
(92,667,o),
(58,633,o),
(25,600,c),
(25,100,l),
(59,67,o),
(92,33,o),
(125,0,c)
);
}
);
width = 750;
},
{
layerId = "2D1336F4-505A-45CB-96E0-1A391A104589";
shapes = (
{
closed = 1;
nodes = (
(121,12,o),
(137,23,o),
(153,35,c),
(156,48,l),
(157,52,o),
(158,56,o),
(159,60,c),
(190,74,o),
(220,87,o),
(250,100,c),
(280,87,o),
(310,73,o),
(340,60,c),
(341,56,o),
(342,52,o),
(343,48,c),
(346,35,l),
(356,24,o),
(365,12,o),
(375,0,c),
(385,12,o),
(394,23,o),
(404,35,c),
(407,48,l),
(408,52,o),
(409,56,o),
(410,60,c),
(440,74,o),
(470,87,o),
(500,100,c),
(530,87,o),
(560,73,o),
(590,60,c),
(591,56,o),
(592,52,o),
(593,48,c),
(596,35,l),
(613,24,o),
(629,12,o),
(645,0,c),
(672,34,o),
(698,67,o),
(725,100,c),
(725,600,l),
(692,634,o),
(658,667,o),
(625,700,c),
(550,700,l),
(492,667,o),
(433,633,o),
(375,600,c),
(317,634,o),
(258,667,o),
(200,700,c),
(125,700,l),
(92,667,o),
(58,633,o),
(25,600,c),
(25,100,l),
(52,67,o),
(78,33,o),
(105,0,c)
);
}
);
width = 750;
},
{
layerId = "28F6F6CF-6CF1-4298-BBDC-1B578C225890";
shapes = (
{
closed = 1;
nodes = (
(142,17,o),
(158,33,o),
(175,50,c),
(175,100,ls),
(175,142,o),
(175,183,o),
(175,225,c),
(200,250,o),
(225,275,o),
(250,300,c),
(275,275,o),
(300,250,o),
(325,225,c),
(325,184,o),
(325,142,o),
(325,100,cs),
(325,50,l),
(342,34,o),
(358,17,o),
(375,0,c),
(392,17,o),
(408,33,o),
(425,50,c),
(425,100,ls),
(425,142,o),
(425,183,o),
(425,225,c),
(450,250,o),
(475,275,o),
(500,300,c),
(525,275,o),
(550,250,o),
(575,225,c),
(575,184,o),
(575,142,o),
(575,100,cs),
(575,50,l),
(592,34,o),
(608,17,o),
(625,0,c),
(659,34,o),
(692,67,o),
(725,100,c),
(725,600,l),
(692,634,o),
(658,667,o),
(625,700,c),
(500,700,l),
(459,650,o),
(417,600,o),
(375,550,c),
(334,600,o),
(292,650,o),
(250,700,c),
(125,700,l),
(92,667,o),
(58,633,o),
(25,600,c),
(25,100,l),
(59,67,o),
(92,33,o),
(125,0,c)
);
}
);
width = 750;
},
{
layerId = "66BFC9E6-1952-4B87-BF6C-C5A8A5CAFA4D";
shapes = (
{
closed = 1;
nodes = (
(159,34,o),
(192,67,o),
(225,100,c),
(225,225,l),
(209,267,o),
(192,308,o),
(175,350,c),
(200,375,o),
(225,400,o),
(250,425,c),
(275,400,o),
(300,375,o),
(325,350,c),
(309,309,o),
(292,267,o),
(275,225,c),
(275,100,l),
(309,67,o),
(342,33,o),
(375,0,c),
(409,34,o),
(442,67,o),
(475,100,c),
(475,225,l),
(459,267,o),
(442,308,o),
(425,350,c),
(450,375,o),
(475,400,o),
(500,425,c),
(525,400,o),
(550,375,o),
(575,350,c),
(559,309,o),
(542,267,o),
(525,225,c),
(525,100,l),
(559,67,o),
(592,33,o),
(625,0,c),
(659,34,o),
(692,67,o),
(725,100,c),
(725,600,l),
(692,634,o),
(658,667,o),
(625,700,c),
(500,700,l),
(459,667,o),
(417,633,o),
(375,600,c),
(334,634,o),
(292,667,o),
(250,700,c),
(125,700,l),
(92,667,o),
(58,633,o),
(25,600,c),
(25,100,l),
(59,67,o),
(92,33,o),
(125,0,c)
);
}
);
width = 750;
},
{
layerId = "5D199366-843B-4174-BE1F-6720719AACE9";
shapes = (
{
closed = 1;
nodes = (
(209,34,o),
(217,67,o),
(225,100,c),
(225,215,l),
(192,260,o),
(158,305,o),
(125,350,c),
(164,379,o),
(202,407,o),
(240,435,c),
(274,407,o),
(307,378,o),
(340,350,c),
(319,305,o),
(297,260,o),
(275,215,c),
(275,100,l),
(309,67,o),
(342,33,o),
(375,0,c),
(409,34,o),
(442,67,o),
(475,100,c),
(475,215,l),
(454,260,o),
(432,305,o),
(410,350,c),
(445,379,o),
(480,407,o),
(515,435,c),
(552,407,o),
(588,378,o),
(625,350,c),
(592,305,o),
(558,260,o),
(525,215,c),
(525,100,l),
(534,67,o),
(542,33,o),
(550,0,c),
(609,34,o),
(667,67,o),
(725,100,c),
(725,600,l),
(675,634,o),
(625,667,o),
(575,700,c),
(525,700,l),
(475,667,o),
(425,633,o),
(375,600,c),
(325,634,o),
(275,667,o),
(225,700,c),
(175,700,l),
(125,667,o),
(75,633,o),
(25,600,c),
(25,100,l),
(84,67,o),
(142,33,o),
(200,0,c)
);
}
);
width = 750;
},
{
layerId = "C9F343FC-F72A-4E5E-9438-E02DE7AFC5D3";
shapes = (
{
closed = 1;
nodes = (
(159,17,o),
(192,33,o),
(225,50,c),
(225,100,l),
(205,184,o),
(185,267,o),
(165,350,c),
(194,435,o),
(222,520,o),
(250,605,c),
(272,520,o),
(293,435,o),
(315,350,c),
(302,267,o),
(288,183,o),
(275,100,c),
(275,50,l),
(309,34,o),
(342,17,o),
(375,0,c),
(409,17,o),
(442,33,o),
(475,50,c),
(475,100,l),
(462,184,o),
(448,267,o),
(435,350,c),
(457,435,o),
(478,520,o),
(500,605,c),
(529,520,o),
(557,435,o),
(585,350,c),
(565,267,o),
(545,183,o),
(525,100,c),
(525,50,l),
(559,34,o),
(592,17,o),
(625,0,c),
(659,109,o),
(692,217,o),
(725,325,c),
(725,375,l),
(692,484,o),
(658,592,o),
(625,700,c),
(500,700,l),
(459,662,o),
(417,623,o),
(375,585,c),
(334,624,o),
(292,662,o),
(250,700,c),
(125,700,l),
(92,592,o),
(58,483,o),
(25,375,c),
(25,325,l),
(59,217,o),
(92,108,o),
(125,0,c)
);
}
);
width = 750;
}
);
unicode = (77,109);
},
{
glyphname = N;
lastChange = "2022-12-19 02:13:05 +0000";
layers = (
{
layerId = m01;
shapes = (
{
closed = 1;
nodes = (
(167,0,o),
(208,0,o),
(250,0,c),
(350,0,o),
(350,0,o),
(350,100,c),
(350,225,l),
(350,350,o),
(300,225,o),
(300,350,c),
(300,425,o),
(350,425,o),
(375,425,c),
(400,425,o),
(450,425,o),
(450,350,c),
(450,225,o),
(400,350,o),
(400,225,c),
(400,100,l),
(400,0,o),
(400,0,o),
(500,0,c),
(542,0,o),
(583,0,o),
(625,0,c),
(725,0,o),
(725,0,o),
(725,100,c),
(725,234,o),
(725,367,o),
(725,500,c),
(725,600,o),
(625,700,o),
(525,700,c),
(392,700,o),
(258,700,o),
(125,700,c),
(25,700,o),
(25,700,o),
(25,600,c),
(25,434,o),
(25,267,o),
(25,100,c),
(25,0,o),
(25,0,o),
(125,0,c)
);
}
);
width = 750;
},
{
layerId = "3FB0BBD1-C623-48BB-B11C-478BB36E1931";
shapes = (
{
closed = 1;
nodes = (
(267,0,o),
(283,0,o),
(300,0,c),
(350,0,o),
(350,0,o),
(350,100,c),
(350,200,l),
(350,325,o),
(125,200,o),
(125,350,c),
(125,450,o),
(325,450,o),
(375,450,c),
(425,450,o),
(625,450,o),
(625,350,c),
(625,200,o),
(400,325,o),
(400,200,c),
(400,100,l),
(400,0,o),
(400,0,o),
(450,0,c),
(467,0,o),
(483,0,o),
(500,0,c),
(575,0,o),
(725,0,o),
(725,100,c),
(725,234,o),
(725,367,o),
(725,500,c),
(725,700,o),
(500,700,o),
(400,700,c),
(384,700,o),
(367,700,o),
(350,700,c),
(250,700,o),
(25,700,o),
(25,600,c),
(25,434,o),
(25,267,o),
(25,100,c),
(25,0,o),
(175,0,o),
(250,0,c)
);
}
);
width = 750;
},
{
layerId = "D19652E7-EFD0-4E4C-BF76-3B076A5B34BC";
shapes = (
{
closed = 1;
nodes = (
(167,0,o),
(208,0,o),
(250,0,c),
(350,0,o),
(350,0,o),
(350,50,c),
(350,100,l),
(350,175,o),
(300,125,o),
(300,350,c),
(300,625,o),
(350,625,o),
(375,625,c),
(400,625,o),
(450,625,o),
(450,350,c),
(450,125,o),
(400,175,o),
(400,100,c),
(400,50,l),
(400,0,o),
(400,0,o),
(500,0,c),
(542,0,o),
(583,0,o),
(625,0,c),
(725,0,o),
(725,225,o),
(725,325,c),
(725,342,o),
(725,358,o),
(725,375,c),
(725,475,o),
(725,700,o),
(525,700,c),
(392,700,o),
(258,700,o),
(125,700,c),
(25,700,o),
(25,475,o),
(25,375,c),
(25,359,o),
(25,342,o),
(25,325,c),
(25,225,o),
(25,0,o),
(125,0,c)
);
}
);
width = 750;
},
{
layerId = "19B082C2-3429-47B4-A4D8-F059340FFD3C";
shapes = (
{
closed = 1;
nodes = (
(167,0,o),
(208,0,o),
(250,0,c),
(300,0,o),
(300,0,o),
(300,50,cs),
(300,63,l),
(300,63,o),
(300,75,o),
(300,75,c),
(300,150,o),
(350,150,o),
(375,150,c),
(400,150,o),
(450,150,o),
(450,75,c),
(450,75,o),
(450,63,o),
(450,63,c),
(450,50,l),
(450,0,o),
(450,0,o),
(500,0,c),
(542,0,o),
(583,0,o),
(625,0,c),
(725,0,o),
(725,0,o),
(725,100,c),
(725,234,o),
(725,367,o),
(725,500,c),
(725,600,o),
(625,700,o),
(525,700,c),
(392,700,o),
(258,700,o),
(125,700,c),
(25,700,o),
(25,700,o),
(25,600,c),
(25,434,o),
(25,267,o),
(25,100,c),
(25,0,o),
(25,0,o),
(125,0,c)
);
}
);
width = 750;
},
{
layerId = "97FA09B7-861C-4A63-ABF9-29244986920C";
shapes = (
{
closed = 1;
nodes = (
(150,0,o),
(175,0,o),
(200,0,c),
(250,0,o),
(268,2,o),
(278,40,c),
(280,48,l),
(280,48,o),
(282,55,o),
(282,55,c),
(294,98,o),
(350,100,o),
(375,100,c),
(400,100,o),
(456,98,o),
(468,55,c),
(468,55,o),
(470,48,o),
(470,48,c),
(472,40,l),
(482,2,o),
(500,0,o),
(550,0,c),
(575,0,o),
(600,0,o),
(625,0,c),
(725,0,o),
(725,0,o),
(725,100,c),
(725,234,o),
(725,367,o),
(725,500,c),
(725,600,o),
(625,700,o),
(525,700,c),
(392,700,o),
(258,700,o),
(125,700,c),
(25,700,o),
(25,700,o),
(25,600,c),
(25,434,o),
(25,267,o),
(25,100,c),
(25,0,o),
(25,0,o),
(125,0,c)
);
}
);
width = 750;
},
{
layerId = "73DF1801-42CB-4FE2-B370-82821562EC7A";
shapes = (
{
closed = 1;
nodes = (
(167,0,o),
(208,0,o),
(250,0,c),
(300,0,o),
(300,0,o),
(300,50,c),
(300,100,l),
(300,100,o),
(300,275,o),
(300,275,c),
(300,350,o),
(350,350,o),
(375,350,c),
(400,350,o),
(450,350,o),
(450,275,c),
(450,275,o),
(450,100,o),
(450,100,c),
(450,50,l),
(450,0,o),
(450,0,o),
(500,0,c),
(542,0,o),
(583,0,o),
(625,0,c),
(725,0,o),
(725,0,o),
(725,100,c),
(725,234,o),
(725,367,o),
(725,500,c),
(725,600,o),
(625,700,o),
(525,700,c),
(392,700,o),
(258,700,o),
(125,700,c),
(25,700,o),
(25,700,o),
(25,600,c),
(25,434,o),
(25,267,o),
(25,100,c),
(25,0,o),
(25,0,o),
(125,0,c)
);
}
);
width = 750;
},
{
layerId = "7255AB37-F0AF-404B-B2C0-BE0CDFEFD522";
shapes = (
{
closed = 1;
nodes = (
(167,0,o),
(208,0,o),
(250,0,c),
(267,17,o),
(283,33,o),
(300,50,c),
(300,63,l),
(300,67,o),
(300,71,o),
(300,75,c),
(325,100,o),
(350,125,o),
(375,150,c),
(400,125,o),
(425,100,o),
(450,75,c),
(450,71,o),
(450,67,o),
(450,63,c),
(450,50,l),
(467,34,o),
(483,17,o),
(500,0,c),
(542,0,o),
(583,0,o),
(625,0,c),
(659,34,o),
(692,67,o),
(725,100,c),
(725,234,o),
(725,367,o),
(725,500,c),
(659,567,o),
(592,633,o),
(525,700,c),
(392,700,o),
(258,700,o),
(125,700,c),
(92,667,o),
(58,633,o),
(25,600,c),
(25,434,o),
(25,267,o),
(25,100,c),
(59,67,o),
(92,33,o),
(125,0,c)
);
}
);
width = 750;
},
{
layerId = "2D1336F4-505A-45CB-96E0-1A391A104589";
shapes = (
{
closed = 1;
nodes = (
(150,0,o),
(175,0,o),
(200,0,c),
(226,14,o),
(252,27,o),
(278,40,c),
(280,48,l),
(280,48,o),
(282,55,o),
(282,55,c),
(313,70,o),
(344,85,o),
(375,100,c),
(406,85,o),
(437,70,o),
(468,55,c),
(468,55,o),
(470,48,o),
(470,48,c),
(472,40,l),
(498,27,o),
(524,13,o),
(550,0,c),
(575,0,o),
(600,0,o),
(625,0,c),
(659,34,o),
(692,67,o),
(725,100,c),
(725,234,o),
(725,367,o),
(725,500,c),
(659,567,o),
(592,633,o),
(525,700,c),
(392,700,o),
(258,700,o),
(125,700,c),
(92,667,o),
(58,633,o),
(25,600,c),
(25,434,o),
(25,267,o),
(25,100,c),
(59,67,o),
(92,33,o),
(125,0,c)
);
}
);
width = 750;
},
{
layerId = "28F6F6CF-6CF1-4298-BBDC-1B578C225890";
shapes = (
{
closed = 1;
nodes = (
(167,0,o),
(208,0,o),
(250,0,c),
(267,17,o),
(283,33,o),
(300,50,c),
(300,100,l),
(300,159,o),
(300,217,o),
(300,275,c),
(325,300,o),
(350,325,o),
(375,350,c),
(400,325,o),
(425,300,o),
(450,275,c),
(450,217,o),
(450,158,o),
(450,100,c),
(450,50,l),
(467,34,o),
(483,17,o),
(500,0,c),
(542,0,o),
(583,0,o),
(625,0,c),
(659,34,o),
(692,67,o),
(725,100,c),
(725,234,o),
(725,367,o),
(725,500,c),
(659,567,o),
(592,633,o),
(525,700,c),
(392,700,o),
(258,700,o),
(125,700,c),
(92,667,o),
(58,633,o),
(25,600,c),
(25,434,o),
(25,267,o),
(25,100,c),
(59,67,o),
(92,33,o),
(125,0,c)
);
}
);
width = 750;
},
{
layerId = "66BFC9E6-1952-4B87-BF6C-C5A8A5CAFA4D";
shapes = (
{
closed = 1;
nodes = (
(167,0,o),
(208,0,o),
(250,0,c),
(284,34,o),
(317,67,o),
(350,100,c),
(350,225,l),
(334,267,o),
(317,308,o),
(300,350,c),
(325,375,o),
(350,400,o),
(375,425,c),
(400,400,o),
(425,375,o),
(450,350,c),
(434,309,o),
(417,267,o),
(400,225,c),
(400,100,l),
(434,67,o),
(467,33,o),
(500,0,c),
(542,0,o),
(583,0,o),
(625,0,c),
(659,34,o),
(692,67,o),
(725,100,c),
(725,234,o),
(725,367,o),
(725,500,c),
(659,567,o),
(592,633,o),
(525,700,c),
(392,700,o),
(258,700,o),
(125,700,c),
(92,667,o),
(58,633,o),
(25,600,c),
(25,434,o),
(25,267,o),
(25,100,c),
(59,67,o),
(92,33,o),
(125,0,c)
);
}
);
width = 750;
},
{
layerId = "5D199366-843B-4174-BE1F-6720719AACE9";
shapes = (
{
closed = 1;
nodes = (
(267,0,o),
(283,0,o),
(300,0,c),
(317,34,o),
(333,67,o),
(350,100,c),
(350,200,l),
(275,250,o),
(200,300,o),
(125,350,c),
(209,384,o),
(292,417,o),
(375,450,c),
(459,417,o),
(542,383,o),
(625,350,c),
(550,300,o),
(475,250,o),
(400,200,c),
(400,100,l),
(417,67,o),
(433,33,o),
(450,0,c),
(467,0,o),
(483,0,o),
(500,0,c),
(575,34,o),
(650,67,o),
(725,100,c),
(725,234,o),
(725,367,o),
(725,500,c),
(617,567,o),
(508,633,o),
(400,700,c),
(384,700,o),
(367,700,o),
(350,700,c),
(242,667,o),
(133,633,o),
(25,600,c),
(25,434,o),
(25,267,o),
(25,100,c),
(100,67,o),
(175,33,o),
(250,0,c)
);
}
);
width = 750;
},
{
layerId = "C9F343FC-F72A-4E5E-9438-E02DE7AFC5D3";
shapes = (
{
closed = 1;
nodes = (
(167,0,o),
(208,0,o),
(250,0,c),
(284,17,o),
(317,33,o),
(350,50,c),
(350,100,l),
(334,184,o),
(317,267,o),
(300,350,c),
(325,442,o),
(350,533,o),
(375,625,c),
(400,534,o),
(425,442,o),
(450,350,c),
(434,267,o),
(417,183,o),
(400,100,c),
(400,50,l),
(434,34,o),
(467,17,o),
(500,0,c),
(542,0,o),
(583,0,o),
(625,0,c),
(659,109,o),
(692,217,o),
(725,325,c),
(725,342,o),
(725,358,o),
(725,375,c),
(659,484,o),
(592,592,o),
(525,700,c),
(392,700,o),
(258,700,o),
(125,700,c),
(92,592,o),
(58,483,o),
(25,375,c),
(25,359,o),
(25,342,o),
(25,325,c),
(59,217,o),
(92,108,o),
(125,0,c)
);
}
);
width = 750;
}
);
unicode = (78,110);
},
{
glyphname = O;
lastChange = "2022-12-19 02:11:58 +0000";
layers = (
{
layerId = m01;
shapes = (
{
closed = 1;
nodes = (
(325,0,o),
(425,0,o),
(525,0,c),
(625,0,o),
(725,100,o),
(725,200,c),
(725,300,o),
(725,400,o),
(725,500,c),
(725,600,o),
(625,700,o),
(525,700,c),
(425,700,o),
(325,700,o),
(225,700,c),
(125,700,o),
(25,600,o),
(25,500,c),
(25,400,o),
(25,300,o),
(25,200,c),
(25,100,o),
(125,0,o),
(225,0,c)
);
},
{
closed = 1;
nodes = (
(350,275,o),
(300,275,o),
(300,350,c),
(300,425,o),
(350,425,o),
(375,425,c),
(400,425,o),
(450,425,o),
(450,350,c),
(450,275,o),
(400,275,o),
(375,275,c)
);
}
);
width = 750;
},
{
layerId = "3FB0BBD1-C623-48BB-B11C-478BB36E1931";
shapes = (
{
closed = 1;
nodes = (
(367,0,o),
(383,0,o),
(400,0,c),
(500,0,o),
(725,0,o),
(725,200,c),
(725,300,o),
(725,400,o),
(725,500,c),
(725,700,o),
(500,700,o),
(400,700,c),
(384,700,o),
(367,700,o),
(350,700,c),
(250,700,o),
(25,700,o),
(25,500,c),
(25,400,o),
(25,300,o),
(25,200,c),
(25,0,o),
(250,0,o),
(350,0,c)
);
},
{
closed = 1;
nodes = (
(325,250,o),
(125,250,o),
(125,350,c),
(125,450,o),
(325,450,o),
(375,450,c),
(425,450,o),
(625,450,o),
(625,350,c),
(625,250,o),
(425,250,o),
(375,250,c)
);
}
);
width = 750;
},
{
layerId = "D19652E7-EFD0-4E4C-BF76-3B076A5B34BC";
shapes = (
{
closed = 1;
nodes = (
(325,0,o),
(425,0,o),
(525,0,c),
(725,0,o),
(725,225,o),
(725,325,c),
(725,342,o),
(725,358,o),
(725,375,c),
(725,475,o),
(725,700,o),
(525,700,c),
(425,700,o),
(325,700,o),
(225,700,c),
(25,700,o),
(25,475,o),
(25,375,c),
(25,359,o),
(25,342,o),
(25,325,c),
(25,225,o),
(25,0,o),
(225,0,c)
);
},
{
closed = 1;
nodes = (
(350,75,o),
(300,75,o),
(300,350,c),
(300,625,o),
(350,625,o),
(375,625,c),
(400,625,o),
(450,625,o),
(450,350,c),
(450,75,o),
(400,75,o),
(375,75,c)
);
}
);
width = 750;
},
{
layerId = "19B082C2-3429-47B4-A4D8-F059340FFD3C";
shapes = (
{
closed = 1;
nodes = (
(325,0,o),
(425,0,o),
(525,0,c),
(625,0,o),
(725,100,o),
(725,200,c),
(725,300,o),
(725,400,o),
(725,500,c),
(725,600,o),
(625,700,o),
(525,700,c),
(425,700,o),
(325,700,o),
(225,700,c),
(125,700,o),
(25,600,o),
(25,500,c),
(25,400,o),
(25,300,o),
(25,200,c),
(25,100,o),
(125,0,o),
(225,0,c)
);
},
{
closed = 1;
nodes = (
(350,275,o),
(300,275,o),
(300,350,c),
(300,425,o),
(350,425,o),
(375,425,c),
(400,425,o),
(450,425,o),
(450,350,c),
(450,275,o),
(400,275,o),
(375,275,c)
);
}
);
width = 750;
},
{
layerId = "97FA09B7-861C-4A63-ABF9-29244986920C";
shapes = (
{
closed = 1;
nodes = (
(325,0,o),
(425,0,o),
(525,0,c),
(625,0,o),
(725,100,o),
(725,200,c),
(725,300,o),
(725,400,o),
(725,500,c),
(725,600,o),
(625,700,o),
(525,700,c),
(425,700,o),
(325,700,o),
(225,700,c),
(125,700,o),
(25,600,o),
(25,500,c),
(25,400,o),
(25,300,o),
(25,200,c),
(25,100,o),
(125,0,o),
(225,0,c)
);
},
{
closed = 1;
nodes = (
(325,275,o),
(200,275,o),
(200,350,c),
(200,425,o),
(325,425,o),
(375,425,c),
(425,425,o),
(550,425,o),
(550,350,c),
(550,275,o),
(425,275,o),
(375,275,c)
);
}
);
width = 750;
},
{
layerId = "73DF1801-42CB-4FE2-B370-82821562EC7A";
shapes = (
{
closed = 1;
nodes = (
(325,0,o),
(425,0,o),
(525,0,c),
(625,0,o),
(725,100,o),
(725,200,c),
(725,300,o),
(725,400,o),
(725,500,c),
(725,600,o),
(625,700,o),
(525,700,c),
(425,700,o),
(325,700,o),
(225,700,c),
(125,700,o),
(25,600,o),
(25,500,c),
(25,400,o),
(25,300,o),
(25,200,c),
(25,100,o),
(125,0,o),
(225,0,c)
);
},
{
closed = 1;
nodes = (
(350,175,o),
(300,175,o),
(300,350,c),
(300,525,o),
(350,525,o),
(375,525,c),
(400,525,o),
(450,525,o),
(450,350,c),
(450,175,o),
(400,175,o),
(375,175,c)
);
}
);
width = 750;
},
{
layerId = "7255AB37-F0AF-404B-B2C0-BE0CDFEFD522";
shapes = (
{
closed = 1;
nodes = (
(325,0,o),
(425,0,o),
(525,0,c),
(592,67,o),
(658,133,o),
(725,200,c),
(725,300,o),
(725,400,o),
(725,500,c),
(659,567,o),
(592,633,o),
(525,700,c),
(425,700,o),
(325,700,o),
(225,700,c),
(159,634,o),
(92,567,o),
(25,500,c),
(25,400,o),
(25,300,o),
(25,200,c),
(92,134,o),
(158,67,o),
(225,0,c)
);
},
{
closed = 1;
nodes = (
(350,300,o),
(325,325,o),
(300,350,c),
(325,375,o),
(350,400,o),
(375,425,c),
(400,400,o),
(425,375,o),
(450,350,c),
(425,325,o),
(400,300,o),
(375,275,c)
);
}
);
width = 750;
},
{
layerId = "2D1336F4-505A-45CB-96E0-1A391A104589";
shapes = (
{
closed = 1;
nodes = (
(325,0,o),
(425,0,o),
(525,0,c),
(592,67,o),
(658,133,o),
(725,200,c),
(725,300,o),
(725,400,o),
(725,500,c),
(659,567,o),
(592,633,o),
(525,700,c),
(425,700,o),
(325,700,o),
(225,700,c),
(159,634,o),
(92,567,o),
(25,500,c),
(25,400,o),
(25,300,o),
(25,200,c),
(92,134,o),
(158,67,o),
(225,0,c)
);
},
{
closed = 1;
nodes = (
(317,300,o),
(259,325,o),
(200,350,c),
(258,375,o),
(317,400,o),
(375,425,c),
(433,400,o),
(492,375,o),
(550,350,c),
(492,325,o),
(434,300,o),
(375,275,c)
);
}
);
width = 750;
},
{
layerId = "28F6F6CF-6CF1-4298-BBDC-1B578C225890";
shapes = (
{
closed = 1;
nodes = (
(325,0,o),
(425,0,o),
(525,0,c),
(592,67,o),
(658,133,o),
(725,200,c),
(725,300,o),
(725,400,o),
(725,500,c),
(659,567,o),
(592,633,o),
(525,700,c),
(425,700,o),
(325,700,o),
(225,700,c),
(159,634,o),
(92,567,o),
(25,500,c),
(25,400,o),
(25,300,o),
(25,200,c),
(92,134,o),
(158,67,o),
(225,0,c)
);
},
{
closed = 1;
nodes = (
(350,233,o),
(325,292,o),
(300,350,c),
(325,408,o),
(350,467,o),
(375,525,c),
(400,467,o),
(425,409,o),
(450,350,c),
(425,292,o),
(400,234,o),
(375,175,c)
);
}
);
width = 750;
},
{
layerId = "66BFC9E6-1952-4B87-BF6C-C5A8A5CAFA4D";
shapes = (
{
closed = 1;
nodes = (
(325,0,o),
(425,0,o),
(525,0,c),
(592,67,o),
(658,133,o),
(725,200,c),
(725,300,o),
(725,400,o),
(725,500,c),
(659,567,o),
(592,633,o),
(525,700,c),
(425,700,o),
(325,700,o),
(225,700,c),
(159,634,o),
(92,567,o),
(25,500,c),
(25,400,o),
(25,300,o),
(25,200,c),
(92,134,o),
(158,67,o),
(225,0,c)
);
},
{
closed = 1;
nodes = (
(350,300,o),
(325,325,o),
(300,350,c),
(325,375,o),
(350,400,o),
(375,425,c),
(400,400,o),
(425,375,o),
(450,350,c),
(425,325,o),
(400,300,o),
(375,275,c)
);
}
);
width = 750;
},
{
layerId = "5D199366-843B-4174-BE1F-6720719AACE9";
shapes = (
{
closed = 1;
nodes = (
(367,0,o),
(383,0,o),
(400,0,c),
(509,67,o),
(617,133,o),
(725,200,c),
(725,300,o),
(725,400,o),
(725,500,c),
(617,567,o),
(508,633,o),
(400,700,c),
(384,700,o),
(367,700,o),
(350,700,c),
(242,634,o),
(133,567,o),
(25,500,c),
(25,400,o),
(25,300,o),
(25,200,c),
(134,134,o),
(242,67,o),
(350,0,c)
);
},
{
closed = 1;
nodes = (
(292,283,o),
(209,317,o),
(125,350,c),
(208,383,o),
(292,417,o),
(375,450,c),
(458,417,o),
(542,384,o),
(625,350,c),
(542,317,o),
(459,284,o),
(375,250,c)
);
}
);
width = 750;
},
{
layerId = "C9F343FC-F72A-4E5E-9438-E02DE7AFC5D3";
shapes = (
{
closed = 1;
nodes = (
(325,0,o),
(425,0,o),
(525,0,c),
(592,109,o),
(658,217,o),
(725,325,c),
(725,342,o),
(725,358,o),
(725,375,c),
(659,484,o),
(592,592,o),
(525,700,c),
(425,700,o),
(325,700,o),
(225,700,c),
(159,592,o),
(92,483,o),
(25,375,c),
(25,359,o),
(25,342,o),
(25,325,c),
(92,217,o),
(158,108,o),
(225,0,c)
);
},
{
closed = 1;
nodes = (
(350,167,o),
(325,259,o),
(300,350,c),
(325,442,o),
(350,534,o),
(375,625,c),
(400,533,o),
(425,442,o),
(450,350,c),
(425,258,o),
(400,167,o),
(375,75,c)
);
}
);
width = 750;
}
);
unicode = (79,111);
},
{
glyphname = P;
lastChange = "2022-12-19 02:15:06 +0000";
layers = (
{
layerId = m01;
shapes = (
{
closed = 1;
nodes = (
(167,0,o),
(208,0,o),
(250,0,c),
(350,0,o),
(350,0,o),
(350,100,c),
(350,225,o),
(300,100,o),
(300,225,c),
(300,275,o),
(325,300,o),
(375,300,c),
(500,300,o),
(375,250,o),
(525,250,c),
(625,250,o),
(725,350,o),
(725,475,c),
(725,600,o),
(625,700,o),
(525,700,c),
(392,700,o),
(258,700,o),
(125,700,c),
(25,700,o),
(25,700,o),
(25,600,c),
(25,434,o),
(25,267,o),
(25,100,c),
(25,0,o),
(25,0,o),
(125,0,c)
);
},
{
closed = 1;
nodes = (
(300,400,o),
(300,400,o),
(300,475,c),
(300,550,o),
(300,550,o),
(375,550,c),
(450,550,o),
(450,500,o),
(450,475,c),
(450,450,o),
(450,400,o),
(375,400,c)
);
}
);
width = 750;
},
{
layerId = "3FB0BBD1-C623-48BB-B11C-478BB36E1931";
shapes = (
{
closed = 1;
nodes = (
(267,0,o),
(283,0,o),
(300,0,c),
(350,0,o),
(350,0,o),
(350,100,c),
(350,225,o),
(125,100,o),
(125,225,c),
(125,275,o),
(125,300,o),
(375,300,c),
(600,300,o),
(550,250,o),
(625,250,c),
(675,250,o),
(725,250,o),
(725,475,c),
(725,700,o),
(500,700,o),
(400,700,c),
(384,700,o),
(367,700,o),
(350,700,c),
(250,700,o),
(25,700,o),
(25,600,c),
(25,434,o),
(25,267,o),
(25,100,c),
(25,0,o),
(175,0,o),
(250,0,c)
);
},
{
closed = 1;
nodes = (
(125,400,o),
(125,400,o),
(125,475,c),
(125,550,o),
(125,550,o),
(375,550,c),
(625,550,o),
(625,500,o),
(625,475,c),
(625,450,o),
(625,400,o),
(375,400,c)
);
}
);
width = 750;
},
{
layerId = "D19652E7-EFD0-4E4C-BF76-3B076A5B34BC";
shapes = (
{
closed = 1;
nodes = (
(167,0,o),
(208,0,o),
(250,0,c),
(350,0,o),
(350,0,o),
(350,50,c),
(350,110,o),
(300,90,o),
(300,200,c),
(300,250,o),
(305,325,o),
(375,325,c),
(500,325,o),
(375,250,o),
(500,250,c),
(725,250,o),
(725,350,o),
(725,475,c),
(725,600,o),
(725,700,o),
(525,700,c),
(392,700,o),
(258,700,o),
(125,700,c),
(25,700,o),
(25,475,o),
(25,375,c),
(25,359,o),
(25,342,o),
(25,325,c),
(25,225,o),
(25,0,o),
(125,0,c)
);
},
{
closed = 1;
nodes = (
(300,375,o),
(300,375,o),
(300,501,c),
(300,625,o),
(300,625,o),
(375,625,c),
(450,625,o),
(450,526,o),
(450,501,c),
(450,476,o),
(448,375,o),
(375,375,c)
);
}
);
width = 750;
},
{
layerId = "19B082C2-3429-47B4-A4D8-F059340FFD3C";
shapes = (
{
closed = 1;
nodes = (
(167,0,o),
(208,0,o),
(250,0,c),
(350,0,o),
(350,0,o),
(350,100,c),
(350,100,o),
(350,150,o),
(350,150,c),
(350,250,o),
(350,250,o),
(450,250,c),
(450,250,o),
(525,250,o),
(525,250,c),
(625,250,o),
(725,350,o),
(725,475,c),
(725,600,o),
(625,700,o),
(525,700,c),
(392,700,o),
(258,700,o),
(125,700,c),
(25,700,o),
(25,700,o),
(25,600,c),
(25,434,o),
(25,267,o),
(25,100,c),
(25,0,o),
(25,0,o),
(125,0,c)
);
},
{
closed = 1;
nodes = (
(300,400,o),
(300,400,o),
(300,475,c),
(300,550,o),
(300,550,o),
(375,550,c),
(450,550,o),
(450,500,o),
(450,475,c),
(450,450,o),
(450,400,o),
(375,400,c)
);
}
);
width = 750;
},
{
layerId = "97FA09B7-861C-4A63-ABF9-29244986920C";
shapes = (
{
closed = 1;
nodes = (
(134,0,o),
(142,0,o),
(150,0,c),
(250,0,o),
(250,0,o),
(250,100,c),
(250,100,o),
(250,150,o),
(250,150,c),
(250,250,o),
(250,250,o),
(350,250,c),
(350,250,o),
(525,250,o),
(525,250,c),
(625,250,o),
(725,350,o),
(725,475,c),
(725,600,o),
(625,700,o),
(525,700,c),
(392,700,o),
(258,700,o),
(125,700,c),
(25,700,o),
(25,700,o),
(25,600,c),
(25,434,o),
(25,267,o),
(25,100,c),
(25,0,o),
(25,0,o),
(125,0,c)
);
},
{
closed = 1;
nodes = (
(200,400,o),
(200,400,o),
(200,475,c),
(200,550,o),
(200,550,o),
(375,550,c),
(550,550,o),
(550,500,o),
(550,475,c),
(550,450,o),
(550,400,o),
(375,400,c)
);
}
);
width = 750;
},
{
layerId = "73DF1801-42CB-4FE2-B370-82821562EC7A";
shapes = (
{
closed = 1;
nodes = (
(167,0,o),
(208,0,o),
(250,0,c),
(350,0,o),
(350,0,o),
(350,100,c),
(350,100,o),
(350,150,o),
(350,150,c),
(350,250,o),
(350,250,o),
(450,250,c),
(450,250,o),
(525,250,o),
(525,250,c),
(625,250,o),
(725,350,o),
(725,475,c),
(725,600,o),
(625,700,o),
(525,700,c),
(392,700,o),
(258,700,o),
(125,700,c),
(25,700,o),
(25,700,o),
(25,600,c),
(25,434,o),
(25,267,o),
(25,100,c),
(25,0,o),
(25,0,o),
(125,0,c)
);
},
{
closed = 1;
nodes = (
(300,350,o),
(300,350,o),
(300,475,c),
(300,600,o),
(300,600,o),
(375,600,c),
(450,600,o),
(450,517,o),
(450,475,c),
(450,433,o),
(450,350,o),
(375,350,c)
);
}
);
width = 750;
},
{
layerId = "7255AB37-F0AF-404B-B2C0-BE0CDFEFD522";
shapes = (
{
closed = 1;
nodes = (
(167,0,o),
(208,0,o),
(250,0,c),
(284,34,o),
(317,67,o),
(350,100,c),
(350,117,o),
(350,133,o),
(350,150,c),
(384,184,o),
(417,217,o),
(450,250,c),
(475,250,o),
(500,250,o),
(525,250,c),
(592,325,o),
(658,400,o),
(725,475,c),
(659,550,o),
(592,625,o),
(525,700,c),
(392,700,o),
(258,700,o),
(125,700,c),
(92,667,o),
(58,633,o),
(25,600,c),
(25,434,o),
(25,267,o),
(25,100,c),
(59,67,o),
(92,33,o),
(125,0,c)
);
},
{
closed = 1;
nodes = (
(350,425,o),
(325,450,o),
(300,475,c),
(325,500,o),
(350,525,o),
(375,550,c),
(400,525,o),
(425,500,o),
(450,475,c),
(425,450,o),
(400,425,o),
(375,400,c)
);
}
);
width = 750;
},
{
layerId = "2D1336F4-505A-45CB-96E0-1A391A104589";
shapes = (
{
closed = 1;
nodes = (
(134,0,o),
(142,0,o),
(150,0,c),
(184,34,o),
(217,67,o),
(250,100,c),
(250,117,o),
(250,133,o),
(250,150,c),
(284,184,o),
(317,217,o),
(350,250,c),
(409,250,o),
(467,250,o),
(525,250,c),
(592,325,o),
(658,400,o),
(725,475,c),
(659,550,o),
(592,625,o),
(525,700,c),
(392,700,o),
(258,700,o),
(125,700,c),
(92,667,o),
(58,633,o),
(25,600,c),
(25,434,o),
(25,267,o),
(25,100,c),
(59,67,o),
(92,33,o),
(125,0,c)
);
},
{
closed = 1;
nodes = (
(317,425,o),
(259,450,o),
(200,475,c),
(258,500,o),
(317,525,o),
(375,550,c),
(433,525,o),
(492,500,o),
(550,475,c),
(492,450,o),
(434,425,o),
(375,400,c)
);
}
);
width = 750;
},
{
layerId = "28F6F6CF-6CF1-4298-BBDC-1B578C225890";
shapes = (
{
closed = 1;
nodes = (
(167,0,o),
(208,0,o),
(250,0,c),
(284,34,o),
(317,67,o),
(350,100,c),
(350,117,o),
(350,133,o),
(350,150,c),
(384,184,o),
(417,217,o),
(450,250,c),
(475,250,o),
(500,250,o),
(525,250,c),
(592,325,o),
(658,400,o),
(725,475,c),
(659,550,o),
(592,625,o),
(525,700,c),
(392,700,o),
(258,700,o),
(125,700,c),
(92,667,o),
(58,633,o),
(25,600,c),
(25,434,o),
(25,267,o),
(25,100,c),
(59,67,o),
(92,33,o),
(125,0,c)
);
},
{
closed = 1;
nodes = (
(350,392,o),
(325,434,o),
(300,475,c),
(325,517,o),
(350,559,o),
(375,600,c),
(400,558,o),
(425,517,o),
(450,475,c),
(425,433,o),
(400,392,o),
(375,350,c)
);
}
);
width = 750;
},
{
layerId = "66BFC9E6-1952-4B87-BF6C-C5A8A5CAFA4D";
shapes = (
{
closed = 1;
nodes = (
(167,0,o),
(208,0,o),
(250,0,c),
(284,34,o),
(317,67,o),
(350,100,c),
(334,142,o),
(317,183,o),
(300,225,c),
(325,250,o),
(350,275,o),
(375,300,c),
(425,284,o),
(475,267,o),
(525,250,c),
(592,325,o),
(658,400,o),
(725,475,c),
(659,550,o),
(592,625,o),
(525,700,c),
(392,700,o),
(258,700,o),
(125,700,c),
(92,667,o),
(58,633,o),
(25,600,c),
(25,434,o),
(25,267,o),
(25,100,c),
(59,67,o),
(92,33,o),
(125,0,c)
);
},
{
closed = 1;
nodes = (
(350,425,o),
(325,450,o),
(300,475,c),
(325,500,o),
(350,525,o),
(375,550,c),
(400,525,o),
(425,500,o),
(450,475,c),
(425,450,o),
(400,425,o),
(375,400,c)
);
}
);
width = 750;
},
{
layerId = "5D199366-843B-4174-BE1F-6720719AACE9";
shapes = (
{
closed = 1;
nodes = (
(267,0,o),
(283,0,o),
(300,0,c),
(317,34,o),
(333,67,o),
(350,100,c),
(275,142,o),
(200,183,o),
(125,225,c),
(209,250,o),
(292,275,o),
(375,300,c),
(459,284,o),
(542,267,o),
(625,250,c),
(659,325,o),
(692,400,o),
(725,475,c),
(617,550,o),
(508,625,o),
(400,700,c),
(384,700,o),
(367,700,o),
(350,700,c),
(242,667,o),
(133,633,o),
(25,600,c),
(25,434,o),
(25,267,o),
(25,100,c),
(100,67,o),
(175,33,o),
(250,0,c)
);
},
{
closed = 1;
nodes = (
(292,425,o),
(209,450,o),
(125,475,c),
(208,500,o),
(292,525,o),
(375,550,c),
(458,525,o),
(542,500,o),
(625,475,c),
(542,450,o),
(459,425,o),
(375,400,c)
);
}
);
width = 750;
},
{
layerId = "C9F343FC-F72A-4E5E-9438-E02DE7AFC5D3";
shapes = (
{
closed = 1;
nodes = (
(167,0,o),
(208,0,o),
(250,0,c),
(284,17,o),
(317,33,o),
(350,50,c),
(334,100,o),
(317,150,o),
(300,200,c),
(325,242,o),
(350,283,o),
(375,325,c),
(417,300,o),
(458,275,o),
(500,250,c),
(575,325,o),
(650,400,o),
(725,475,c),
(659,550,o),
(592,625,o),
(525,700,c),
(392,700,o),
(258,700,o),
(125,700,c),
(92,592,o),
(58,483,o),
(25,375,c),
(25,359,o),
(25,342,o),
(25,325,c),
(59,217,o),
(92,108,o),
(125,0,c)
);
},
{
closed = 1;
nodes = (
(350,417,o),
(325,459,o),
(300,501,c),
(325,542,o),
(350,584,o),
(375,625,c),
(400,584,o),
(425,543,o),
(450,501,c),
(425,459,o),
(400,417,o),
(375,375,c)
);
}
);
width = 750;
}
);
unicode = (80,112);
},
{
glyphname = Q;
lastChange = "2022-12-19 02:17:32 +0000";
layers = (
{
layerId = m01;
shapes = (
{
closed = 1;
nodes = (
(359,0,o),
(492,0,o),
(625,0,c),
(725,0,o),
(725,0,o),
(725,100,c),
(725,134,o),
(725,167,o),
(725,200,c),
(725,300,o),
(625,200,o),
(625,300,c),
(625,367,o),
(625,433,o),
(625,500,c),
(625,600,o),
(525,700,o),
(425,700,c),
(359,700,o),
(292,700,o),
(225,700,c),
(125,700,o),
(25,600,o),
(25,500,c),
(25,400,o),
(25,300,o),
(25,200,c),
(25,100,o),
(125,0,o),
(225,0,c)
);
},
{
closed = 1;
nodes = (
(300,275,o),
(250,275,o),
(250,350,c),
(250,425,o),
(300,425,o),
(325,425,c),
(350,425,o),
(400,425,o),
(400,350,c),
(400,275,o),
(350,275,o),
(325,275,c)
);
}
);
width = 750;
},
{
layerId = "3FB0BBD1-C623-48BB-B11C-478BB36E1931";
shapes = (
{
closed = 1;
nodes = (
(359,0,o),
(492,0,o),
(625,0,c),
(725,0,o),
(725,0,o),
(725,100,c),
(725,134,o),
(725,167,o),
(725,200,c),
(725,300,o),
(575,200,o),
(575,300,c),
(575,367,o),
(575,433,o),
(575,500,c),
(575,600,o),
(475,700,o),
(375,700,c),
(325,700,o),
(275,700,o),
(225,700,c),
(125,700,o),
(25,600,o),
(25,500,c),
(25,400,o),
(25,300,o),
(25,200,c),
(25,100,o),
(125,0,o),
(225,0,c)
);
},
{
closed = 1;
nodes = (
(242,250,o),
(125,250,o),
(125,350,c),
(125,450,o),
(242,450,o),
(300,450,c),
(358,450,o),
(475,450,o),
(475,350,c),
(475,250,o),
(358,250,o),
(300,250,c)
);
}
);
width = 750;
},
{
layerId = "D19652E7-EFD0-4E4C-BF76-3B076A5B34BC";
shapes = (
{
closed = 1;
nodes = (
(359,0,o),
(492,0,o),
(625,0,c),
(725,0,o),
(725,0,o),
(725,100,c),
(725,104,o),
(725,107,o),
(725,110,c),
(725,210,o),
(625,110,o),
(625,210,c),
(625,307,o),
(625,403,o),
(625,500,c),
(625,600,o),
(525,700,o),
(425,700,c),
(359,700,o),
(292,700,o),
(225,700,c),
(125,700,o),
(25,600,o),
(25,500,c),
(25,400,o),
(25,300,o),
(25,200,c),
(25,100,o),
(125,0,o),
(225,0,c)
);
},
{
closed = 1;
nodes = (
(300,75,o),
(250,75,o),
(250,350,c),
(250,625,o),
(300,625,o),
(325,625,c),
(350,625,o),
(400,625,o),
(400,350,c),
(400,75,o),
(350,75,o),
(325,75,c)
);
}
);
width = 750;
},
{
layerId = "19B082C2-3429-47B4-A4D8-F059340FFD3C";
shapes = (
{
closed = 1;
nodes = (
(359,0,o),
(492,0,o),
(625,0,c),
(725,0,o),
(725,0,o),
(725,100,c),
(725,134,o),
(725,167,o),
(725,200,c),
(725,300,o),
(625,200,o),
(625,300,c),
(625,367,o),
(625,433,o),
(625,500,c),
(625,600,o),
(525,700,o),
(425,700,c),
(359,700,o),
(292,700,o),
(225,700,c),
(125,700,o),
(25,600,o),
(25,500,c),
(25,400,o),
(25,300,o),
(25,200,c),
(25,100,o),
(125,0,o),
(225,0,c)
);
},
{
closed = 1;
nodes = (
(300,275,o),
(250,275,o),
(250,350,c),
(250,425,o),
(300,425,o),
(325,425,c),
(350,425,o),
(400,425,o),
(400,350,c),
(400,275,o),
(350,275,o),
(325,275,c)
);
}
);
width = 750;
},
{
layerId = "97FA09B7-861C-4A63-ABF9-29244986920C";
shapes = (
{
closed = 1;
nodes = (
(359,0,o),
(492,0,o),
(625,0,c),
(725,0,o),
(725,0,o),
(725,100,c),
(725,134,o),
(725,167,o),
(725,200,c),
(725,300,o),
(575,200,o),
(575,300,c),
(575,367,o),
(575,433,o),
(575,500,c),
(575,600,o),
(475,700,o),
(375,700,c),
(325,700,o),
(275,700,o),
(225,700,c),
(125,700,o),
(25,600,o),
(25,500,c),
(25,400,o),
(25,300,o),
(25,200,c),
(25,100,o),
(125,0,o),
(225,0,c)
);
},
{
closed = 1;
nodes = (
(242,275,o),
(125,275,o),
(125,350,c),
(125,425,o),
(242,425,o),
(300,425,c),
(358,425,o),
(475,425,o),
(475,350,c),
(475,275,o),
(358,275,o),
(300,275,c)
);
}
);
width = 750;
},
{
layerId = "73DF1801-42CB-4FE2-B370-82821562EC7A";
shapes = (
{
closed = 1;
nodes = (
(359,0,o),
(492,0,o),
(625,0,c),
(725,0,o),
(725,0,o),
(725,100,c),
(725,104,o),
(725,107,o),
(725,110,c),
(725,210,o),
(625,110,o),
(625,210,c),
(625,307,o),
(625,403,o),
(625,500,c),
(625,600,o),
(525,700,o),
(425,700,c),
(359,700,o),
(292,700,o),
(225,700,c),
(125,700,o),
(25,600,o),
(25,500,c),
(25,400,o),
(25,300,o),
(25,200,c),
(25,100,o),
(125,0,o),
(225,0,c)
);
},
{
closed = 1;
nodes = (
(300,175,o),
(250,175,o),
(250,350,c),
(250,525,o),
(300,525,o),
(325,525,c),
(350,525,o),
(400,525,o),
(400,350,c),
(400,175,o),
(350,175,o),
(325,175,c)
);
}
);
width = 750;
},
{
layerId = "7255AB37-F0AF-404B-B2C0-BE0CDFEFD522";
shapes = (
{
closed = 1;
nodes = (
(359,0,o),
(492,0,o),
(625,0,c),
(659,34,o),
(692,67,o),
(725,100,c),
(725,134,o),
(725,167,o),
(725,200,c),
(692,234,o),
(658,267,o),
(625,300,c),
(625,367,o),
(625,433,o),
(625,500,c),
(559,567,o),
(492,633,o),
(425,700,c),
(359,700,o),
(292,700,o),
(225,700,c),
(159,634,o),
(92,567,o),
(25,500,c),
(25,400,o),
(25,300,o),
(25,200,c),
(92,134,o),
(158,67,o),
(225,0,c)
);
},
{
closed = 1;
nodes = (
(300,300,o),
(275,325,o),
(250,350,c),
(275,375,o),
(300,400,o),
(325,425,c),
(350,400,o),
(375,375,o),
(400,350,c),
(375,325,o),
(350,300,o),
(325,275,c)
);
}
);
width = 750;
},
{
layerId = "2D1336F4-505A-45CB-96E0-1A391A104589";
shapes = (
{
closed = 1;
nodes = (
(359,0,o),
(492,0,o),
(625,0,c),
(659,34,o),
(692,67,o),
(725,100,c),
(725,134,o),
(725,167,o),
(725,200,c),
(675,234,o),
(625,267,o),
(575,300,c),
(575,367,o),
(575,433,o),
(575,500,c),
(509,567,o),
(442,633,o),
(375,700,c),
(325,700,o),
(275,700,o),
(225,700,c),
(159,634,o),
(92,567,o),
(25,500,c),
(25,400,o),
(25,300,o),
(25,200,c),
(92,134,o),
(158,67,o),
(225,0,c)
);
},
{
closed = 1;
nodes = (
(242,300,o),
(184,325,o),
(125,350,c),
(183,375,o),
(242,400,o),
(300,425,c),
(358,400,o),
(417,375,o),
(475,350,c),
(417,325,o),
(359,300,o),
(300,275,c)
);
}
);
width = 750;
},
{
layerId = "28F6F6CF-6CF1-4298-BBDC-1B578C225890";
shapes = (
{
closed = 1;
nodes = (
(359,0,o),
(492,0,o),
(625,0,c),
(659,34,o),
(692,67,o),
(725,100,c),
(725,104,o),
(725,107,o),
(725,110,c),
(692,144,o),
(658,177,o),
(625,210,c),
(625,307,o),
(625,403,o),
(625,500,c),
(559,567,o),
(492,633,o),
(425,700,c),
(359,700,o),
(292,700,o),
(225,700,c),
(159,634,o),
(92,567,o),
(25,500,c),
(25,400,o),
(25,300,o),
(25,200,c),
(92,134,o),
(158,67,o),
(225,0,c)
);
},
{
closed = 1;
nodes = (
(300,233,o),
(275,292,o),
(250,350,c),
(275,408,o),
(300,467,o),
(325,525,c),
(350,467,o),
(375,409,o),
(400,350,c),
(375,292,o),
(350,234,o),
(325,175,c)
);
}
);
width = 750;
},
{
layerId = "66BFC9E6-1952-4B87-BF6C-C5A8A5CAFA4D";
shapes = (
{
closed = 1;
nodes = (
(359,0,o),
(492,0,o),
(625,0,c),
(659,34,o),
(692,67,o),
(725,100,c),
(725,134,o),
(725,167,o),
(725,200,c),
(692,234,o),
(658,267,o),
(625,300,c),
(625,367,o),
(625,433,o),
(625,500,c),
(559,567,o),
(492,633,o),
(425,700,c),
(359,700,o),
(292,700,o),
(225,700,c),
(159,634,o),
(92,567,o),
(25,500,c),
(25,400,o),
(25,300,o),
(25,200,c),
(92,134,o),
(158,67,o),
(225,0,c)
);
},
{
closed = 1;
nodes = (
(300,300,o),
(275,325,o),
(250,350,c),
(275,375,o),
(300,400,o),
(325,425,c),
(350,400,o),
(375,375,o),
(400,350,c),
(375,325,o),
(350,300,o),
(325,275,c)
);
}
);
width = 750;
},
{
layerId = "5D199366-843B-4174-BE1F-6720719AACE9";
shapes = (
{
closed = 1;
nodes = (
(359,0,o),
(492,0,o),
(625,0,c),
(659,34,o),
(692,67,o),
(725,100,c),
(725,134,o),
(725,167,o),
(725,200,c),
(675,234,o),
(625,267,o),
(575,300,c),
(575,367,o),
(575,433,o),
(575,500,c),
(509,567,o),
(442,633,o),
(375,700,c),
(325,700,o),
(275,700,o),
(225,700,c),
(159,634,o),
(92,567,o),
(25,500,c),
(25,400,o),
(25,300,o),
(25,200,c),
(92,134,o),
(158,67,o),
(225,0,c)
);
},
{
closed = 1;
nodes = (
(242,283,o),
(184,317,o),
(125,350,c),
(183,383,o),
(242,417,o),
(300,450,c),
(358,417,o),
(417,384,o),
(475,350,c),
(417,317,o),
(359,284,o),
(300,250,c)
);
}
);
width = 750;
},
{
layerId = "C9F343FC-F72A-4E5E-9438-E02DE7AFC5D3";
shapes = (
{
closed = 1;
nodes = (
(359,0,o),
(492,0,o),
(625,0,c),
(659,34,o),
(692,67,o),
(725,100,c),
(725,104,o),
(725,107,o),
(725,110,c),
(692,144,o),
(658,177,o),
(625,210,c),
(625,307,o),
(625,403,o),
(625,500,c),
(559,567,o),
(492,633,o),
(425,700,c),
(359,700,o),
(292,700,o),
(225,700,c),
(159,634,o),
(92,567,o),
(25,500,c),
(25,400,o),
(25,300,o),
(25,200,c),
(92,134,o),
(158,67,o),
(225,0,c)
);
},
{
closed = 1;
nodes = (
(300,167,o),
(275,259,o),
(250,350,c),
(275,442,o),
(300,534,o),
(325,625,c),
(350,533,o),
(375,442,o),
(400,350,c),
(375,258,o),
(350,167,o),
(325,75,c)
);
}
);
width = 750;
}
);
unicode = (81,113);
},
{
glyphname = R;
lastChange = "2022-12-19 02:36:42 +0000";
layers = (
{
layerId = m01;
shapes = (
{
closed = 1;
nodes = (
(167,0,o),
(208,0,o),
(250,0,c),
(350,0,o),
(350,0,o),
(350,75,c),
(350,200,o),
(300,75,o),
(300,200,c),
(300,275,o),
(350,275,o),
(375,275,c),
(400,275,o),
(450,275,o),
(450,200,c),
(450,75,o),
(400,200,o),
(400,75,c),
(400,0,o),
(400,0,o),
(500,0,c),
(542,0,o),
(583,0,o),
(625,0,c),
(725,0,o),
(725,0,o),
(725,100,c),
(725,142,o),
(725,183,o),
(725,225,c),
(725,350,o),
(625,225,o),
(625,350,c),
(625,475,o),
(725,350,o),
(725,475,c),
(725,600,o),
(625,700,o),
(525,700,c),
(392,700,o),
(258,700,o),
(125,700,c),
(25,700,o),
(25,700,o),
(25,600,c),
(25,434,o),
(25,267,o),
(25,100,c),
(25,0,o),
(25,0,o),
(125,0,c)
);
},
{
closed = 1;
nodes = (
(300,400,o),
(300,400,o),
(300,475,c),
(300,550,o),
(300,550,o),
(375,550,c),
(450,550,o),
(450,500,o),
(450,475,c),
(450,450,o),
(450,400,o),
(375,400,c)
);
}
);
width = 750;
},
{
layerId = "3FB0BBD1-C623-48BB-B11C-478BB36E1931";
shapes = (
{
closed = 1;
nodes = (
(264,0,o),
(277,0,o),
(290,0,c),
(350,0,o),
(350,0,o),
(350,75,c),
(350,200,o),
(125,75,o),
(125,200,c),
(125,275,o),
(350,275,o),
(375,275,c),
(400,275,o),
(625,275,o),
(625,200,c),
(625,75,o),
(400,200,o),
(400,75,c),
(400,0,o),
(400,0,o),
(450,0,c),
(467,0,o),
(483,0,o),
(500,0,c),
(575,0,o),
(725,0,o),
(725,100,c),
(725,135,o),
(725,170,o),
(725,205,c),
(725,330,o),
(575,265,o),
(575,340,c),
(575,415,o),
(725,350,o),
(725,475,c),
(725,700,o),
(500,700,o),
(400,700,c),
(384,700,o),
(367,700,o),
(350,700,c),
(250,700,o),
(25,700,o),
(25,600,c),
(25,434,o),
(25,267,o),
(25,100,c),
(25,0,o),
(175,0,o),
(250,0,c)
);
},
{
closed = 1;
nodes = (
(125,400,o),
(125,400,o),
(125,475,c),
(125,550,o),
(125,550,o),
(375,550,c),
(625,550,o),
(625,500,o),
(625,475,c),
(625,450,o),
(625,400,o),
(375,400,c)
);
}
);
width = 750;
},
{
layerId = "D19652E7-EFD0-4E4C-BF76-3B076A5B34BC";
shapes = (
{
closed = 1;
nodes = (
(167,0,o),
(208,0,o),
(250,0,c),
(350,0,o),
(350,0,o),
(350,50,c),
(350,110,o),
(300,90,o),
(300,200,c),
(300,325,o),
(350,325,o),
(375,325,c),
(400,325,o),
(450,325,o),
(450,200,c),
(450,90,o),
(400,110,o),
(400,50,c),
(400,0,o),
(400,0,o),
(500,0,c),
(542,0,o),
(583,0,o),
(625,0,c),
(725,0,o),
(725,100,o),
(725,125,c),
(725,142,o),
(725,158,o),
(725,175,c),
(725,325,o),
(625,175,o),
(625,350,c),
(625,525,o),
(725,375,o),
(725,525,c),
(725,625,o),
(675,700,o),
(575,700,c),
(425,700,o),
(275,700,o),
(125,700,c),
(25,700,o),
(25,475,o),
(25,375,c),
(25,359,o),
(25,342,o),
(25,325,c),
(25,225,o),
(25,0,o),
(125,0,c)
);
},
{
closed = 1;
nodes = (
(300,375,o),
(300,375,o),
(300,501,c),
(300,625,o),
(300,625,o),
(375,625,c),
(450,625,o),
(450,526,o),
(450,501,c),
(450,476,o),
(450,375,o),
(375,375,c)
);
}
);
width = 750;
},
{
layerId = "19B082C2-3429-47B4-A4D8-F059340FFD3C";
shapes = (
{
closed = 1;
nodes = (
(167,0,o),
(208,0,o),
(250,0,c),
(300,0,o),
(300,0,o),
(300,50,c),
(300,50,o),
(300,75,o),
(300,75,c),
(300,150,o),
(350,150,o),
(375,150,c),
(400,150,o),
(450,150,o),
(450,75,c),
(450,75,o),
(450,50,o),
(450,50,c),
(450,0,o),
(450,0,o),
(500,0,c),
(542,0,o),
(583,0,o),
(625,0,c),
(725,0,o),
(725,0,o),
(725,100,c),
(725,142,o),
(725,183,o),
(725,225,c),
(725,350,o),
(625,225,o),
(625,350,c),
(625,475,o),
(725,350,o),
(725,475,c),
(725,600,o),
(625,700,o),
(525,700,c),
(392,700,o),
(258,700,o),
(125,700,c),
(25,700,o),
(25,700,o),
(25,600,c),
(25,434,o),
(25,267,o),
(25,100,c),
(25,0,o),
(25,0,o),
(125,0,c)
);
},
{
closed = 1;
nodes = (
(300,400,o),
(300,400,o),
(300,475,c),
(300,550,o),
(300,550,o),
(375,550,c),
(450,550,o),
(450,500,o),
(450,475,c),
(450,450,o),
(450,400,o),
(375,400,c)
);
}
);
width = 750;
},
{
layerId = "97FA09B7-861C-4A63-ABF9-29244986920C";
shapes = (
{
closed = 1;
nodes = (
(150,0,o),
(175,0,o),
(200,0,c),
(250,0,o),
(266,2,o),
(275,35,c),
(275,35,o),
(281,60,o),
(281,60,c),
(292,98,o),
(325,100,o),
(375,100,c),
(425,100,o),
(458,98,o),
(469,60,c),
(469,60,o),
(475,35,o),
(475,35,c),
(484,2,o),
(500,0,o),
(550,0,c),
(575,0,o),
(600,0,o),
(625,0,c),
(725,0,o),
(725,0,o),
(725,100,c),
(725,142,o),
(725,183,o),
(725,225,c),
(725,350,o),
(600,225,o),
(600,350,c),
(600,475,o),
(725,350,o),
(725,475,c),
(725,600,o),
(625,700,o),
(525,700,c),
(392,700,o),
(258,700,o),
(125,700,c),
(25,700,o),
(25,700,o),
(25,600,c),
(25,434,o),
(25,267,o),
(25,100,c),
(25,0,o),
(25,0,o),
(125,0,c)
);
},
{
closed = 1;
nodes = (
(200,400,o),
(200,400,o),
(200,475,c),
(200,550,o),
(200,550,o),
(375,550,c),
(550,550,o),
(550,500,o),
(550,475,c),
(550,450,o),
(550,400,o),
(375,400,c)
);
}
);
width = 750;
},
{
layerId = "73DF1801-42CB-4FE2-B370-82821562EC7A";
shapes = (
{
closed = 1;
nodes = (
(167,0,o),
(208,0,o),
(250,0,c),
(300,0,o),
(300,0,o),
(300,50,c),
(300,50,o),
(300,175,o),
(300,175,c),
(300,250,o),
(350,250,o),
(375,250,c),
(400,250,o),
(450,250,o),
(450,175,c),
(450,175,o),
(450,50,o),
(450,50,c),
(450,0,o),
(450,0,o),
(500,0,c),
(542,0,o),
(583,0,o),
(625,0,c),
(725,0,o),
(725,0,o),
(725,100,c),
(725,125,o),
(725,150,o),
(725,175,c),
(725,325,o),
(625,175,o),
(625,350,c),
(625,525,o),
(725,375,o),
(725,525,c),
(725,625,o),
(625,700,o),
(525,700,c),
(392,700,o),
(258,700,o),
(125,700,c),
(25,700,o),
(25,700,o),
(25,600,c),
(25,434,o),
(25,267,o),
(25,100,c),
(25,0,o),
(25,0,o),
(125,0,c)
);
},
{
closed = 1;
nodes = (
(300,350,o),
(300,350,o),
(300,475,c),
(300,600,o),
(300,600,o),
(375,600,c),
(450,600,o),
(450,500,o),
(450,475,c),
(450,450,o),
(450,350,o),
(375,350,c)
);
}
);
width = 750;
},
{
layerId = "7255AB37-F0AF-404B-B2C0-BE0CDFEFD522";
shapes = (
{
closed = 1;
nodes = (
(167,0,o),
(208,0,o),
(250,0,c),
(267,17,o),
(283,33,o),
(300,50,c),
(300,59,o),
(300,67,o),
(300,75,c),
(325,100,o),
(350,125,o),
(375,150,c),
(400,125,o),
(425,100,o),
(450,75,c),
(450,67,o),
(450,58,o),
(450,50,c),
(467,34,o),
(483,17,o),
(500,0,c),
(542,0,o),
(583,0,o),
(625,0,c),
(659,34,o),
(692,67,o),
(725,100,c),
(725,142,o),
(725,183,o),
(725,225,c),
(692,267,o),
(658,308,o),
(625,350,c),
(659,392,o),
(692,433,o),
(725,475,c),
(659,550,o),
(592,625,o),
(525,700,c),
(392,700,o),
(258,700,o),
(125,700,c),
(92,667,o),
(58,633,o),
(25,600,c),
(25,434,o),
(25,267,o),
(25,100,c),
(59,67,o),
(92,33,o),
(125,0,c)
);
},
{
closed = 1;
nodes = (
(350,425,o),
(325,450,o),
(300,475,c),
(325,500,o),
(350,525,o),
(375,550,c),
(400,525,o),
(425,500,o),
(450,475,c),
(425,450,o),
(400,425,o),
(375,400,c)
);
}
);
width = 750;
},
{
layerId = "2D1336F4-505A-45CB-96E0-1A391A104589";
shapes = (
{
closed = 1;
nodes = (
(150,0,o),
(175,0,o),
(200,0,c),
(225,12,o),
(250,23,o),
(275,35,c),
(277,44,o),
(279,52,o),
(281,60,c),
(313,74,o),
(344,87,o),
(375,100,c),
(407,87,o),
(438,73,o),
(469,60,c),
(471,52,o),
(473,43,o),
(475,35,c),
(500,24,o),
(525,12,o),
(550,0,c),
(575,0,o),
(600,0,o),
(625,0,c),
(659,34,o),
(692,67,o),
(725,100,c),
(725,142,o),
(725,183,o),
(725,225,c),
(684,267,o),
(642,308,o),
(600,350,c),
(642,392,o),
(683,433,o),
(725,475,c),
(659,550,o),
(592,625,o),
(525,700,c),
(392,700,o),
(258,700,o),
(125,700,c),
(92,667,o),
(58,633,o),
(25,600,c),
(25,434,o),
(25,267,o),
(25,100,c),
(59,67,o),
(92,33,o),
(125,0,c)
);
},
{
closed = 1;
nodes = (
(317,425,o),
(259,450,o),
(200,475,c),
(258,500,o),
(317,525,o),
(375,550,c),
(433,525,o),
(492,500,o),
(550,475,c),
(492,450,o),
(434,425,o),
(375,400,c)
);
}
);
width = 750;
},
{
layerId = "28F6F6CF-6CF1-4298-BBDC-1B578C225890";
shapes = (
{
closed = 1;
nodes = (
(167,0,o),
(208,0,o),
(250,0,c),
(267,17,o),
(283,33,o),
(300,50,c),
(300,92,o),
(300,133,o),
(300,175,c),
(325,200,o),
(350,225,o),
(375,250,c),
(400,225,o),
(425,200,o),
(450,175,c),
(450,134,o),
(450,92,o),
(450,50,c),
(467,34,o),
(483,17,o),
(500,0,c),
(542,0,o),
(583,0,o),
(625,0,c),
(659,34,o),
(692,67,o),
(725,100,c),
(725,125,o),
(725,150,o),
(725,175,c),
(692,234,o),
(658,292,o),
(625,350,c),
(659,409,o),
(692,467,o),
(725,525,c),
(659,584,o),
(592,642,o),
(525,700,c),
(392,700,o),
(258,700,o),
(125,700,c),
(92,667,o),
(58,633,o),
(25,600,c),
(25,434,o),
(25,267,o),
(25,100,c),
(59,67,o),
(92,33,o),
(125,0,c)
);
},
{
closed = 1;
nodes = (
(350,392,o),
(325,434,o),
(300,475,c),
(325,517,o),
(350,559,o),
(375,600,c),
(400,558,o),
(425,517,o),
(450,475,c),
(425,433,o),
(400,392,o),
(375,350,c)
);
}
);
width = 750;
},
{
layerId = "66BFC9E6-1952-4B87-BF6C-C5A8A5CAFA4D";
shapes = (
{
closed = 1;
nodes = (
(167,0,o),
(208,0,o),
(250,0,c),
(284,25,o),
(317,50,o),
(350,75,c),
(334,117,o),
(317,158,o),
(300,200,c),
(325,225,o),
(350,250,o),
(375,275,c),
(400,250,o),
(425,225,o),
(450,200,c),
(434,159,o),
(417,117,o),
(400,75,c),
(434,50,o),
(467,25,o),
(500,0,c),
(542,0,o),
(583,0,o),
(625,0,c),
(659,34,o),
(692,67,o),
(725,100,c),
(725,142,o),
(725,183,o),
(725,225,c),
(692,267,o),
(658,308,o),
(625,350,c),
(659,392,o),
(692,433,o),
(725,475,c),
(659,550,o),
(592,625,o),
(525,700,c),
(392,700,o),
(258,700,o),
(125,700,c),
(92,667,o),
(58,633,o),
(25,600,c),
(25,434,o),
(25,267,o),
(25,100,c),
(59,67,o),
(92,33,o),
(125,0,c)
);
},
{
closed = 1;
nodes = (
(350,425,o),
(325,450,o),
(300,475,c),
(325,500,o),
(350,525,o),
(375,550,c),
(400,525,o),
(425,500,o),
(450,475,c),
(425,450,o),
(400,425,o),
(375,400,c)
);
}
);
width = 750;
},
{
layerId = "5D199366-843B-4174-BE1F-6720719AACE9";
shapes = (
{
closed = 1;
nodes = (
(264,0,o),
(277,0,o),
(290,0,c),
(310,25,o),
(330,50,o),
(350,75,c),
(275,117,o),
(200,158,o),
(125,200,c),
(209,225,o),
(292,250,o),
(375,275,c),
(459,250,o),
(542,225,o),
(625,200,c),
(550,159,o),
(475,117,o),
(400,75,c),
(417,50,o),
(433,25,o),
(450,0,c),
(467,0,o),
(483,0,o),
(500,0,c),
(575,34,o),
(650,67,o),
(725,100,c),
(725,135,o),
(725,170,o),
(725,205,c),
(675,250,o),
(625,295,o),
(575,340,c),
(625,385,o),
(675,430,o),
(725,475,c),
(617,550,o),
(508,625,o),
(400,700,c),
(384,700,o),
(367,700,o),
(350,700,c),
(242,667,o),
(133,633,o),
(25,600,c),
(25,434,o),
(25,267,o),
(25,100,c),
(100,67,o),
(175,33,o),
(250,0,c)
);
},
{
closed = 1;
nodes = (
(292,425,o),
(209,450,o),
(125,475,c),
(208,500,o),
(292,525,o),
(375,550,c),
(458,525,o),
(542,500,o),
(625,475,c),
(542,450,o),
(459,425,o),
(375,400,c)
);
}
);
width = 750;
},
{
layerId = "C9F343FC-F72A-4E5E-9438-E02DE7AFC5D3";
shapes = (
{
closed = 1;
nodes = (
(167,0,o),
(208,0,o),
(250,0,c),
(284,17,o),
(317,33,o),
(350,50,c),
(334,100,o),
(317,150,o),
(300,200,c),
(325,242,o),
(350,283,o),
(375,325,c),
(400,284,o),
(425,242,o),
(450,200,c),
(434,150,o),
(417,100,o),
(400,50,c),
(434,34,o),
(467,17,o),
(500,0,c),
(542,0,o),
(583,0,o),
(625,0,c),
(659,42,o),
(692,83,o),
(725,125,c),
(725,142,o),
(725,158,o),
(725,175,c),
(692,234,o),
(658,292,o),
(625,350,c),
(659,409,o),
(692,467,o),
(725,525,c),
(675,584,o),
(625,642,o),
(575,700,c),
(425,700,o),
(275,700,o),
(125,700,c),
(92,592,o),
(58,483,o),
(25,375,c),
(25,359,o),
(25,342,o),
(25,325,c),
(59,217,o),
(92,108,o),
(125,0,c)
);
},
{
closed = 1;
nodes = (
(350,417,o),
(325,459,o),
(300,501,c),
(325,542,o),
(350,584,o),
(375,625,c),
(400,584,o),
(425,543,o),
(450,501,c),
(425,459,o),
(400,417,o),
(375,375,c)
);
}
);
width = 750;
}
);
unicode = (82,114);
},
{
glyphname = S;
lastChange = "2022-12-19 02:35:13 +0000";
layers = (
{
layerId = m01;
shapes = (
{
closed = 1;
nodes = (
(325,0,o),
(425,0,o),
(525,0,c),
(625,0,o),
(725,100,o),
(725,200,c),
(725,217,o),
(725,233,o),
(725,250,c),
(725,400,o),
(675,450,o),
(500,450,c),
(375,450,o),
(500,400,o),
(375,400,c),
(300,400,o),
(300,450,o),
(300,475,c),
(300,500,o),
(300,550,o),
(375,550,c),
(500,550,o),
(375,500,o),
(500,500,c),
(725,500,o),
(725,500,o),
(725,525,c),
(725,625,o),
(625,700,o),
(525,700,c),
(425,700,o),
(325,700,o),
(225,700,c),
(125,700,o),
(25,600,o),
(25,500,c),
(25,484,o),
(25,467,o),
(25,450,c),
(25,300,o),
(75,250,o),
(250,250,c),
(375,250,o),
(250,300,o),
(375,300,c),
(450,300,o),
(450,250,o),
(450,225,c),
(450,200,o),
(450,150,o),
(375,150,c),
(250,150,o),
(375,200,o),
(250,200,c),
(25,200,o),
(25,200,o),
(25,175,c),
(25,75,o),
(125,0,o),
(225,0,c)
);
}
);
width = 750;
},
{
layerId = "3FB0BBD1-C623-48BB-B11C-478BB36E1931";
shapes = (
{
closed = 1;
nodes = (
(367,0,o),
(383,0,o),
(400,0,c),
(500,0,o),
(725,0,o),
(725,200,c),
(725,217,o),
(725,233,o),
(725,250,c),
(725,400,o),
(725,450,o),
(625,450,c),
(550,450,o),
(600,400,o),
(375,400,c),
(125,400,o),
(125,450,o),
(125,475,c),
(125,500,o),
(125,550,o),
(375,550,c),
(600,550,o),
(550,500,o),
(625,500,c),
(725,500,o),
(725,500,o),
(725,525,c),
(725,700,o),
(500,700,o),
(400,700,c),
(384,700,o),
(367,700,o),
(350,700,c),
(250,700,o),
(25,700,o),
(25,500,c),
(25,484,o),
(25,467,o),
(25,450,c),
(25,300,o),
(25,250,o),
(125,250,c),
(200,250,o),
(150,300,o),
(375,300,c),
(625,300,o),
(625,250,o),
(625,225,c),
(625,200,o),
(625,150,o),
(375,150,c),
(150,150,o),
(200,200,o),
(125,200,c),
(25,200,o),
(25,200,o),
(25,175,c),
(25,0,o),
(250,0,o),
(350,0,c)
);
}
);
width = 750;
},
{
layerId = "D19652E7-EFD0-4E4C-BF76-3B076A5B34BC";
shapes = (
{
closed = 1;
nodes = (
(325,0,o),
(425,0,o),
(525,0,c),
(725,0,o),
(725,225,o),
(725,325,c),
(725,342,o),
(725,358,o),
(725,375,c),
(725,425,o),
(675,450,o),
(500,450,c),
(375,450,o),
(500,375,o),
(375,375,c),
(300,375,o),
(300,475,o),
(300,500,c),
(300,525,o),
(300,625,o),
(375,625,c),
(500,625,o),
(375,500,o),
(500,500,c),
(725,500,o),
(725,500,o),
(725,525,c),
(725,550,o),
(725,700,o),
(525,700,c),
(425,700,o),
(325,700,o),
(225,700,c),
(25,700,o),
(25,475,o),
(25,375,c),
(25,359,o),
(25,342,o),
(25,325,c),
(25,250,o),
(75,250,o),
(250,250,c),
(375,250,o),
(250,325,o),
(375,325,c),
(450,325,o),
(450,225,o),
(450,200,c),
(450,175,o),
(450,75,o),
(375,75,c),
(250,75,o),
(375,200,o),
(250,200,c),
(25,200,o),
(25,200,o),
(25,175,c),
(25,150,o),
(25,0,o),
(225,0,c)
);
}
);
width = 750;
},
{
layerId = "19B082C2-3429-47B4-A4D8-F059340FFD3C";
shapes = (
{
closed = 1;
nodes = (
(325,0,o),
(425,0,o),
(525,0,c),
(625,0,o),
(725,100,o),
(725,200,c),
(725,217,o),
(725,233,o),
(725,250,c),
(725,400,o),
(725,400,o),
(675,400,c),
(675,400,o),
(650,400,o),
(650,400,c),
(575,400,o),
(575,450,o),
(575,475,c),
(575,500,o),
(575,550,o),
(650,550,c),
(650,550,o),
(675,550,o),
(675,550,c),
(725,550,o),
(725,575,o),
(725,600,c),
(725,700,o),
(625,700,o),
(525,700,c),
(425,700,o),
(325,700,o),
(225,700,c),
(125,700,o),
(25,600,o),
(25,500,c),
(25,484,o),
(25,467,o),
(25,450,c),
(25,300,o),
(25,300,o),
(75,300,c),
(75,300,o),
(100,300,o),
(100,300,c),
(175,300,o),
(175,250,o),
(175,225,c),
(175,200,o),
(175,150,o),
(100,150,c),
(100,150,o),
(75,150,o),
(75,150,c),
(25,150,o),
(25,125,o),
(25,100,c),
(25,0,o),
(125,0,o),
(225,0,c)
);
}
);
width = 750;
},
{
layerId = "97FA09B7-861C-4A63-ABF9-29244986920C";
shapes = (
{
closed = 1;
nodes = (
(325,0,o),
(425,0,o),
(525,0,c),
(625,0,o),
(725,100,o),
(725,200,c),
(725,217,o),
(725,233,o),
(725,250,c),
(725,400,o),
(725,400,o),
(675,400,c),
(675,400,o),
(450,400,o),
(450,400,c),
(375,400,o),
(375,450,o),
(375,475,c),
(375,500,o),
(375,550,o),
(450,550,c),
(450,550,o),
(675,550,o),
(675,550,c),
(725,550,o),
(725,575,o),
(725,600,c),
(725,700,o),
(625,700,o),
(525,700,c),
(425,700,o),
(325,700,o),
(225,700,c),
(125,700,o),
(25,600,o),
(25,500,c),
(25,484,o),
(25,467,o),
(25,450,c),
(25,300,o),
(25,300,o),
(75,300,c),
(75,300,o),
(300,300,o),
(300,300,c),
(375,300,o),
(375,250,o),
(375,225,c),
(375,200,o),
(375,150,o),
(300,150,c),
(300,150,o),
(75,150,o),
(75,150,c),
(25,150,o),
(25,125,o),
(25,100,c),
(25,0,o),
(125,0,o),
(225,0,c)
);
}
);
width = 750;
},
{
layerId = "73DF1801-42CB-4FE2-B370-82821562EC7A";
shapes = (
{
closed = 1;
nodes = (
(325,0,o),
(425,0,o),
(525,0,c),
(625,0,o),
(725,100,o),
(725,200,c),
(725,250,o),
(725,300,o),
(725,350,cs),
(725,369,o),
(723,369,o),
(690,378,c),
(690,378,o),
(665,384,o),
(665,384,c),
(627,395,o),
(625,450,o),
(625,475,c),
(625,500,o),
(627,555,o),
(665,566,c),
(665,566,o),
(690,572,o),
(690,572,c),
(723,581,o),
(725,581,o),
(725,600,cs),
(725,700,o),
(625,700,o),
(525,700,c),
(425,700,o),
(325,700,o),
(225,700,c),
(125,700,o),
(25,600,o),
(25,500,c),
(25,450,o),
(25,400,o),
(25,350,cs),
(25,330,o),
(27,330,o),
(60,321,c),
(60,321,o),
(85,315,o),
(85,315,c),
(123,304,o),
(125,250,o),
(125,225,c),
(125,200,o),
(123,145,o),
(85,134,c),
(85,134,o),
(60,128,o),
(60,128,c),
(27,119,o),
(25,119,o),
(25,100,cs),
(25,0,o),
(125,0,o),
(225,0,c)
);
}
);
width = 750;
},
{
layerId = "7255AB37-F0AF-404B-B2C0-BE0CDFEFD522";
shapes = (
{
closed = 1;
nodes = (
(325,0,o),
(425,0,o),
(525,0,c),
(592,67,o),
(658,133,o),
(725,200,c),
(725,217,o),
(725,233,o),
(725,250,c),
(709,300,o),
(692,350,o),
(675,400,c),
(667,400,o),
(658,400,o),
(650,400,c),
(625,425,o),
(600,450,o),
(575,475,c),
(600,500,o),
(625,525,o),
(650,550,c),
(659,550,o),
(667,550,o),
(675,550,c),
(692,567,o),
(708,583,o),
(725,600,c),
(659,634,o),
(592,667,o),
(525,700,c),
(425,700,o),
(325,700,o),
(225,700,c),
(159,634,o),
(92,567,o),
(25,500,c),
(25,484,o),
(25,467,o),
(25,450,c),
(42,400,o),
(58,350,o),
(75,300,c),
(84,300,o),
(92,300,o),
(100,300,c),
(125,275,o),
(150,250,o),
(175,225,c),
(150,200,o),
(125,175,o),
(100,150,c),
(92,150,o),
(83,150,o),
(75,150,c),
(59,134,o),
(42,117,o),
(25,100,c),
(92,67,o),
(158,33,o),
(225,0,c)
);
}
);
width = 750;
},
{
layerId = "2D1336F4-505A-45CB-96E0-1A391A104589";
shapes = (
{
closed = 1;
nodes = (
(325,0,o),
(425,0,o),
(525,0,c),
(592,67,o),
(658,133,o),
(725,200,c),
(725,217,o),
(725,233,o),
(725,250,c),
(709,300,o),
(692,350,o),
(675,400,c),
(600,400,o),
(525,400,o),
(450,400,c),
(425,425,o),
(400,450,o),
(375,475,c),
(400,500,o),
(425,525,o),
(450,550,c),
(525,550,o),
(600,550,o),
(675,550,c),
(692,567,o),
(708,583,o),
(725,600,c),
(659,634,o),
(592,667,o),
(525,700,c),
(425,700,o),
(325,700,o),
(225,700,c),
(159,634,o),
(92,567,o),
(25,500,c),
(25,484,o),
(25,467,o),
(25,450,c),
(42,400,o),
(58,350,o),
(75,300,c),
(150,300,o),
(225,300,o),
(300,300,c),
(325,275,o),
(350,250,o),
(375,225,c),
(350,200,o),
(325,175,o),
(300,150,c),
(225,150,o),
(150,150,o),
(75,150,c),
(59,134,o),
(42,117,o),
(25,100,c),
(92,67,o),
(158,33,o),
(225,0,c)
);
}
);
width = 750;
},
{
layerId = "28F6F6CF-6CF1-4298-BBDC-1B578C225890";
shapes = (
{
closed = 1;
nodes = (
(325,0,o),
(425,0,o),
(525,0,c),
(592,67,o),
(658,133,o),
(725,200,c),
(725,250,o),
(725,300,o),
(725,350,c),
(714,360,o),
(702,369,o),
(690,378,c),
(682,380,o),
(673,382,o),
(665,384,c),
(652,415,o),
(638,445,o),
(625,475,c),
(639,506,o),
(652,536,o),
(665,566,c),
(674,568,o),
(682,570,o),
(690,572,c),
(702,582,o),
(713,591,o),
(725,600,c),
(659,634,o),
(592,667,o),
(525,700,c),
(425,700,o),
(325,700,o),
(225,700,c),
(159,634,o),
(92,567,o),
(25,500,c),
(25,450,o),
(25,400,o),
(25,350,c),
(37,341,o),
(48,331,o),
(60,321,c),
(69,319,o),
(77,317,o),
(85,315,c),
(99,285,o),
(112,255,o),
(125,225,c),
(112,195,o),
(98,164,o),
(85,134,c),
(77,132,o),
(68,130,o),
(60,128,c),
(49,119,o),
(37,109,o),
(25,100,c),
(92,67,o),
(158,33,o),
(225,0,c)
);
}
);
width = 750;
},
{
layerId = "66BFC9E6-1952-4B87-BF6C-C5A8A5CAFA4D";
shapes = (
{
closed = 1;
nodes = (
(325,0,o),
(425,0,o),
(525,0,c),
(592,67,o),
(658,133,o),
(725,200,c),
(725,217,o),
(725,233,o),
(725,250,c),
(650,317,o),
(575,383,o),
(500,450,c),
(459,434,o),
(417,417,o),
(375,400,c),
(350,425,o),
(325,450,o),
(300,475,c),
(325,500,o),
(350,525,o),
(375,550,c),
(417,534,o),
(458,517,o),
(500,500,c),
(575,509,o),
(650,517,o),
(725,525,c),
(659,584,o),
(592,642,o),
(525,700,c),
(425,700,o),
(325,700,o),
(225,700,c),
(159,634,o),
(92,567,o),
(25,500,c),
(25,484,o),
(25,467,o),
(25,450,c),
(100,384,o),
(175,317,o),
(250,250,c),
(292,267,o),
(333,283,o),
(375,300,c),
(400,275,o),
(425,250,o),
(450,225,c),
(425,200,o),
(400,175,o),
(375,150,c),
(334,167,o),
(292,183,o),
(250,200,c),
(175,192,o),
(100,183,o),
(25,175,c),
(92,117,o),
(158,58,o),
(225,0,c)
);
}
);
width = 750;
},
{
layerId = "5D199366-843B-4174-BE1F-6720719AACE9";
shapes = (
{
closed = 1;
nodes = (
(367,0,o),
(383,0,o),
(400,0,c),
(509,67,o),
(617,133,o),
(725,200,c),
(725,217,o),
(725,233,o),
(725,250,c),
(692,317,o),
(658,383,o),
(625,450,c),
(542,434,o),
(458,417,o),
(375,400,c),
(292,425,o),
(208,450,o),
(125,475,c),
(209,500,o),
(292,525,o),
(375,550,c),
(459,534,o),
(542,517,o),
(625,500,c),
(659,509,o),
(692,517,o),
(725,525,c),
(617,584,o),
(508,642,o),
(400,700,c),
(384,700,o),
(367,700,o),
(350,700,c),
(242,634,o),
(133,567,o),
(25,500,c),
(25,484,o),
(25,467,o),
(25,450,c),
(59,384,o),
(92,317,o),
(125,250,c),
(209,267,o),
(292,283,o),
(375,300,c),
(459,275,o),
(542,250,o),
(625,225,c),
(542,200,o),
(458,175,o),
(375,150,c),
(292,167,o),
(208,183,o),
(125,200,c),
(92,192,o),
(58,183,o),
(25,175,c),
(134,117,o),
(242,58,o),
(350,0,c)
);
}
);
width = 750;
},
{
layerId = "C9F343FC-F72A-4E5E-9438-E02DE7AFC5D3";
shapes = (
{
closed = 1;
nodes = (
(325,0,o),
(425,0,o),
(525,0,c),
(592,109,o),
(658,217,o),
(725,325,c),
(725,342,o),
(725,358,o),
(725,375,c),
(650,400,o),
(575,425,o),
(500,450,c),
(459,425,o),
(417,400,o),
(375,375,c),
(350,417,o),
(325,458,o),
(300,500,c),
(325,542,o),
(350,583,o),
(375,625,c),
(417,584,o),
(458,542,o),
(500,500,c),
(575,509,o),
(650,517,o),
(725,525,c),
(659,584,o),
(592,642,o),
(525,700,c),
(425,700,o),
(325,700,o),
(225,700,c),
(159,592,o),
(92,483,o),
(25,375,c),
(25,359,o),
(25,342,o),
(25,325,c),
(100,300,o),
(175,275,o),
(250,250,c),
(292,275,o),
(333,300,o),
(375,325,c),
(400,284,o),
(425,242,o),
(450,200,c),
(425,159,o),
(400,117,o),
(375,75,c),
(334,117,o),
(292,158,o),
(250,200,c),
(175,192,o),
(100,183,o),
(25,175,c),
(92,117,o),
(158,58,o),
(225,0,c)
);
}
);
width = 750;
}
);
unicode = (83,115);
},
{
glyphname = T;
lastChange = "2022-12-19 02:34:44 +0000";
layers = (
{
layerId = m01;
shapes = (
{
closed = 1;
nodes = (
(334,0,o),
(417,0,o),
(500,0,c),
(600,0,o),
(600,87,o),
(600,137,c),
(600,187,o),
(600,275,o),
(500,275,c),
(450,275,o),
(450,325,o),
(450,350,c),
(450,375,o),
(450,425,o),
(525,425,c),
(650,425,o),
(525,375,o),
(650,375,c),
(725,375,o),
(725,375,o),
(725,475,c),
(725,517,o),
(725,558,o),
(725,600,c),
(725,700,o),
(725,700,o),
(625,700,c),
(459,700,o),
(292,700,o),
(125,700,c),
(25,700,o),
(25,700,o),
(25,600,c),
(25,559,o),
(25,517,o),
(25,475,c),
(25,375,o),
(25,375,o),
(100,375,c),
(225,375,o),
(100,425,o),
(225,425,c),
(300,425,o),
(300,375,o),
(300,350,c),
(300,325,o),
(300,275,o),
(250,275,c),
(150,275,o),
(150,187,o),
(150,137,c),
(150,87,o),
(150,0,o),
(250,0,c)
);
}
);
width = 750;
},
{
layerId = "3FB0BBD1-C623-48BB-B11C-478BB36E1931";
shapes = (
{
closed = 1;
nodes = (
(367,0,o),
(383,0,o),
(400,0,c),
(500,0,o),
(600,0,o),
(600,87,c),
(600,260,o),
(600,260,o),
(500,260,c),
(425,260,o),
(425,325,o),
(425,350,c),
(425,375,o),
(425,440,o),
(525,440,c),
(650,440,o),
(650,375,o),
(700,375,c),
(725,375,o),
(725,375,o),
(725,475,c),
(725,517,o),
(725,558,o),
(725,600,c),
(725,700,o),
(500,700,o),
(400,700,c),
(384,700,o),
(367,700,o),
(350,700,c),
(250,700,o),
(25,700,o),
(25,600,c),
(25,559,o),
(25,517,o),
(25,475,c),
(25,375,o),
(25,375,o),
(50,375,c),
(100,375,o),
(100,440,o),
(225,440,c),
(325,440,o),
(325,375,o),
(325,350,c),
(325,325,o),
(325,260,o),
(250,260,c),
(150,260,o),
(150,260,o),
(150,87,c),
(150,0,o),
(250,0,o),
(350,0,c)
);
}
);
width = 750;
},
{
layerId = "D19652E7-EFD0-4E4C-BF76-3B076A5B34BC";
shapes = (
{
closed = 1;
nodes = (
(334,0,o),
(417,0,o),
(500,0,c),
(550,0,o),
(600,0,o),
(600,175,c),
(600,225,o),
(575,225,o),
(535,225,c),
(460,225,o),
(460,300,o),
(460,350,c),
(460,400,o),
(460,605,o),
(535,605,c),
(650,605,o),
(535,375,o),
(650,375,c),
(725,375,o),
(725,375,o),
(725,425,c),
(725,442,o),
(725,458,o),
(725,475,c),
(725,550,o),
(725,700,o),
(625,700,c),
(459,700,o),
(292,700,o),
(125,700,c),
(25,700,o),
(25,550,o),
(25,475,c),
(25,459,o),
(25,442,o),
(25,425,c),
(25,375,o),
(25,375,o),
(100,375,c),
(215,375,o),
(100,605,o),
(215,605,c),
(290,605,o),
(290,400,o),
(290,350,c),
(290,300,o),
(290,225,o),
(215,225,c),
(175,225,o),
(150,225,o),
(150,175,c),
(150,0,o),
(200,0,o),
(250,0,c)
);
}
);
width = 750;
},
{
layerId = "19B082C2-3429-47B4-A4D8-F059340FFD3C";
shapes = (
{
closed = 1;
nodes = (
(334,0,o),
(417,0,o),
(500,0,c),
(600,0,o),
(600,87,o),
(600,137,c),
(600,187,o),
(600,275,o),
(525,275,c),
(475,275,o),
(475,325,o),
(475,350,c),
(475,375,o),
(475,425,o),
(525,425,c),
(525,425,o),
(650,425,o),
(650,425,c),
(725,425,o),
(725,425,o),
(725,525,c),
(725,550,o),
(725,575,o),
(725,600,c),
(725,700,o),
(725,700,o),
(625,700,c),
(459,700,o),
(292,700,o),
(125,700,c),
(25,700,o),
(25,700,o),
(25,600,c),
(25,575,o),
(25,550,o),
(25,525,c),
(25,425,o),
(25,425,o),
(100,425,c),
(100,425,o),
(225,425,o),
(225,425,c),
(275,425,o),
(275,375,o),
(275,350,c),
(275,325,o),
(275,275,o),
(225,275,c),
(150,275,o),
(150,187,o),
(150,137,c),
(150,87,o),
(150,0,o),
(250,0,c)
);
}
);
width = 750;
},
{
layerId = "97FA09B7-861C-4A63-ABF9-29244986920C";
shapes = (
{
closed = 1;
nodes = (
(334,0,o),
(417,0,o),
(500,0,c),
(600,0,o),
(600,87,o),
(600,137,c),
(600,187,o),
(600,275,o),
(525,275,c),
(425,275,o),
(425,325,o),
(425,350,c),
(425,375,o),
(425,425,o),
(525,425,c),
(525,425,o),
(650,425,o),
(650,425,c),
(725,425,o),
(725,425,o),
(725,525,c),
(725,550,o),
(725,575,o),
(725,600,c),
(725,700,o),
(725,700,o),
(625,700,c),
(459,700,o),
(292,700,o),
(125,700,c),
(25,700,o),
(25,700,o),
(25,600,c),
(25,575,o),
(25,550,o),
(25,525,c),
(25,425,o),
(25,425,o),
(100,425,c),
(100,425,o),
(225,425,o),
(225,425,c),
(325,425,o),
(325,375,o),
(325,350,c),
(325,325,o),
(325,275,o),
(225,275,c),
(150,275,o),
(150,187,o),
(150,137,c),
(150,87,o),
(150,0,o),
(250,0,c)
);
}
);
width = 750;
},
{
layerId = "73DF1801-42CB-4FE2-B370-82821562EC7A";
shapes = (
{
closed = 1;
nodes = (
(334,0,o),
(417,0,o),
(500,0,c),
(600,0,o),
(600,62,o),
(600,112,c),
(600,162,o),
(600,225,o),
(525,225,c),
(475,225,o),
(475,275,o),
(475,325,c),
(475,375,o),
(475,425,o),
(525,425,c),
(525,425,o),
(650,425,o),
(650,425,c),
(725,425,o),
(725,425,o),
(725,525,c),
(725,550,o),
(725,575,o),
(725,600,c),
(725,700,o),
(725,700,o),
(625,700,c),
(459,700,o),
(292,700,o),
(125,700,c),
(25,700,o),
(25,700,o),
(25,600,c),
(25,575,o),
(25,550,o),
(25,525,c),
(25,425,o),
(25,425,o),
(100,425,c),
(100,425,o),
(225,425,o),
(225,425,c),
(275,425,o),
(275,375,o),
(275,325,c),
(275,275,o),
(275,225,o),
(225,225,c),
(150,225,o),
(150,162,o),
(150,112,c),
(150,62,o),
(150,0,o),
(250,0,c)
);
}
);
width = 750;
},
{
layerId = "7255AB37-F0AF-404B-B2C0-BE0CDFEFD522";
shapes = (
{
closed = 1;
nodes = (
(334,0,o),
(417,0,o),
(500,0,c),
(534,46,o),
(567,91,o),
(600,137,c),
(575,183,o),
(550,229,o),
(525,275,c),
(509,300,o),
(492,325,o),
(475,350,c),
(492,375,o),
(508,400,o),
(525,425,c),
(567,425,o),
(608,425,o),
(650,425,c),
(675,459,o),
(700,492,o),
(725,525,c),
(725,550,o),
(725,575,o),
(725,600,c),
(692,634,o),
(658,667,o),
(625,700,c),
(459,700,o),
(292,700,o),
(125,700,c),
(92,667,o),
(58,633,o),
(25,600,c),
(25,575,o),
(25,550,o),
(25,525,c),
(50,492,o),
(75,458,o),
(100,425,c),
(142,425,o),
(183,425,o),
(225,425,c),
(242,400,o),
(258,375,o),
(275,350,c),
(259,325,o),
(242,300,o),
(225,275,c),
(200,229,o),
(175,183,o),
(150,137,c),
(184,92,o),
(217,46,o),
(250,0,c)
);
}
);
width = 750;
},
{
layerId = "2D1336F4-505A-45CB-96E0-1A391A104589";
shapes = (
{
closed = 1;
nodes = (
(334,0,o),
(417,0,o),
(500,0,c),
(534,46,o),
(567,91,o),
(600,137,c),
(575,183,o),
(550,229,o),
(525,275,c),
(492,300,o),
(458,325,o),
(425,350,c),
(459,375,o),
(492,400,o),
(525,425,c),
(567,425,o),
(608,425,o),
(650,425,c),
(675,459,o),
(700,492,o),
(725,525,c),
(725,550,o),
(725,575,o),
(725,600,c),
(692,634,o),
(658,667,o),
(625,700,c),
(459,700,o),
(292,700,o),
(125,700,c),
(92,667,o),
(58,633,o),
(25,600,c),
(25,575,o),
(25,550,o),
(25,525,c),
(50,492,o),
(75,458,o),
(100,425,c),
(142,425,o),
(183,425,o),
(225,425,c),
(259,400,o),
(292,375,o),
(325,350,c),
(292,325,o),
(258,300,o),
(225,275,c),
(200,229,o),
(175,183,o),
(150,137,c),
(184,92,o),
(217,46,o),
(250,0,c)
);
}
);
width = 750;
},
{
layerId = "28F6F6CF-6CF1-4298-BBDC-1B578C225890";
shapes = (
{
closed = 1;
nodes = (
(334,0,o),
(417,0,o),
(500,0,c),
(534,38,o),
(567,75,o),
(600,112,c),
(575,150,o),
(550,187,o),
(525,225,c),
(509,259,o),
(492,292,o),
(475,325,c),
(492,359,o),
(508,392,o),
(525,425,c),
(567,425,o),
(608,425,o),
(650,425,c),
(675,459,o),
(700,492,o),
(725,525,c),
(725,550,o),
(725,575,o),
(725,600,c),
(692,634,o),
(658,667,o),
(625,700,c),
(459,700,o),
(292,700,o),
(125,700,c),
(92,667,o),
(58,633,o),
(25,600,c),
(25,575,o),
(25,550,o),
(25,525,c),
(50,492,o),
(75,458,o),
(100,425,c),
(142,425,o),
(183,425,o),
(225,425,c),
(242,392,o),
(258,358,o),
(275,325,c),
(259,292,o),
(242,258,o),
(225,225,c),
(200,188,o),
(175,150,o),
(150,112,c),
(184,75,o),
(217,37,o),
(250,0,c)
);
}
);
width = 750;
},
{
layerId = "66BFC9E6-1952-4B87-BF6C-C5A8A5CAFA4D";
shapes = (
{
closed = 1;
nodes = (
(334,0,o),
(417,0,o),
(500,0,c),
(534,46,o),
(567,91,o),
(600,137,c),
(567,183,o),
(533,229,o),
(500,275,c),
(484,300,o),
(467,325,o),
(450,350,c),
(475,375,o),
(500,400,o),
(525,425,c),
(567,409,o),
(608,392,o),
(650,375,c),
(675,409,o),
(700,442,o),
(725,475,c),
(725,517,o),
(725,558,o),
(725,600,c),
(692,634,o),
(658,667,o),
(625,700,c),
(459,700,o),
(292,700,o),
(125,700,c),
(92,667,o),
(58,633,o),
(25,600,c),
(25,559,o),
(25,517,o),
(25,475,c),
(50,442,o),
(75,408,o),
(100,375,c),
(142,392,o),
(183,408,o),
(225,425,c),
(250,400,o),
(275,375,o),
(300,350,c),
(284,325,o),
(267,300,o),
(250,275,c),
(217,229,o),
(183,183,o),
(150,137,c),
(184,92,o),
(217,46,o),
(250,0,c)
);
}
);
width = 750;
},
{
layerId = "5D199366-843B-4174-BE1F-6720719AACE9";
shapes = (
{
closed = 1;
nodes = (
(367,0,o),
(383,0,o),
(400,0,c),
(467,29,o),
(533,58,o),
(600,87,c),
(567,145,o),
(533,202,o),
(500,260,c),
(475,290,o),
(450,320,o),
(425,350,c),
(459,380,o),
(492,410,o),
(525,440,c),
(584,419,o),
(642,397,o),
(700,375,c),
(709,409,o),
(717,442,o),
(725,475,c),
(725,517,o),
(725,558,o),
(725,600,c),
(617,634,o),
(508,667,o),
(400,700,c),
(384,700,o),
(367,700,o),
(350,700,c),
(242,667,o),
(133,633,o),
(25,600,c),
(25,559,o),
(25,517,o),
(25,475,c),
(34,442,o),
(42,408,o),
(50,375,c),
(109,397,o),
(167,418,o),
(225,440,c),
(259,410,o),
(292,380,o),
(325,350,c),
(300,320,o),
(275,290,o),
(250,260,c),
(217,203,o),
(183,145,o),
(150,87,c),
(217,58,o),
(283,29,o),
(350,0,c)
);
}
);
width = 750;
},
{
layerId = "C9F343FC-F72A-4E5E-9438-E02DE7AFC5D3";
shapes = (
{
closed = 1;
nodes = (
(334,0,o),
(417,0,o),
(500,0,c),
(534,59,o),
(567,117,o),
(600,175,c),
(579,192,o),
(557,208,o),
(535,225,c),
(510,267,o),
(485,308,o),
(460,350,c),
(485,435,o),
(510,520,o),
(535,605,c),
(574,529,o),
(612,452,o),
(650,375,c),
(675,392,o),
(700,408,o),
(725,425,c),
(725,442,o),
(725,458,o),
(725,475,c),
(692,550,o),
(658,625,o),
(625,700,c),
(459,700,o),
(292,700,o),
(125,700,c),
(92,625,o),
(58,550,o),
(25,475,c),
(25,459,o),
(25,442,o),
(25,425,c),
(50,409,o),
(75,392,o),
(100,375,c),
(139,452,o),
(177,528,o),
(215,605,c),
(240,520,o),
(265,435,o),
(290,350,c),
(265,309,o),
(240,267,o),
(215,225,c),
(194,209,o),
(172,192,o),
(150,175,c),
(184,117,o),
(217,58,o),
(250,0,c)
);
}
);
width = 750;
}
);
unicode = (84,116);
},
{
glyphname = U;
lastChange = "2022-12-19 02:34:16 +0000";
layers = (
{
layerId = m01;
shapes = (
{
closed = 1;
nodes = (
(325,0,o),
(425,0,o),
(525,0,c),
(625,0,o),
(725,100,o),
(725,200,c),
(725,334,o),
(725,467,o),
(725,600,c),
(725,700,o),
(725,700,o),
(625,700,c),
(584,700,o),
(542,700,o),
(500,700,c),
(400,700,o),
(400,700,o),
(400,600,c),
(400,559,o),
(400,517,o),
(400,475,c),
(400,350,o),
(450,475,o),
(450,350,c),
(450,275,o),
(400,275,o),
(375,275,c),
(350,275,o),
(300,275,o),
(300,350,c),
(300,475,o),
(350,350,o),
(350,475,c),
(350,517,o),
(350,558,o),
(350,600,c),
(350,700,o),
(350,700,o),
(250,700,c),
(209,700,o),
(167,700,o),
(125,700,c),
(25,700,o),
(25,700,o),
(25,600,c),
(25,467,o),
(25,333,o),
(25,200,c),
(25,100,o),
(125,0,o),
(225,0,c)
);
}
);
width = 750;
},
{
layerId = "3FB0BBD1-C623-48BB-B11C-478BB36E1931";
shapes = (
{
closed = 1;
nodes = (
(367,0,o),
(383,0,o),
(400,0,c),
(500,0,o),
(725,0,o),
(725,200,c),
(725,334,o),
(725,467,o),
(725,600,c),
(725,700,o),
(575,700,o),
(500,700,c),
(484,700,o),
(467,700,o),
(450,700,c),
(400,700,o),
(400,700,o),
(400,600,c),
(400,567,o),
(400,533,o),
(400,500,c),
(400,375,o),
(625,500,o),
(625,350,c),
(625,250,o),
(425,250,o),
(375,250,c),
(325,250,o),
(125,250,o),
(125,350,c),
(125,500,o),
(350,375,o),
(350,500,c),
(350,534,o),
(350,567,o),
(350,600,c),
(350,700,o),
(350,700,o),
(300,700,c),
(284,700,o),
(267,700,o),
(250,700,c),
(175,700,o),
(25,700,o),
(25,600,c),
(25,467,o),
(25,333,o),
(25,200,c),
(25,0,o),
(250,0,o),
(350,0,c)
);
}
);
width = 750;
},
{
layerId = "D19652E7-EFD0-4E4C-BF76-3B076A5B34BC";
shapes = (
{
closed = 1;
nodes = (
(325,0,o),
(425,0,o),
(525,0,c),
(725,0,o),
(725,275,o),
(725,325,c),
(725,342,o),
(725,358,o),
(725,375,c),
(725,475,o),
(725,700,o),
(625,700,c),
(584,700,o),
(542,700,o),
(500,700,c),
(400,700,o),
(400,700,o),
(400,650,c),
(400,634,o),
(400,617,o),
(400,600,c),
(400,525,o),
(450,575,o),
(450,350,c),
(450,75,o),
(400,75,o),
(375,75,c),
(350,75,o),
(300,75,o),
(300,350,c),
(300,575,o),
(350,525,o),
(350,600,c),
(350,617,o),
(350,633,o),
(350,650,c),
(350,700,o),
(350,700,o),
(250,700,c),
(209,700,o),
(167,700,o),
(125,700,c),
(25,700,o),
(25,475,o),
(25,375,c),
(25,359,o),
(25,342,o),
(25,325,c),
(25,275,o),
(25,0,o),
(225,0,c)
);
}
);
width = 750;
},
{
layerId = "19B082C2-3429-47B4-A4D8-F059340FFD3C";
shapes = (
{
closed = 1;
nodes = (
(325,0,o),
(425,0,o),
(525,0,c),
(625,0,o),
(725,100,o),
(725,200,c),
(725,334,o),
(725,467,o),
(725,600,c),
(725,700,o),
(725,700,o),
(625,700,c),
(584,700,o),
(542,700,o),
(500,700,c),
(450,700,o),
(450,700,o),
(450,650,c),
(450,646,o),
(450,641,o),
(450,637,c),
(450,637,o),
(450,625,o),
(450,625,c),
(450,550,o),
(400,550,o),
(375,550,c),
(350,550,o),
(300,550,o),
(300,625,c),
(300,625,o),
(300,637,o),
(300,637,c),
(300,642,o),
(300,646,o),
(300,650,c),
(300,700,o),
(300,700,o),
(250,700,c),
(209,700,o),
(167,700,o),
(125,700,c),
(25,700,o),
(25,700,o),
(25,600,c),
(25,467,o),
(25,333,o),
(25,200,c),
(25,100,o),
(125,0,o),
(225,0,c)
);
}
);
width = 750;
},
{
layerId = "97FA09B7-861C-4A63-ABF9-29244986920C";
shapes = (
{
closed = 1;
nodes = (
(325,0,o),
(425,0,o),
(525,0,c),
(625,0,o),
(725,100,o),
(725,200,c),
(725,334,o),
(725,467,o),
(725,600,c),
(725,700,o),
(725,700,o),
(625,700,c),
(600,700,o),
(575,700,o),
(550,700,c),
(500,700,o),
(482,698,o),
(472,660,c),
(472,660,o),
(470,652,o),
(470,652,c),
(470,652,o),
(468,645,o),
(468,645,c),
(456,602,o),
(400,600,o),
(375,600,c),
(350,600,o),
(294,602,o),
(282,645,c),
(282,645,o),
(280,652,o),
(280,652,c),
(280,652,o),
(278,660,o),
(278,660,c),
(268,698,o),
(250,700,o),
(200,700,c),
(175,700,o),
(150,700,o),
(125,700,c),
(25,700,o),
(25,700,o),
(25,600,c),
(25,467,o),
(25,333,o),
(25,200,c),
(25,100,o),
(125,0,o),
(225,0,c)
);
}
);
width = 750;
},
{
layerId = "73DF1801-42CB-4FE2-B370-82821562EC7A";
shapes = (
{
closed = 1;
nodes = (
(325,0,o),
(425,0,o),
(525,0,c),
(625,0,o),
(725,100,o),
(725,200,c),
(725,334,o),
(725,467,o),
(725,600,c),
(725,700,o),
(725,700,o),
(625,700,c),
(584,700,o),
(542,700,o),
(500,700,c),
(450,700,o),
(450,700,o),
(450,650,c),
(450,634,o),
(450,617,o),
(450,600,c),
(450,600,o),
(450,425,o),
(450,425,c),
(450,350,o),
(400,350,o),
(375,350,c),
(350,350,o),
(300,350,o),
(300,425,c),
(300,425,o),
(300,600,o),
(300,600,c),
(300,617,o),
(300,633,o),
(300,650,c),
(300,700,o),
(300,700,o),
(250,700,c),
(209,700,o),
(167,700,o),
(125,700,c),
(25,700,o),
(25,700,o),
(25,600,c),
(25,467,o),
(25,333,o),
(25,200,c),
(25,100,o),
(125,0,o),
(225,0,c)
);
}
);
width = 750;
},
{
layerId = "7255AB37-F0AF-404B-B2C0-BE0CDFEFD522";
shapes = (
{
closed = 1;
nodes = (
(325,0,o),
(425,0,o),
(525,0,c),
(592,67,o),
(658,133,o),
(725,200,c),
(725,334,o),
(725,467,o),
(725,600,c),
(692,634,o),
(658,667,o),
(625,700,c),
(584,700,o),
(542,700,o),
(500,700,c),
(484,684,o),
(467,667,o),
(450,650,c),
(450,646,o),
(450,641,o),
(450,637,c),
(450,633,o),
(450,629,o),
(450,625,c),
(425,600,o),
(400,575,o),
(375,550,c),
(350,575,o),
(325,600,o),
(300,625,c),
(300,629,o),
(300,633,o),
(300,637,c),
(300,642,o),
(300,646,o),
(300,650,c),
(284,667,o),
(267,683,o),
(250,700,c),
(209,700,o),
(167,700,o),
(125,700,c),
(92,667,o),
(58,633,o),
(25,600,c),
(25,467,o),
(25,333,o),
(25,200,c),
(92,134,o),
(158,67,o),
(225,0,c)
);
}
);
width = 750;
},
{
layerId = "2D1336F4-505A-45CB-96E0-1A391A104589";
shapes = (
{
closed = 1;
nodes = (
(325,0,o),
(425,0,o),
(525,0,c),
(592,67,o),
(658,133,o),
(725,200,c),
(725,334,o),
(725,467,o),
(725,600,c),
(692,634,o),
(658,667,o),
(625,700,c),
(600,700,o),
(575,700,o),
(550,700,c),
(524,687,o),
(498,673,o),
(472,660,c),
(472,660,o),
(470,652,o),
(470,652,c),
(470,652,o),
(468,645,o),
(468,645,c),
(437,630,o),
(406,615,o),
(375,600,c),
(344,615,o),
(313,630,o),
(282,645,c),
(282,645,o),
(280,652,o),
(280,652,c),
(280,652,o),
(278,660,o),
(278,660,c),
(252,674,o),
(226,687,o),
(200,700,c),
(175,700,o),
(150,700,o),
(125,700,c),
(92,667,o),
(58,633,o),
(25,600,c),
(25,467,o),
(25,333,o),
(25,200,c),
(92,134,o),
(158,67,o),
(225,0,c)
);
}
);
width = 750;
},
{
layerId = "28F6F6CF-6CF1-4298-BBDC-1B578C225890";
shapes = (
{
closed = 1;
nodes = (
(325,0,o),
(425,0,o),
(525,0,c),
(592,67,o),
(658,133,o),
(725,200,c),
(725,334,o),
(725,467,o),
(725,600,c),
(692,634,o),
(658,667,o),
(625,700,c),
(584,700,o),
(542,700,o),
(500,700,c),
(484,684,o),
(467,667,o),
(450,650,c),
(450,634,o),
(450,617,o),
(450,600,c),
(450,542,o),
(450,483,o),
(450,425,c),
(425,400,o),
(400,375,o),
(375,350,c),
(350,375,o),
(325,400,o),
(300,425,c),
(300,484,o),
(300,542,o),
(300,600,c),
(300,617,o),
(300,633,o),
(300,650,c),
(284,667,o),
(267,683,o),
(250,700,c),
(209,700,o),
(167,700,o),
(125,700,c),
(92,667,o),
(58,633,o),
(25,600,c),
(25,467,o),
(25,333,o),
(25,200,c),
(92,134,o),
(158,67,o),
(225,0,c)
);
}
);
width = 750;
},
{
layerId = "66BFC9E6-1952-4B87-BF6C-C5A8A5CAFA4D";
shapes = (
{
closed = 1;
nodes = (
(325,0,o),
(425,0,o),
(525,0,c),
(592,67,o),
(658,133,o),
(725,200,c),
(725,334,o),
(725,467,o),
(725,600,c),
(692,634,o),
(658,667,o),
(625,700,c),
(584,700,o),
(542,700,o),
(500,700,c),
(467,667,o),
(433,633,o),
(400,600,c),
(400,559,o),
(400,517,o),
(400,475,c),
(417,434,o),
(433,392,o),
(450,350,c),
(425,325,o),
(400,300,o),
(375,275,c),
(350,300,o),
(325,325,o),
(300,350,c),
(317,392,o),
(333,433,o),
(350,475,c),
(350,517,o),
(350,558,o),
(350,600,c),
(317,634,o),
(283,667,o),
(250,700,c),
(209,700,o),
(167,700,o),
(125,700,c),
(92,667,o),
(58,633,o),
(25,600,c),
(25,467,o),
(25,333,o),
(25,200,c),
(92,134,o),
(158,67,o),
(225,0,c)
);
}
);
width = 750;
},
{
layerId = "5D199366-843B-4174-BE1F-6720719AACE9";
shapes = (
{
closed = 1;
nodes = (
(367,0,o),
(383,0,o),
(400,0,c),
(509,67,o),
(617,133,o),
(725,200,c),
(725,334,o),
(725,467,o),
(725,600,c),
(650,634,o),
(575,667,o),
(500,700,c),
(484,700,o),
(467,700,o),
(450,700,c),
(434,667,o),
(417,633,o),
(400,600,c),
(400,567,o),
(400,533,o),
(400,500,c),
(475,450,o),
(550,400,o),
(625,350,c),
(542,317,o),
(458,283,o),
(375,250,c),
(292,284,o),
(208,317,o),
(125,350,c),
(200,400,o),
(275,450,o),
(350,500,c),
(350,534,o),
(350,567,o),
(350,600,c),
(334,634,o),
(317,667,o),
(300,700,c),
(284,700,o),
(267,700,o),
(250,700,c),
(175,667,o),
(100,633,o),
(25,600,c),
(25,467,o),
(25,333,o),
(25,200,c),
(134,134,o),
(242,67,o),
(350,0,c)
);
}
);
width = 750;
},
{
layerId = "C9F343FC-F72A-4E5E-9438-E02DE7AFC5D3";
shapes = (
{
closed = 1;
nodes = (
(325,0,o),
(425,0,o),
(525,0,c),
(592,109,o),
(658,217,o),
(725,325,c),
(725,342,o),
(725,358,o),
(725,375,c),
(692,484,o),
(658,592,o),
(625,700,c),
(584,700,o),
(542,700,o),
(500,700,c),
(467,684,o),
(433,667,o),
(400,650,c),
(400,634,o),
(400,617,o),
(400,600,c),
(417,517,o),
(433,433,o),
(450,350,c),
(425,259,o),
(400,167,o),
(375,75,c),
(350,167,o),
(325,258,o),
(300,350,c),
(317,434,o),
(333,517,o),
(350,600,c),
(350,617,o),
(350,633,o),
(350,650,c),
(317,667,o),
(283,683,o),
(250,700,c),
(209,700,o),
(167,700,o),
(125,700,c),
(92,592,o),
(58,483,o),
(25,375,c),
(25,359,o),
(25,342,o),
(25,325,c),
(92,217,o),
(158,108,o),
(225,0,c)
);
}
);
width = 750;
}
);
unicode = (85,117);
},
